<?xml version="1.0" encoding="utf-8" standalone="no"?>
<!DOCTYPE svg PUBLIC "-//W3C//DTD SVG 1.1//EN"
  "http://www.w3.org/Graphics/SVG/1.1/DTD/svg11.dtd">
<svg xmlns:xlink="http://www.w3.org/1999/xlink" width="720pt" height="432pt" viewBox="0 0 720 432" xmlns="http://www.w3.org/2000/svg" version="1.1">
 <metadata>
  <rdf:RDF xmlns:dc="http://purl.org/dc/elements/1.1/" xmlns:cc="http://creativecommons.org/ns#" xmlns:rdf="http://www.w3.org/1999/02/22-rdf-syntax-ns#">
   <cc:Work>
    <dc:type rdf:resource="http://purl.org/dc/dcmitype/StillImage"/>
    <dc:date>2026-01-02T14:53:48.173039</dc:date>
    <dc:format>image/svg+xml</dc:format>
    <dc:creator>
     <cc:Agent>
      <dc:title>Matplotlib v3.10.7, https://matplotlib.org/</dc:title>
     </cc:Agent>
    </dc:creator>
   </cc:Work>
  </rdf:RDF>
 </metadata>
 <defs>
  <style type="text/css">*{stroke-linejoin: round; stroke-linecap: butt}</style>
 </defs>
 <g id="figure_1">
  <g id="patch_1">
   <path d="M 0 432 
L 720 432 
L 720 0 
L 0 0 
z
" style="fill: #ffffff"/>
  </g>
  <g id="axes_1">
   <g id="patch_2">
    <path d="M 72 324 
L 272 324 
L 272 86.4 
L 72 86.4 
z
" style="fill: #ffffff"/>
   </g>
   <g id="matplotlib.axis_1">
    <g id="xtick_1">
     <g id="line2d_1">
      <defs>
       <path id="md1672a2384" d="M 0 0 
L 0 3.5 
" style="stroke: #000000; stroke-width: 0.8"/>
      </defs>
      <g>
       <use xlink:href="#md1672a2384" x="81.090909" y="324" style="stroke: #000000; stroke-width: 0.8"/>
      </g>
     </g>
     <g id="text_1">
      <!-- 0 -->
      <g transform="translate(77.909659 338.598437) scale(0.1 -0.1)">
       <defs>
        <path id="DejaVuSans-30" d="M 2034 4250 
Q 1547 4250 1301 3770 
Q 1056 3291 1056 2328 
Q 1056 1369 1301 889 
Q 1547 409 2034 409 
Q 2525 409 2770 889 
Q 3016 1369 3016 2328 
Q 3016 3291 2770 3770 
Q 2525 4250 2034 4250 
z
M 2034 4750 
Q 2819 4750 3233 4129 
Q 3647 3509 3647 2328 
Q 3647 1150 3233 529 
Q 2819 -91 2034 -91 
Q 1250 -91 836 529 
Q 422 1150 422 2328 
Q 422 3509 836 4129 
Q 1250 4750 2034 4750 
z
" transform="scale(0.015625)"/>
       </defs>
       <use xlink:href="#DejaVuSans-30"/>
      </g>
     </g>
    </g>
    <g id="xtick_2">
     <g id="line2d_2">
      <g>
       <use xlink:href="#md1672a2384" x="124.446884" y="324" style="stroke: #000000; stroke-width: 0.8"/>
      </g>
     </g>
     <g id="text_2">
      <!-- 100 -->
      <g transform="translate(114.903134 338.598437) scale(0.1 -0.1)">
       <defs>
        <path id="DejaVuSans-31" d="M 794 531 
L 1825 531 
L 1825 4091 
L 703 3866 
L 703 4441 
L 1819 4666 
L 2450 4666 
L 2450 531 
L 3481 531 
L 3481 0 
L 794 0 
L 794 531 
z
" transform="scale(0.015625)"/>
       </defs>
       <use xlink:href="#DejaVuSans-31"/>
       <use xlink:href="#DejaVuSans-30" transform="translate(63.623047 0)"/>
       <use xlink:href="#DejaVuSans-30" transform="translate(127.246094 0)"/>
      </g>
     </g>
    </g>
    <g id="xtick_3">
     <g id="line2d_3">
      <g>
       <use xlink:href="#md1672a2384" x="167.802858" y="324" style="stroke: #000000; stroke-width: 0.8"/>
      </g>
     </g>
     <g id="text_3">
      <!-- 200 -->
      <g transform="translate(158.259108 338.598437) scale(0.1 -0.1)">
       <defs>
        <path id="DejaVuSans-32" d="M 1228 531 
L 3431 531 
L 3431 0 
L 469 0 
L 469 531 
Q 828 903 1448 1529 
Q 2069 2156 2228 2338 
Q 2531 2678 2651 2914 
Q 2772 3150 2772 3378 
Q 2772 3750 2511 3984 
Q 2250 4219 1831 4219 
Q 1534 4219 1204 4116 
Q 875 4013 500 3803 
L 500 4441 
Q 881 4594 1212 4672 
Q 1544 4750 1819 4750 
Q 2544 4750 2975 4387 
Q 3406 4025 3406 3419 
Q 3406 3131 3298 2873 
Q 3191 2616 2906 2266 
Q 2828 2175 2409 1742 
Q 1991 1309 1228 531 
z
" transform="scale(0.015625)"/>
       </defs>
       <use xlink:href="#DejaVuSans-32"/>
       <use xlink:href="#DejaVuSans-30" transform="translate(63.623047 0)"/>
       <use xlink:href="#DejaVuSans-30" transform="translate(127.246094 0)"/>
      </g>
     </g>
    </g>
    <g id="xtick_4">
     <g id="line2d_4">
      <g>
       <use xlink:href="#md1672a2384" x="211.158833" y="324" style="stroke: #000000; stroke-width: 0.8"/>
      </g>
     </g>
     <g id="text_4">
      <!-- 300 -->
      <g transform="translate(201.615083 338.598437) scale(0.1 -0.1)">
       <defs>
        <path id="DejaVuSans-33" d="M 2597 2516 
Q 3050 2419 3304 2112 
Q 3559 1806 3559 1356 
Q 3559 666 3084 287 
Q 2609 -91 1734 -91 
Q 1441 -91 1130 -33 
Q 819 25 488 141 
L 488 750 
Q 750 597 1062 519 
Q 1375 441 1716 441 
Q 2309 441 2620 675 
Q 2931 909 2931 1356 
Q 2931 1769 2642 2001 
Q 2353 2234 1838 2234 
L 1294 2234 
L 1294 2753 
L 1863 2753 
Q 2328 2753 2575 2939 
Q 2822 3125 2822 3475 
Q 2822 3834 2567 4026 
Q 2313 4219 1838 4219 
Q 1578 4219 1281 4162 
Q 984 4106 628 3988 
L 628 4550 
Q 988 4650 1302 4700 
Q 1616 4750 1894 4750 
Q 2613 4750 3031 4423 
Q 3450 4097 3450 3541 
Q 3450 3153 3228 2886 
Q 3006 2619 2597 2516 
z
" transform="scale(0.015625)"/>
       </defs>
       <use xlink:href="#DejaVuSans-33"/>
       <use xlink:href="#DejaVuSans-30" transform="translate(63.623047 0)"/>
       <use xlink:href="#DejaVuSans-30" transform="translate(127.246094 0)"/>
      </g>
     </g>
    </g>
    <g id="xtick_5">
     <g id="line2d_5">
      <g>
       <use xlink:href="#md1672a2384" x="254.514808" y="324" style="stroke: #000000; stroke-width: 0.8"/>
      </g>
     </g>
     <g id="text_5">
      <!-- 400 -->
      <g transform="translate(244.971058 338.598437) scale(0.1 -0.1)">
       <defs>
        <path id="DejaVuSans-34" d="M 2419 4116 
L 825 1625 
L 2419 1625 
L 2419 4116 
z
M 2253 4666 
L 3047 4666 
L 3047 1625 
L 3713 1625 
L 3713 1100 
L 3047 1100 
L 3047 0 
L 2419 0 
L 2419 1100 
L 313 1100 
L 313 1709 
L 2253 4666 
z
" transform="scale(0.015625)"/>
       </defs>
       <use xlink:href="#DejaVuSans-34"/>
       <use xlink:href="#DejaVuSans-30" transform="translate(63.623047 0)"/>
       <use xlink:href="#DejaVuSans-30" transform="translate(127.246094 0)"/>
      </g>
     </g>
    </g>
    <g id="xtick_6">
     <g id="line2d_6">
      <path d="M 72.419714 324 
L 72.419714 86.4 
" clip-path="url(#p1d8cddce5d)" style="fill: none; stroke-dasharray: 0.75,1.2375; stroke-dashoffset: 0; stroke: #808080; stroke-opacity: 0.75; stroke-width: 0.75"/>
     </g>
     <g id="line2d_7">
      <defs>
       <path id="md275f2df24" d="M 0 0 
L 0 2 
" style="stroke: #000000; stroke-width: 0.6"/>
      </defs>
      <g>
       <use xlink:href="#md275f2df24" x="72.419714" y="324" style="stroke: #000000; stroke-width: 0.6"/>
      </g>
     </g>
    </g>
    <g id="xtick_7">
     <g id="line2d_8">
      <path d="M 89.762104 324 
L 89.762104 86.4 
" clip-path="url(#p1d8cddce5d)" style="fill: none; stroke-dasharray: 0.75,1.2375; stroke-dashoffset: 0; stroke: #808080; stroke-opacity: 0.75; stroke-width: 0.75"/>
     </g>
     <g id="line2d_9">
      <g>
       <use xlink:href="#md275f2df24" x="89.762104" y="324" style="stroke: #000000; stroke-width: 0.6"/>
      </g>
     </g>
    </g>
    <g id="xtick_8">
     <g id="line2d_10">
      <path d="M 98.433299 324 
L 98.433299 86.4 
" clip-path="url(#p1d8cddce5d)" style="fill: none; stroke-dasharray: 0.75,1.2375; stroke-dashoffset: 0; stroke: #808080; stroke-opacity: 0.75; stroke-width: 0.75"/>
     </g>
     <g id="line2d_11">
      <g>
       <use xlink:href="#md275f2df24" x="98.433299" y="324" style="stroke: #000000; stroke-width: 0.6"/>
      </g>
     </g>
    </g>
    <g id="xtick_9">
     <g id="line2d_12">
      <path d="M 107.104494 324 
L 107.104494 86.4 
" clip-path="url(#p1d8cddce5d)" style="fill: none; stroke-dasharray: 0.75,1.2375; stroke-dashoffset: 0; stroke: #808080; stroke-opacity: 0.75; stroke-width: 0.75"/>
     </g>
     <g id="line2d_13">
      <g>
       <use xlink:href="#md275f2df24" x="107.104494" y="324" style="stroke: #000000; stroke-width: 0.6"/>
      </g>
     </g>
    </g>
    <g id="xtick_10">
     <g id="line2d_14">
      <path d="M 115.775689 324 
L 115.775689 86.4 
" clip-path="url(#p1d8cddce5d)" style="fill: none; stroke-dasharray: 0.75,1.2375; stroke-dashoffset: 0; stroke: #808080; stroke-opacity: 0.75; stroke-width: 0.75"/>
     </g>
     <g id="line2d_15">
      <g>
       <use xlink:href="#md275f2df24" x="115.775689" y="324" style="stroke: #000000; stroke-width: 0.6"/>
      </g>
     </g>
    </g>
    <g id="xtick_11">
     <g id="line2d_16">
      <path d="M 133.118079 324 
L 133.118079 86.4 
" clip-path="url(#p1d8cddce5d)" style="fill: none; stroke-dasharray: 0.75,1.2375; stroke-dashoffset: 0; stroke: #808080; stroke-opacity: 0.75; stroke-width: 0.75"/>
     </g>
     <g id="line2d_17">
      <g>
       <use xlink:href="#md275f2df24" x="133.118079" y="324" style="stroke: #000000; stroke-width: 0.6"/>
      </g>
     </g>
    </g>
    <g id="xtick_12">
     <g id="line2d_18">
      <path d="M 141.789274 324 
L 141.789274 86.4 
" clip-path="url(#p1d8cddce5d)" style="fill: none; stroke-dasharray: 0.75,1.2375; stroke-dashoffset: 0; stroke: #808080; stroke-opacity: 0.75; stroke-width: 0.75"/>
     </g>
     <g id="line2d_19">
      <g>
       <use xlink:href="#md275f2df24" x="141.789274" y="324" style="stroke: #000000; stroke-width: 0.6"/>
      </g>
     </g>
    </g>
    <g id="xtick_13">
     <g id="line2d_20">
      <path d="M 150.460469 324 
L 150.460469 86.4 
" clip-path="url(#p1d8cddce5d)" style="fill: none; stroke-dasharray: 0.75,1.2375; stroke-dashoffset: 0; stroke: #808080; stroke-opacity: 0.75; stroke-width: 0.75"/>
     </g>
     <g id="line2d_21">
      <g>
       <use xlink:href="#md275f2df24" x="150.460469" y="324" style="stroke: #000000; stroke-width: 0.6"/>
      </g>
     </g>
    </g>
    <g id="xtick_14">
     <g id="line2d_22">
      <path d="M 159.131663 324 
L 159.131663 86.4 
" clip-path="url(#p1d8cddce5d)" style="fill: none; stroke-dasharray: 0.75,1.2375; stroke-dashoffset: 0; stroke: #808080; stroke-opacity: 0.75; stroke-width: 0.75"/>
     </g>
     <g id="line2d_23">
      <g>
       <use xlink:href="#md275f2df24" x="159.131663" y="324" style="stroke: #000000; stroke-width: 0.6"/>
      </g>
     </g>
    </g>
    <g id="xtick_15">
     <g id="line2d_24">
      <path d="M 176.474053 324 
L 176.474053 86.4 
" clip-path="url(#p1d8cddce5d)" style="fill: none; stroke-dasharray: 0.75,1.2375; stroke-dashoffset: 0; stroke: #808080; stroke-opacity: 0.75; stroke-width: 0.75"/>
     </g>
     <g id="line2d_25">
      <g>
       <use xlink:href="#md275f2df24" x="176.474053" y="324" style="stroke: #000000; stroke-width: 0.6"/>
      </g>
     </g>
    </g>
    <g id="xtick_16">
     <g id="line2d_26">
      <path d="M 185.145248 324 
L 185.145248 86.4 
" clip-path="url(#p1d8cddce5d)" style="fill: none; stroke-dasharray: 0.75,1.2375; stroke-dashoffset: 0; stroke: #808080; stroke-opacity: 0.75; stroke-width: 0.75"/>
     </g>
     <g id="line2d_27">
      <g>
       <use xlink:href="#md275f2df24" x="185.145248" y="324" style="stroke: #000000; stroke-width: 0.6"/>
      </g>
     </g>
    </g>
    <g id="xtick_17">
     <g id="line2d_28">
      <path d="M 193.816443 324 
L 193.816443 86.4 
" clip-path="url(#p1d8cddce5d)" style="fill: none; stroke-dasharray: 0.75,1.2375; stroke-dashoffset: 0; stroke: #808080; stroke-opacity: 0.75; stroke-width: 0.75"/>
     </g>
     <g id="line2d_29">
      <g>
       <use xlink:href="#md275f2df24" x="193.816443" y="324" style="stroke: #000000; stroke-width: 0.6"/>
      </g>
     </g>
    </g>
    <g id="xtick_18">
     <g id="line2d_30">
      <path d="M 202.487638 324 
L 202.487638 86.4 
" clip-path="url(#p1d8cddce5d)" style="fill: none; stroke-dasharray: 0.75,1.2375; stroke-dashoffset: 0; stroke: #808080; stroke-opacity: 0.75; stroke-width: 0.75"/>
     </g>
     <g id="line2d_31">
      <g>
       <use xlink:href="#md275f2df24" x="202.487638" y="324" style="stroke: #000000; stroke-width: 0.6"/>
      </g>
     </g>
    </g>
    <g id="xtick_19">
     <g id="line2d_32">
      <path d="M 219.830028 324 
L 219.830028 86.4 
" clip-path="url(#p1d8cddce5d)" style="fill: none; stroke-dasharray: 0.75,1.2375; stroke-dashoffset: 0; stroke: #808080; stroke-opacity: 0.75; stroke-width: 0.75"/>
     </g>
     <g id="line2d_33">
      <g>
       <use xlink:href="#md275f2df24" x="219.830028" y="324" style="stroke: #000000; stroke-width: 0.6"/>
      </g>
     </g>
    </g>
    <g id="xtick_20">
     <g id="line2d_34">
      <path d="M 228.501223 324 
L 228.501223 86.4 
" clip-path="url(#p1d8cddce5d)" style="fill: none; stroke-dasharray: 0.75,1.2375; stroke-dashoffset: 0; stroke: #808080; stroke-opacity: 0.75; stroke-width: 0.75"/>
     </g>
     <g id="line2d_35">
      <g>
       <use xlink:href="#md275f2df24" x="228.501223" y="324" style="stroke: #000000; stroke-width: 0.6"/>
      </g>
     </g>
    </g>
    <g id="xtick_21">
     <g id="line2d_36">
      <path d="M 237.172418 324 
L 237.172418 86.4 
" clip-path="url(#p1d8cddce5d)" style="fill: none; stroke-dasharray: 0.75,1.2375; stroke-dashoffset: 0; stroke: #808080; stroke-opacity: 0.75; stroke-width: 0.75"/>
     </g>
     <g id="line2d_37">
      <g>
       <use xlink:href="#md275f2df24" x="237.172418" y="324" style="stroke: #000000; stroke-width: 0.6"/>
      </g>
     </g>
    </g>
    <g id="xtick_22">
     <g id="line2d_38">
      <path d="M 245.843613 324 
L 245.843613 86.4 
" clip-path="url(#p1d8cddce5d)" style="fill: none; stroke-dasharray: 0.75,1.2375; stroke-dashoffset: 0; stroke: #808080; stroke-opacity: 0.75; stroke-width: 0.75"/>
     </g>
     <g id="line2d_39">
      <g>
       <use xlink:href="#md275f2df24" x="245.843613" y="324" style="stroke: #000000; stroke-width: 0.6"/>
      </g>
     </g>
    </g>
    <g id="xtick_23">
     <g id="line2d_40">
      <path d="M 263.186003 324 
L 263.186003 86.4 
" clip-path="url(#p1d8cddce5d)" style="fill: none; stroke-dasharray: 0.75,1.2375; stroke-dashoffset: 0; stroke: #808080; stroke-opacity: 0.75; stroke-width: 0.75"/>
     </g>
     <g id="line2d_41">
      <g>
       <use xlink:href="#md275f2df24" x="263.186003" y="324" style="stroke: #000000; stroke-width: 0.6"/>
      </g>
     </g>
    </g>
    <g id="xtick_24">
     <g id="line2d_42">
      <path d="M 271.857197 324 
L 271.857197 86.4 
" clip-path="url(#p1d8cddce5d)" style="fill: none; stroke-dasharray: 0.75,1.2375; stroke-dashoffset: 0; stroke: #808080; stroke-opacity: 0.75; stroke-width: 0.75"/>
     </g>
     <g id="line2d_43">
      <g>
       <use xlink:href="#md275f2df24" x="271.857197" y="324" style="stroke: #000000; stroke-width: 0.6"/>
      </g>
     </g>
    </g>
    <g id="text_6">
     <!-- Time [s] -->
     <g transform="translate(143.032031 355.315938) scale(0.14 -0.14)">
      <defs>
       <path id="DejaVuSerif-Italic-54" d="M 769 0 
L 831 331 
L 1428 331 
L 2200 4294 
L 828 4294 
L 688 3566 
L 303 3566 
L 516 4666 
L 4659 4666 
L 4447 3566 
L 4063 3566 
L 4203 4294 
L 2831 4294 
L 2059 331 
L 2656 331 
L 2594 0 
L 769 0 
z
" transform="scale(0.015625)"/>
       <path id="DejaVuSerif-Italic-69" d="M 1009 4353 
Q 1038 4497 1163 4603 
Q 1288 4709 1434 4709 
Q 1578 4709 1663 4603 
Q 1728 4522 1728 4422 
Q 1728 4388 1719 4353 
Q 1691 4206 1567 4103 
Q 1444 4000 1297 4000 
Q 1150 4000 1066 4103 
Q 1003 4181 1003 4281 
Q 1003 4316 1009 4353 
z
M 963 331 
L 1506 331 
L 1444 0 
L 325 0 
L 903 2988 
L 353 2988 
L 419 3322 
L 1544 3322 
L 963 331 
z
" transform="scale(0.015625)"/>
       <path id="DejaVuSerif-Italic-6d" d="M 3503 2675 
Q 3741 3041 4034 3227 
Q 4328 3413 4672 3413 
Q 5194 3413 5388 3088 
Q 5503 2894 5503 2578 
Q 5503 2372 5453 2113 
L 5106 331 
L 5625 331 
L 5563 0 
L 4469 0 
L 4866 2047 
Q 4913 2291 4913 2466 
Q 4913 2659 4856 2772 
Q 4750 2988 4403 2988 
Q 4019 2988 3761 2697 
Q 3503 2406 3394 1850 
L 3034 0 
L 2459 0 
L 2863 2069 
Q 2906 2303 2906 2472 
Q 2906 2666 2850 2775 
Q 2741 2988 2394 2988 
Q 2009 2988 1751 2697 
Q 1494 2406 1384 1850 
L 1025 0 
L 450 0 
L 1031 2994 
L 481 2994 
L 544 3322 
L 1669 3322 
L 1556 2731 
Q 1778 3063 2059 3238 
Q 2341 3413 2653 3413 
Q 3041 3413 3262 3220 
Q 3484 3028 3503 2675 
z
" transform="scale(0.015625)"/>
       <path id="DejaVuSerif-Italic-65" d="M 938 1275 
Q 925 1156 925 1050 
Q 925 756 1031 563 
Q 1216 219 1709 219 
Q 2072 219 2250 328 
Q 2569 525 2644 778 
L 3066 778 
Q 2941 381 2475 103 
Q 2150 -91 1506 -91 
Q 863 -91 516 388 
Q 272 722 272 1206 
Q 272 1419 319 1659 
Q 472 2450 1000 2931 
Q 1528 3413 2278 3413 
Q 3500 3413 3500 2547 
Q 3500 1913 2859 1603 
Q 2206 1288 938 1275 
z
M 2541 1975 
Q 2891 2181 2891 2569 
Q 2891 3103 2181 3103 
Q 1763 3103 1472 2784 
Q 1181 2466 1003 1606 
Q 2006 1653 2541 1975 
z
" transform="scale(0.015625)"/>
       <path id="DejaVuSerif-Italic-20" transform="scale(0.015625)"/>
       <path id="DejaVuSerif-Italic-5b" d="M 1106 4863 
L 2559 4863 
L 2497 4531 
L 1641 4531 
L 659 -513 
L 1516 -513 
L 1453 -844 
L 0 -844 
L 1106 4863 
z
" transform="scale(0.015625)"/>
       <path id="DejaVuSerif-Italic-73" d="M 222 959 
L 553 959 
Q 541 869 541 788 
Q 541 219 1313 219 
Q 2088 219 2200 788 
Q 2209 844 2209 944 
Q 2209 1041 2103 1158 
Q 1997 1275 1550 1428 
L 1159 1569 
Q 759 1706 629 1882 
Q 500 2059 500 2263 
Q 500 2344 516 2438 
Q 606 2894 990 3153 
Q 1375 3413 1931 3413 
Q 2484 3413 3066 3144 
L 2925 2419 
L 2594 2419 
Q 2606 2491 2606 2553 
Q 2606 2781 2448 2942 
Q 2291 3103 1925 3103 
Q 1191 3103 1091 2591 
Q 1078 2538 1078 2444 
Q 1078 2347 1179 2237 
Q 1281 2128 1678 1997 
L 2106 1856 
Q 2550 1709 2716 1488 
Q 2831 1331 2831 1178 
Q 2831 522 2306 181 
Q 1894 -91 1262 -91 
Q 631 -91 72 184 
L 222 959 
z
" transform="scale(0.015625)"/>
       <path id="DejaVuSerif-Italic-5d" d="M 2503 4863 
L 1397 -844 
L -56 -844 
L 6 -513 
L 863 -513 
L 1844 4531 
L 988 4531 
L 1050 4863 
L 2503 4863 
z
" transform="scale(0.015625)"/>
      </defs>
      <use xlink:href="#DejaVuSerif-Italic-54"/>
      <use xlink:href="#DejaVuSerif-Italic-69" transform="translate(66.699219 0)"/>
      <use xlink:href="#DejaVuSerif-Italic-6d" transform="translate(98.681641 0)"/>
      <use xlink:href="#DejaVuSerif-Italic-65" transform="translate(193.505859 0)"/>
      <use xlink:href="#DejaVuSerif-Italic-20" transform="translate(252.685547 0)"/>
      <use xlink:href="#DejaVuSerif-Italic-5b" transform="translate(284.472656 0)"/>
      <use xlink:href="#DejaVuSerif-Italic-73" transform="translate(323.486328 0)"/>
      <use xlink:href="#DejaVuSerif-Italic-5d" transform="translate(374.804688 0)"/>
     </g>
    </g>
   </g>
   <g id="matplotlib.axis_2">
    <g id="ytick_1">
     <g id="line2d_44">
      <defs>
       <path id="maf81d5c7b1" d="M 0 0 
L -3.5 0 
" style="stroke: #000000; stroke-width: 0.8"/>
      </defs>
      <g>
       <use xlink:href="#maf81d5c7b1" x="72" y="313.2" style="stroke: #000000; stroke-width: 0.8"/>
      </g>
     </g>
     <g id="text_7">
      <!-- 0.0 -->
      <g transform="translate(49.096875 316.999219) scale(0.1 -0.1)">
       <defs>
        <path id="DejaVuSans-2e" d="M 684 794 
L 1344 794 
L 1344 0 
L 684 0 
L 684 794 
z
" transform="scale(0.015625)"/>
       </defs>
       <use xlink:href="#DejaVuSans-30"/>
       <use xlink:href="#DejaVuSans-2e" transform="translate(63.623047 0)"/>
       <use xlink:href="#DejaVuSans-30" transform="translate(95.410156 0)"/>
      </g>
     </g>
    </g>
    <g id="ytick_2">
     <g id="line2d_45">
      <g>
       <use xlink:href="#maf81d5c7b1" x="72" y="270" style="stroke: #000000; stroke-width: 0.8"/>
      </g>
     </g>
     <g id="text_8">
      <!-- 0.2 -->
      <g transform="translate(49.096875 273.799219) scale(0.1 -0.1)">
       <use xlink:href="#DejaVuSans-30"/>
       <use xlink:href="#DejaVuSans-2e" transform="translate(63.623047 0)"/>
       <use xlink:href="#DejaVuSans-32" transform="translate(95.410156 0)"/>
      </g>
     </g>
    </g>
    <g id="ytick_3">
     <g id="line2d_46">
      <g>
       <use xlink:href="#maf81d5c7b1" x="72" y="226.8" style="stroke: #000000; stroke-width: 0.8"/>
      </g>
     </g>
     <g id="text_9">
      <!-- 0.4 -->
      <g transform="translate(49.096875 230.599219) scale(0.1 -0.1)">
       <use xlink:href="#DejaVuSans-30"/>
       <use xlink:href="#DejaVuSans-2e" transform="translate(63.623047 0)"/>
       <use xlink:href="#DejaVuSans-34" transform="translate(95.410156 0)"/>
      </g>
     </g>
    </g>
    <g id="ytick_4">
     <g id="line2d_47">
      <g>
       <use xlink:href="#maf81d5c7b1" x="72" y="183.6" style="stroke: #000000; stroke-width: 0.8"/>
      </g>
     </g>
     <g id="text_10">
      <!-- 0.6 -->
      <g transform="translate(49.096875 187.399219) scale(0.1 -0.1)">
       <defs>
        <path id="DejaVuSans-36" d="M 2113 2584 
Q 1688 2584 1439 2293 
Q 1191 2003 1191 1497 
Q 1191 994 1439 701 
Q 1688 409 2113 409 
Q 2538 409 2786 701 
Q 3034 994 3034 1497 
Q 3034 2003 2786 2293 
Q 2538 2584 2113 2584 
z
M 3366 4563 
L 3366 3988 
Q 3128 4100 2886 4159 
Q 2644 4219 2406 4219 
Q 1781 4219 1451 3797 
Q 1122 3375 1075 2522 
Q 1259 2794 1537 2939 
Q 1816 3084 2150 3084 
Q 2853 3084 3261 2657 
Q 3669 2231 3669 1497 
Q 3669 778 3244 343 
Q 2819 -91 2113 -91 
Q 1303 -91 875 529 
Q 447 1150 447 2328 
Q 447 3434 972 4092 
Q 1497 4750 2381 4750 
Q 2619 4750 2861 4703 
Q 3103 4656 3366 4563 
z
" transform="scale(0.015625)"/>
       </defs>
       <use xlink:href="#DejaVuSans-30"/>
       <use xlink:href="#DejaVuSans-2e" transform="translate(63.623047 0)"/>
       <use xlink:href="#DejaVuSans-36" transform="translate(95.410156 0)"/>
      </g>
     </g>
    </g>
    <g id="ytick_5">
     <g id="line2d_48">
      <g>
       <use xlink:href="#maf81d5c7b1" x="72" y="140.4" style="stroke: #000000; stroke-width: 0.8"/>
      </g>
     </g>
     <g id="text_11">
      <!-- 0.8 -->
      <g transform="translate(49.096875 144.199219) scale(0.1 -0.1)">
       <defs>
        <path id="DejaVuSans-38" d="M 2034 2216 
Q 1584 2216 1326 1975 
Q 1069 1734 1069 1313 
Q 1069 891 1326 650 
Q 1584 409 2034 409 
Q 2484 409 2743 651 
Q 3003 894 3003 1313 
Q 3003 1734 2745 1975 
Q 2488 2216 2034 2216 
z
M 1403 2484 
Q 997 2584 770 2862 
Q 544 3141 544 3541 
Q 544 4100 942 4425 
Q 1341 4750 2034 4750 
Q 2731 4750 3128 4425 
Q 3525 4100 3525 3541 
Q 3525 3141 3298 2862 
Q 3072 2584 2669 2484 
Q 3125 2378 3379 2068 
Q 3634 1759 3634 1313 
Q 3634 634 3220 271 
Q 2806 -91 2034 -91 
Q 1263 -91 848 271 
Q 434 634 434 1313 
Q 434 1759 690 2068 
Q 947 2378 1403 2484 
z
M 1172 3481 
Q 1172 3119 1398 2916 
Q 1625 2713 2034 2713 
Q 2441 2713 2670 2916 
Q 2900 3119 2900 3481 
Q 2900 3844 2670 4047 
Q 2441 4250 2034 4250 
Q 1625 4250 1398 4047 
Q 1172 3844 1172 3481 
z
" transform="scale(0.015625)"/>
       </defs>
       <use xlink:href="#DejaVuSans-30"/>
       <use xlink:href="#DejaVuSans-2e" transform="translate(63.623047 0)"/>
       <use xlink:href="#DejaVuSans-38" transform="translate(95.410156 0)"/>
      </g>
     </g>
    </g>
    <g id="ytick_6">
     <g id="line2d_49">
      <g>
       <use xlink:href="#maf81d5c7b1" x="72" y="97.2" style="stroke: #000000; stroke-width: 0.8"/>
      </g>
     </g>
     <g id="text_12">
      <!-- 1.0 -->
      <g transform="translate(49.096875 100.999219) scale(0.1 -0.1)">
       <use xlink:href="#DejaVuSans-31"/>
       <use xlink:href="#DejaVuSans-2e" transform="translate(63.623047 0)"/>
       <use xlink:href="#DejaVuSans-30" transform="translate(95.410156 0)"/>
      </g>
     </g>
    </g>
    <g id="ytick_7">
     <g id="line2d_50">
      <path d="M 72 324 
L 272 324 
" clip-path="url(#p1d8cddce5d)" style="fill: none; stroke-dasharray: 0.75,1.2375; stroke-dashoffset: 0; stroke: #808080; stroke-opacity: 0.75; stroke-width: 0.75"/>
     </g>
     <g id="line2d_51">
      <defs>
       <path id="m6aa36555d3" d="M 0 0 
L -2 0 
" style="stroke: #000000; stroke-width: 0.6"/>
      </defs>
      <g>
       <use xlink:href="#m6aa36555d3" x="72" y="324" style="stroke: #000000; stroke-width: 0.6"/>
      </g>
     </g>
    </g>
    <g id="ytick_8">
     <g id="line2d_52">
      <path d="M 72 302.4 
L 272 302.4 
" clip-path="url(#p1d8cddce5d)" style="fill: none; stroke-dasharray: 0.75,1.2375; stroke-dashoffset: 0; stroke: #808080; stroke-opacity: 0.75; stroke-width: 0.75"/>
     </g>
     <g id="line2d_53">
      <g>
       <use xlink:href="#m6aa36555d3" x="72" y="302.4" style="stroke: #000000; stroke-width: 0.6"/>
      </g>
     </g>
    </g>
    <g id="ytick_9">
     <g id="line2d_54">
      <path d="M 72 291.6 
L 272 291.6 
" clip-path="url(#p1d8cddce5d)" style="fill: none; stroke-dasharray: 0.75,1.2375; stroke-dashoffset: 0; stroke: #808080; stroke-opacity: 0.75; stroke-width: 0.75"/>
     </g>
     <g id="line2d_55">
      <g>
       <use xlink:href="#m6aa36555d3" x="72" y="291.6" style="stroke: #000000; stroke-width: 0.6"/>
      </g>
     </g>
    </g>
    <g id="ytick_10">
     <g id="line2d_56">
      <path d="M 72 280.8 
L 272 280.8 
" clip-path="url(#p1d8cddce5d)" style="fill: none; stroke-dasharray: 0.75,1.2375; stroke-dashoffset: 0; stroke: #808080; stroke-opacity: 0.75; stroke-width: 0.75"/>
     </g>
     <g id="line2d_57">
      <g>
       <use xlink:href="#m6aa36555d3" x="72" y="280.8" style="stroke: #000000; stroke-width: 0.6"/>
      </g>
     </g>
    </g>
    <g id="ytick_11">
     <g id="line2d_58">
      <path d="M 72 259.2 
L 272 259.2 
" clip-path="url(#p1d8cddce5d)" style="fill: none; stroke-dasharray: 0.75,1.2375; stroke-dashoffset: 0; stroke: #808080; stroke-opacity: 0.75; stroke-width: 0.75"/>
     </g>
     <g id="line2d_59">
      <g>
       <use xlink:href="#m6aa36555d3" x="72" y="259.2" style="stroke: #000000; stroke-width: 0.6"/>
      </g>
     </g>
    </g>
    <g id="ytick_12">
     <g id="line2d_60">
      <path d="M 72 248.4 
L 272 248.4 
" clip-path="url(#p1d8cddce5d)" style="fill: none; stroke-dasharray: 0.75,1.2375; stroke-dashoffset: 0; stroke: #808080; stroke-opacity: 0.75; stroke-width: 0.75"/>
     </g>
     <g id="line2d_61">
      <g>
       <use xlink:href="#m6aa36555d3" x="72" y="248.4" style="stroke: #000000; stroke-width: 0.6"/>
      </g>
     </g>
    </g>
    <g id="ytick_13">
     <g id="line2d_62">
      <path d="M 72 237.6 
L 272 237.6 
" clip-path="url(#p1d8cddce5d)" style="fill: none; stroke-dasharray: 0.75,1.2375; stroke-dashoffset: 0; stroke: #808080; stroke-opacity: 0.75; stroke-width: 0.75"/>
     </g>
     <g id="line2d_63">
      <g>
       <use xlink:href="#m6aa36555d3" x="72" y="237.6" style="stroke: #000000; stroke-width: 0.6"/>
      </g>
     </g>
    </g>
    <g id="ytick_14">
     <g id="line2d_64">
      <path d="M 72 216 
L 272 216 
" clip-path="url(#p1d8cddce5d)" style="fill: none; stroke-dasharray: 0.75,1.2375; stroke-dashoffset: 0; stroke: #808080; stroke-opacity: 0.75; stroke-width: 0.75"/>
     </g>
     <g id="line2d_65">
      <g>
       <use xlink:href="#m6aa36555d3" x="72" y="216" style="stroke: #000000; stroke-width: 0.6"/>
      </g>
     </g>
    </g>
    <g id="ytick_15">
     <g id="line2d_66">
      <path d="M 72 205.2 
L 272 205.2 
" clip-path="url(#p1d8cddce5d)" style="fill: none; stroke-dasharray: 0.75,1.2375; stroke-dashoffset: 0; stroke: #808080; stroke-opacity: 0.75; stroke-width: 0.75"/>
     </g>
     <g id="line2d_67">
      <g>
       <use xlink:href="#m6aa36555d3" x="72" y="205.2" style="stroke: #000000; stroke-width: 0.6"/>
      </g>
     </g>
    </g>
    <g id="ytick_16">
     <g id="line2d_68">
      <path d="M 72 194.4 
L 272 194.4 
" clip-path="url(#p1d8cddce5d)" style="fill: none; stroke-dasharray: 0.75,1.2375; stroke-dashoffset: 0; stroke: #808080; stroke-opacity: 0.75; stroke-width: 0.75"/>
     </g>
     <g id="line2d_69">
      <g>
       <use xlink:href="#m6aa36555d3" x="72" y="194.4" style="stroke: #000000; stroke-width: 0.6"/>
      </g>
     </g>
    </g>
    <g id="ytick_17">
     <g id="line2d_70">
      <path d="M 72 172.8 
L 272 172.8 
" clip-path="url(#p1d8cddce5d)" style="fill: none; stroke-dasharray: 0.75,1.2375; stroke-dashoffset: 0; stroke: #808080; stroke-opacity: 0.75; stroke-width: 0.75"/>
     </g>
     <g id="line2d_71">
      <g>
       <use xlink:href="#m6aa36555d3" x="72" y="172.8" style="stroke: #000000; stroke-width: 0.6"/>
      </g>
     </g>
    </g>
    <g id="ytick_18">
     <g id="line2d_72">
      <path d="M 72 162 
L 272 162 
" clip-path="url(#p1d8cddce5d)" style="fill: none; stroke-dasharray: 0.75,1.2375; stroke-dashoffset: 0; stroke: #808080; stroke-opacity: 0.75; stroke-width: 0.75"/>
     </g>
     <g id="line2d_73">
      <g>
       <use xlink:href="#m6aa36555d3" x="72" y="162" style="stroke: #000000; stroke-width: 0.6"/>
      </g>
     </g>
    </g>
    <g id="ytick_19">
     <g id="line2d_74">
      <path d="M 72 151.2 
L 272 151.2 
" clip-path="url(#p1d8cddce5d)" style="fill: none; stroke-dasharray: 0.75,1.2375; stroke-dashoffset: 0; stroke: #808080; stroke-opacity: 0.75; stroke-width: 0.75"/>
     </g>
     <g id="line2d_75">
      <g>
       <use xlink:href="#m6aa36555d3" x="72" y="151.2" style="stroke: #000000; stroke-width: 0.6"/>
      </g>
     </g>
    </g>
    <g id="ytick_20">
     <g id="line2d_76">
      <path d="M 72 129.6 
L 272 129.6 
" clip-path="url(#p1d8cddce5d)" style="fill: none; stroke-dasharray: 0.75,1.2375; stroke-dashoffset: 0; stroke: #808080; stroke-opacity: 0.75; stroke-width: 0.75"/>
     </g>
     <g id="line2d_77">
      <g>
       <use xlink:href="#m6aa36555d3" x="72" y="129.6" style="stroke: #000000; stroke-width: 0.6"/>
      </g>
     </g>
    </g>
    <g id="ytick_21">
     <g id="line2d_78">
      <path d="M 72 118.8 
L 272 118.8 
" clip-path="url(#p1d8cddce5d)" style="fill: none; stroke-dasharray: 0.75,1.2375; stroke-dashoffset: 0; stroke: #808080; stroke-opacity: 0.75; stroke-width: 0.75"/>
     </g>
     <g id="line2d_79">
      <g>
       <use xlink:href="#m6aa36555d3" x="72" y="118.8" style="stroke: #000000; stroke-width: 0.6"/>
      </g>
     </g>
    </g>
    <g id="ytick_22">
     <g id="line2d_80">
      <path d="M 72 108 
L 272 108 
" clip-path="url(#p1d8cddce5d)" style="fill: none; stroke-dasharray: 0.75,1.2375; stroke-dashoffset: 0; stroke: #808080; stroke-opacity: 0.75; stroke-width: 0.75"/>
     </g>
     <g id="line2d_81">
      <g>
       <use xlink:href="#m6aa36555d3" x="72" y="108" style="stroke: #000000; stroke-width: 0.6"/>
      </g>
     </g>
    </g>
    <g id="ytick_23">
     <g id="line2d_82">
      <path d="M 72 86.4 
L 272 86.4 
" clip-path="url(#p1d8cddce5d)" style="fill: none; stroke-dasharray: 0.75,1.2375; stroke-dashoffset: 0; stroke: #808080; stroke-opacity: 0.75; stroke-width: 0.75"/>
     </g>
     <g id="line2d_83">
      <g>
       <use xlink:href="#m6aa36555d3" x="72" y="86.4" style="stroke: #000000; stroke-width: 0.6"/>
      </g>
     </g>
    </g>
    <g id="text_13">
     <!-- TPS - throttle position sensor [-] -->
     <g transform="translate(42.185312 319.277031) rotate(-90) scale(0.14 -0.14)">
      <defs>
       <path id="DejaVuSerif-Italic-50" d="M 1594 2375 
L 2419 2375 
Q 2884 2375 3176 2626 
Q 3469 2878 3559 3353 
Q 3653 3831 3458 4081 
Q 3263 4331 2797 4331 
L 1972 4331 
L 1594 2375 
z
M -97 0 
L -34 331 
L 559 331 
L 1338 4331 
L 744 4331 
L 809 4666 
L 3016 4666 
Q 3716 4666 4056 4311 
Q 4397 3956 4278 3353 
Q 4163 2753 3684 2397 
Q 3206 2041 2506 2041 
L 1528 2041 
L 1194 331 
L 1916 331 
L 1853 0 
L -97 0 
z
" transform="scale(0.015625)"/>
       <path id="DejaVuSerif-Italic-53" d="M 184 225 
L 391 1288 
L 750 1284 
Q 663 753 905 498 
Q 1147 244 1744 244 
Q 2300 244 2636 464 
Q 2972 684 3053 1106 
Q 3119 1444 2976 1625 
Q 2834 1806 2300 1978 
L 1722 2163 
Q 1091 2366 877 2669 
Q 663 2972 766 3500 
Q 881 4094 1367 4422 
Q 1853 4750 2616 4750 
Q 2941 4750 3314 4679 
Q 3688 4609 4097 4475 
L 3906 3481 
L 3553 3481 
Q 3594 3975 3361 4195 
Q 3128 4416 2563 4416 
Q 2069 4416 1772 4214 
Q 1475 4013 1400 3628 
Q 1334 3294 1490 3103 
Q 1647 2913 2241 2725 
L 2784 2553 
Q 3381 2363 3593 2067 
Q 3806 1772 3709 1275 
Q 3578 597 3076 253 
Q 2575 -91 1716 -91 
Q 1331 -91 948 -12 
Q 566 66 184 225 
z
" transform="scale(0.015625)"/>
       <path id="DejaVuSerif-Italic-2d" d="M 328 1959 
L 1928 1959 
L 1834 1472 
L 234 1472 
L 328 1959 
z
" transform="scale(0.015625)"/>
       <path id="DejaVuSerif-Italic-74" d="M 856 2988 
L 350 2988 
L 416 3322 
L 922 3322 
L 1122 4353 
L 1700 4353 
L 1500 3322 
L 2581 3322 
L 2516 2988 
L 1434 2988 
L 1025 878 
Q 978 631 978 488 
Q 978 388 1000 338 
Q 1059 219 1278 219 
Q 1503 219 1633 351 
Q 1763 484 1825 781 
L 2259 781 
Q 2147 328 1884 118 
Q 1622 -91 1169 -91 
Q 672 -91 506 131 
Q 406 266 406 516 
Q 406 675 447 878 
L 856 2988 
z
" transform="scale(0.015625)"/>
       <path id="DejaVuSerif-Italic-68" d="M 309 0 
L 1191 4531 
L 641 4531 
L 703 4863 
L 1828 4863 
L 1416 2731 
Q 1641 3069 1928 3241 
Q 2216 3413 2553 3413 
Q 3103 3413 3300 3097 
Q 3422 2906 3422 2588 
Q 3422 2378 3369 2113 
L 3022 331 
L 3534 331 
L 3472 0 
L 2381 0 
L 2756 1931 
Q 2819 2253 2819 2469 
Q 2819 2659 2769 2763 
Q 2666 2988 2284 2988 
Q 1884 2988 1617 2697 
Q 1350 2406 1244 1850 
L 884 0 
L 309 0 
z
" transform="scale(0.015625)"/>
       <path id="DejaVuSerif-Italic-72" d="M 3375 3328 
L 3213 2497 
L 2881 2497 
Q 2891 2559 2891 2613 
Q 2891 2775 2816 2866 
Q 2719 2988 2484 2988 
Q 2059 2988 1775 2694 
Q 1491 2400 1384 1850 
L 1025 0 
L 450 0 
L 1031 2994 
L 481 2994 
L 544 3322 
L 1669 3322 
L 1556 2731 
Q 1791 3078 2089 3245 
Q 2388 3413 2769 3413 
Q 2909 3413 3059 3391 
Q 3209 3369 3375 3328 
z
" transform="scale(0.015625)"/>
       <path id="DejaVuSerif-Italic-6f" d="M 1644 219 
Q 2106 219 2414 584 
Q 2722 950 2859 1663 
Q 2922 1988 2922 2241 
Q 2922 2541 2834 2738 
Q 2669 3103 2206 3103 
Q 1744 3103 1436 2739 
Q 1128 2375 991 1663 
Q 928 1338 928 1088 
Q 928 784 1019 584 
Q 1184 219 1644 219 
z
M 1584 -91 
Q 859 -91 513 388 
Q 272 722 272 1203 
Q 272 1419 319 1663 
Q 472 2456 1005 2934 
Q 1538 3413 2266 3413 
Q 2994 3413 3341 2934 
Q 3578 2603 3578 2122 
Q 3578 1906 3531 1663 
Q 3378 869 2845 389 
Q 2313 -91 1584 -91 
z
" transform="scale(0.015625)"/>
       <path id="DejaVuSerif-Italic-6c" d="M 903 331 
L 1447 331 
L 1384 0 
L 266 0 
L 1147 4531 
L 594 4531 
L 656 4863 
L 1784 4863 
L 903 331 
z
" transform="scale(0.015625)"/>
       <path id="DejaVuSerif-Italic-70" d="M 1466 1825 
L 1400 1497 
Q 1353 1250 1353 1053 
Q 1353 769 1453 581 
Q 1622 269 2059 269 
Q 2500 269 2795 622 
Q 3091 975 3225 1663 
Q 3284 1978 3284 2225 
Q 3284 2513 3200 2703 
Q 3041 3053 2600 3053 
Q 2163 3053 1872 2737 
Q 1581 2422 1466 1825 
z
M 1116 2988 
L 563 2988 
L 628 3322 
L 1756 3322 
L 1656 2803 
Q 1884 3116 2175 3264 
Q 2466 3413 2850 3413 
Q 3463 3413 3753 2928 
Q 3947 2609 3947 2163 
Q 3947 1928 3897 1663 
Q 3744 881 3262 395 
Q 2781 -91 2169 -91 
Q 1784 -91 1551 57 
Q 1319 206 1213 519 
L 850 -1331 
L 275 -1331 
L 1116 2988 
z
" transform="scale(0.015625)"/>
       <path id="DejaVuSerif-Italic-6e" d="M 450 0 
L 1031 2988 
L 481 2988 
L 544 3322 
L 1669 3322 
L 1556 2731 
Q 1781 3069 2068 3241 
Q 2356 3413 2694 3413 
Q 3244 3413 3444 3097 
Q 3563 2906 3563 2588 
Q 3563 2378 3509 2113 
L 3163 331 
L 3675 331 
L 3613 0 
L 2522 0 
L 2897 1931 
Q 2959 2253 2959 2469 
Q 2959 2659 2909 2769 
Q 2803 2994 2425 2994 
Q 2025 2994 1759 2701 
Q 1494 2409 1384 1850 
L 1025 0 
L 450 0 
z
" transform="scale(0.015625)"/>
      </defs>
      <use xlink:href="#DejaVuSerif-Italic-54"/>
      <use xlink:href="#DejaVuSerif-Italic-50" transform="translate(66.699219 0)"/>
      <use xlink:href="#DejaVuSerif-Italic-53" transform="translate(133.984375 0)"/>
      <use xlink:href="#DejaVuSerif-Italic-20" transform="translate(202.490234 0)"/>
      <use xlink:href="#DejaVuSerif-Italic-2d" transform="translate(234.277344 0)"/>
      <use xlink:href="#DejaVuSerif-Italic-20" transform="translate(268.066406 0)"/>
      <use xlink:href="#DejaVuSerif-Italic-74" transform="translate(299.853516 0)"/>
      <use xlink:href="#DejaVuSerif-Italic-68" transform="translate(340.039062 0)"/>
      <use xlink:href="#DejaVuSerif-Italic-72" transform="translate(404.443359 0)"/>
      <use xlink:href="#DejaVuSerif-Italic-6f" transform="translate(452.246094 0)"/>
      <use xlink:href="#DejaVuSerif-Italic-74" transform="translate(512.451172 0)"/>
      <use xlink:href="#DejaVuSerif-Italic-74" transform="translate(552.636719 0)"/>
      <use xlink:href="#DejaVuSerif-Italic-6c" transform="translate(592.822266 0)"/>
      <use xlink:href="#DejaVuSerif-Italic-65" transform="translate(624.804688 0)"/>
      <use xlink:href="#DejaVuSerif-Italic-20" transform="translate(683.984375 0)"/>
      <use xlink:href="#DejaVuSerif-Italic-70" transform="translate(715.771484 0)"/>
      <use xlink:href="#DejaVuSerif-Italic-6f" transform="translate(779.785156 0)"/>
      <use xlink:href="#DejaVuSerif-Italic-73" transform="translate(839.990234 0)"/>
      <use xlink:href="#DejaVuSerif-Italic-69" transform="translate(891.308594 0)"/>
      <use xlink:href="#DejaVuSerif-Italic-74" transform="translate(923.291016 0)"/>
      <use xlink:href="#DejaVuSerif-Italic-69" transform="translate(963.476562 0)"/>
      <use xlink:href="#DejaVuSerif-Italic-6f" transform="translate(995.458984 0)"/>
      <use xlink:href="#DejaVuSerif-Italic-6e" transform="translate(1055.664062 0)"/>
      <use xlink:href="#DejaVuSerif-Italic-20" transform="translate(1120.068359 0)"/>
      <use xlink:href="#DejaVuSerif-Italic-73" transform="translate(1151.855469 0)"/>
      <use xlink:href="#DejaVuSerif-Italic-65" transform="translate(1203.173828 0)"/>
      <use xlink:href="#DejaVuSerif-Italic-6e" transform="translate(1262.353516 0)"/>
      <use xlink:href="#DejaVuSerif-Italic-73" transform="translate(1326.757812 0)"/>
      <use xlink:href="#DejaVuSerif-Italic-6f" transform="translate(1378.076172 0)"/>
      <use xlink:href="#DejaVuSerif-Italic-72" transform="translate(1438.28125 0)"/>
      <use xlink:href="#DejaVuSerif-Italic-20" transform="translate(1486.083984 0)"/>
      <use xlink:href="#DejaVuSerif-Italic-5b" transform="translate(1517.871094 0)"/>
      <use xlink:href="#DejaVuSerif-Italic-2d" transform="translate(1556.884766 0)"/>
      <use xlink:href="#DejaVuSerif-Italic-5d" transform="translate(1590.673828 0)"/>
     </g>
    </g>
   </g>
   <g id="line2d_84">
    <path d="M 81.090909 263.059203 
L 82.311165 225.454822 
L 83.531422 262.349565 
L 84.751678 227.108988 
L 85.971934 262.958047 
L 87.19219 228.220144 
L 88.412447 263.761282 
L 89.632703 229.232416 
L 90.852959 264.583205 
L 92.073215 230.215406 
L 93.293472 265.396385 
L 94.513728 231.180083 
L 95.733984 266.196621 
L 96.95424 232.128268 
L 98.174497 266.983329 
L 99.394753 233.060351 
L 100.615009 267.756488 
L 101.835265 233.976501 
L 103.055522 268.516162 
L 104.275778 234.876846 
L 105.496034 269.262428 
L 106.71629 235.761511 
L 107.936547 269.995363 
L 109.156803 236.630612 
L 110.377059 270.715044 
L 111.597315 237.484265 
L 112.817572 271.421548 
L 114.037828 238.322585 
L 115.258084 272.11495 
L 116.47834 239.145682 
L 117.698597 272.795325 
L 118.918853 239.953664 
L 120.139109 273.462747 
L 121.359365 240.74664 
L 122.579622 274.117288 
L 123.799878 241.524713 
L 125.020134 274.759023 
L 126.24039 242.287987 
L 127.460647 275.388022 
L 128.680903 243.036562 
L 129.901159 276.004359 
L 131.121415 243.770538 
L 132.341672 276.608103 
L 133.561928 244.490014 
L 134.782184 277.199325 
L 136.002441 245.195084 
L 137.222697 277.778096 
L 138.442953 245.885845 
L 139.663209 278.344484 
L 140.883466 246.562388 
L 142.103722 278.89856 
L 143.323978 247.224807 
L 144.544234 279.440392 
L 145.764491 247.87319 
L 146.984747 279.970048 
L 148.205003 248.507628 
L 149.425259 280.487596 
L 150.645516 249.128208 
L 151.865772 280.993104 
L 153.086028 249.735017 
L 154.306284 281.486639 
L 155.526541 250.32814 
L 156.746797 281.968266 
L 157.967053 250.907661 
L 159.187309 282.438054 
L 160.407566 251.473663 
L 161.627822 282.896066 
L 162.848078 252.026228 
L 164.068334 283.342368 
L 165.288591 252.565435 
L 166.508847 283.777026 
L 167.729103 253.091366 
L 168.949359 284.200103 
L 170.169616 253.604097 
L 171.389872 284.611664 
L 172.610128 254.103706 
L 173.830384 285.011772 
L 175.050641 254.590269 
L 176.270897 285.40049 
L 177.491153 255.063862 
L 178.711409 285.77788 
L 179.931666 255.524557 
L 181.151922 286.144004 
L 182.372178 255.972427 
L 183.592434 286.498924 
L 184.812691 256.407545 
L 186.032947 286.8427 
L 187.253203 256.82998 
L 188.473459 287.175394 
L 189.693716 257.239802 
L 190.913972 287.497063 
L 192.134228 257.637079 
L 193.354484 287.807768 
L 194.574741 258.021878 
L 195.794997 288.107567 
L 197.015253 258.394266 
L 198.235509 288.396517 
L 199.455766 258.754306 
L 200.676022 288.674676 
L 201.896278 259.102063 
L 203.116534 288.942101 
L 204.336791 259.437599 
L 205.557047 289.198846 
L 206.777303 259.760975 
L 207.997559 289.444968 
L 209.217816 260.072252 
L 210.438072 289.68052 
L 211.658328 260.371488 
L 212.878585 289.905556 
L 214.098841 260.658741 
L 215.319097 290.120128 
L 216.539353 260.934067 
L 217.75961 290.324289 
L 218.979866 261.197521 
L 220.200122 290.518089 
L 221.420378 261.449157 
L 222.640635 290.701579 
L 223.860891 261.689028 
L 225.081147 290.874807 
L 226.301403 261.917185 
L 227.52166 291.037823 
L 228.741916 262.133676 
L 229.962172 291.190674 
L 231.182428 262.338552 
L 232.402685 291.333406 
L 233.622941 262.531858 
L 234.843197 291.466063 
L 236.063453 262.713641 
L 237.28371 291.588692 
L 238.503966 262.883943 
L 239.724222 291.701335 
L 240.944478 263.042808 
L 242.164735 291.804034 
L 243.384991 263.190276 
L 244.605247 291.89683 
L 245.825503 263.326387 
L 247.04576 291.979762 
L 248.266016 263.451177 
L 249.486272 292.05287 
L 250.706528 263.564684 
L 251.926785 292.116191 
L 253.147041 263.666941 
L 254.367297 292.169759 
L 255.587553 263.75798 
L 256.80781 292.21361 
L 258.028066 263.837829 
L 259.248322 292.247777 
L 260.468578 263.906513 
L 261.688835 292.272298 
L 262.909091 263.969376 
L 262.909091 263.969376 
" clip-path="url(#p1d8cddce5d)" style="fill: none; stroke: #001233; stroke-width: 1.5; stroke-linecap: square"/>
   </g>
   <g id="line2d_85">
    <path d="M 81.090909 97.2 
L 262.909091 97.2 
L 262.909091 97.2 
" clip-path="url(#p1d8cddce5d)" style="fill: none; stroke-dasharray: 5.55,2.4; stroke-dashoffset: 0; stroke: #ef233c; stroke-width: 1.5"/>
   </g>
   <g id="line2d_86">
    <path d="M 81.090909 313.2 
L 262.909091 313.2 
L 262.909091 313.2 
" clip-path="url(#p1d8cddce5d)" style="fill: none; stroke-dasharray: 9.6,2.4,1.5,2.4; stroke-dashoffset: 0; stroke: #ef233c; stroke-width: 1.5"/>
   </g>
   <g id="patch_3">
    <path d="M 72 324 
L 72 86.4 
" style="fill: none; stroke: #000000; stroke-width: 0.8; stroke-linejoin: miter; stroke-linecap: square"/>
   </g>
   <g id="patch_4">
    <path d="M 272 324 
L 272 86.4 
" style="fill: none; stroke: #000000; stroke-width: 0.8; stroke-linejoin: miter; stroke-linecap: square"/>
   </g>
   <g id="patch_5">
    <path d="M 72 324 
L 272 324 
" style="fill: none; stroke: #000000; stroke-width: 0.8; stroke-linejoin: miter; stroke-linecap: square"/>
   </g>
   <g id="patch_6">
    <path d="M 72 86.4 
L 272 86.4 
" style="fill: none; stroke: #000000; stroke-width: 0.8; stroke-linejoin: miter; stroke-linecap: square"/>
   </g>
   <g id="text_14">
    <!-- $\delta_{TPS}$ control -->
    <g transform="translate(72 80.4) scale(0.16 -0.16)">
     <defs>
      <path id="DejaVuSans-Oblique-3b4" d="M 3472 4053 
Q 3197 4272 2450 4272 
Q 1659 4272 1588 3906 
Q 1531 3619 2328 3469 
Q 2953 3353 3253 3003 
Q 3616 2581 3447 1716 
Q 3284 888 2763 400 
Q 2238 -91 1488 -91 
Q 741 -91 406 400 
Q 72 888 241 1747 
Q 363 2384 891 2900 
Q 1097 3100 1353 3213 
Q 913 3459 1000 3900 
Q 1166 4750 2544 4750 
Q 3234 4750 3566 4531 
L 3472 4053 
z
M 1753 3056 
Q 1525 2966 1306 2738 
Q 969 2384 847 1747 
Q 722 1113 919 756 
Q 1119 397 1584 397 
Q 2044 397 2381 759 
Q 2722 1122 2838 1716 
Q 2956 2338 2731 2638 
Q 2491 2959 2103 2994 
Q 1906 3013 1753 3056 
z
" transform="scale(0.015625)"/>
      <path id="DejaVuSans-Oblique-54" d="M 378 4666 
L 4325 4666 
L 4225 4134 
L 2559 4134 
L 1759 0 
L 1125 0 
L 1925 4134 
L 275 4134 
L 378 4666 
z
" transform="scale(0.015625)"/>
      <path id="DejaVuSans-Oblique-50" d="M 1081 4666 
L 2541 4666 
Q 3178 4666 3512 4369 
Q 3847 4072 3847 3500 
Q 3847 2731 3353 2303 
Q 2859 1875 1966 1875 
L 1172 1875 
L 806 0 
L 172 0 
L 1081 4666 
z
M 1613 4147 
L 1275 2394 
L 2069 2394 
Q 2606 2394 2893 2669 
Q 3181 2944 3181 3456 
Q 3181 3784 2986 3965 
Q 2791 4147 2438 4147 
L 1613 4147 
z
" transform="scale(0.015625)"/>
      <path id="DejaVuSans-Oblique-53" d="M 3859 4513 
L 3738 3897 
Q 3422 4066 3111 4152 
Q 2800 4238 2509 4238 
Q 1944 4238 1609 3991 
Q 1275 3744 1275 3334 
Q 1275 3109 1398 2989 
Q 1522 2869 2034 2731 
L 2413 2638 
Q 3053 2472 3303 2217 
Q 3553 1963 3553 1503 
Q 3553 797 2998 353 
Q 2444 -91 1538 -91 
Q 1166 -91 791 -17 
Q 416 56 38 206 
L 166 856 
Q 513 641 861 531 
Q 1209 422 1556 422 
Q 2147 422 2503 684 
Q 2859 947 2859 1369 
Q 2859 1650 2717 1795 
Q 2575 1941 2106 2059 
L 1728 2156 
Q 1081 2325 845 2545 
Q 609 2766 609 3163 
Q 609 3859 1145 4304 
Q 1681 4750 2541 4750 
Q 2875 4750 3203 4690 
Q 3531 4631 3859 4513 
z
" transform="scale(0.015625)"/>
      <path id="DejaVuSerif-Bold-20" transform="scale(0.015625)"/>
      <path id="DejaVuSerif-Bold-63" d="M 3609 1038 
Q 3491 469 3123 189 
Q 2756 -91 2125 -91 
Q 1238 -91 750 368 
Q 263 828 263 1663 
Q 263 2488 744 2950 
Q 1225 3413 2081 3413 
Q 2428 3413 2781 3347 
Q 3134 3281 3500 3150 
L 3500 2228 
L 3150 2228 
Q 3100 2650 2903 2854 
Q 2706 3059 2350 3059 
Q 1888 3059 1692 2746 
Q 1497 2434 1497 1663 
Q 1497 909 1687 586 
Q 1878 263 2309 263 
Q 2644 263 2845 463 
Q 3047 663 3091 1038 
L 3609 1038 
z
" transform="scale(0.015625)"/>
      <path id="DejaVuSerif-Bold-6f" d="M 2138 263 
Q 2488 263 2630 563 
Q 2772 863 2772 1663 
Q 2772 2463 2631 2761 
Q 2491 3059 2138 3059 
Q 1784 3059 1640 2757 
Q 1497 2456 1497 1663 
Q 1497 869 1640 566 
Q 1784 263 2138 263 
z
M 2138 -91 
Q 1259 -91 761 376 
Q 263 844 263 1663 
Q 263 2484 761 2948 
Q 1259 3413 2138 3413 
Q 3019 3413 3516 2948 
Q 4013 2484 4013 1663 
Q 4013 844 3514 376 
Q 3016 -91 2138 -91 
z
" transform="scale(0.015625)"/>
      <path id="DejaVuSerif-Bold-6e" d="M 219 0 
L 219 378 
L 691 378 
L 691 2944 
L 219 2944 
L 219 3322 
L 1797 3322 
L 1797 2853 
Q 1997 3150 2253 3281 
Q 2509 3413 2900 3413 
Q 3459 3413 3745 3083 
Q 4031 2753 4031 2113 
L 4031 378 
L 4506 378 
L 4506 0 
L 2522 0 
L 2522 378 
L 2925 378 
L 2925 2144 
Q 2925 2566 2817 2730 
Q 2709 2894 2444 2894 
Q 2109 2894 1953 2648 
Q 1797 2403 1797 1869 
L 1797 378 
L 2203 378 
L 2203 0 
L 219 0 
z
" transform="scale(0.015625)"/>
      <path id="DejaVuSerif-Bold-74" d="M 634 2944 
L 153 2944 
L 153 3322 
L 634 3322 
L 634 4353 
L 1741 4353 
L 1741 3322 
L 2663 3322 
L 2663 2944 
L 1741 2944 
L 1741 909 
Q 1741 475 1809 369 
Q 1878 263 2059 263 
Q 2259 263 2356 397 
Q 2453 531 2459 813 
L 2925 813 
Q 2897 313 2651 111 
Q 2406 -91 1806 -91 
Q 1122 -91 878 123 
Q 634 338 634 909 
L 634 2944 
z
" transform="scale(0.015625)"/>
      <path id="DejaVuSerif-Bold-72" d="M 3438 3359 
L 3438 2369 
L 3084 2369 
Q 3066 2634 2941 2764 
Q 2816 2894 2578 2894 
Q 2216 2894 2006 2575 
Q 1797 2256 1797 1691 
L 1797 378 
L 2400 378 
L 2400 0 
L 219 0 
L 219 378 
L 691 378 
L 691 2944 
L 184 2944 
L 184 3322 
L 1797 3322 
L 1797 2731 
Q 1959 3078 2226 3245 
Q 2494 3413 2881 3413 
Q 2978 3413 3117 3398 
Q 3256 3384 3438 3359 
z
" transform="scale(0.015625)"/>
      <path id="DejaVuSerif-Bold-6c" d="M 1797 378 
L 2272 378 
L 2272 0 
L 219 0 
L 219 378 
L 691 378 
L 691 4488 
L 219 4488 
L 219 4863 
L 1797 4863 
L 1797 378 
z
" transform="scale(0.015625)"/>
     </defs>
     <use xlink:href="#DejaVuSans-Oblique-3b4" transform="translate(0 0.015625)"/>
     <use xlink:href="#DejaVuSans-Oblique-54" transform="translate(61.181641 -16.390625) scale(0.7)"/>
     <use xlink:href="#DejaVuSans-Oblique-50" transform="translate(103.94043 -16.390625) scale(0.7)"/>
     <use xlink:href="#DejaVuSans-Oblique-53" transform="translate(146.152344 -16.390625) scale(0.7)"/>
     <use xlink:href="#DejaVuSerif-Bold-20" transform="translate(193.320312 0.015625)"/>
     <use xlink:href="#DejaVuSerif-Bold-63" transform="translate(228.134766 0.015625)"/>
     <use xlink:href="#DejaVuSerif-Bold-6f" transform="translate(289.023438 0.015625)"/>
     <use xlink:href="#DejaVuSerif-Bold-6e" transform="translate(355.722656 0.015625)"/>
     <use xlink:href="#DejaVuSerif-Bold-74" transform="translate(428.427734 0.015625)"/>
     <use xlink:href="#DejaVuSerif-Bold-72" transform="translate(474.619141 0.015625)"/>
     <use xlink:href="#DejaVuSerif-Bold-6f" transform="translate(527.304688 0.015625)"/>
     <use xlink:href="#DejaVuSerif-Bold-6c" transform="translate(594.003906 0.015625)"/>
    </g>
   </g>
   <g id="legend_1">
    <g id="patch_7">
     <path d="M 283 138.434375 
L 342.7 138.434375 
Q 344.7 138.434375 344.7 136.434375 
L 344.7 93.4 
Q 344.7 91.4 342.7 91.4 
L 283 91.4 
Q 281 91.4 281 93.4 
L 281 136.434375 
Q 281 138.434375 283 138.434375 
z
" style="fill: #ffffff; opacity: 0.8; stroke: #cccccc; stroke-linejoin: miter"/>
    </g>
    <g id="line2d_87">
     <path d="M 285 99.498437 
L 295 99.498437 
L 305 99.498437 
" style="fill: none; stroke: #001233; stroke-width: 1.5; stroke-linecap: square"/>
    </g>
    <g id="text_15">
     <!-- TPS -->
     <g transform="translate(313 102.998437) scale(0.1 -0.1)">
      <defs>
       <path id="DejaVuSerif-54" d="M 1222 0 
L 1222 331 
L 1819 331 
L 1819 4294 
L 447 4294 
L 447 3566 
L 63 3566 
L 63 4666 
L 4206 4666 
L 4206 3566 
L 3822 3566 
L 3822 4294 
L 2450 4294 
L 2450 331 
L 3047 331 
L 3047 0 
L 1222 0 
z
" transform="scale(0.015625)"/>
       <path id="DejaVuSerif-50" d="M 1581 2375 
L 2406 2375 
Q 2872 2375 3115 2626 
Q 3359 2878 3359 3353 
Q 3359 3831 3115 4081 
Q 2872 4331 2406 4331 
L 1581 4331 
L 1581 2375 
z
M 353 0 
L 353 331 
L 947 331 
L 947 4331 
L 353 4331 
L 353 4666 
L 2559 4666 
Q 3259 4666 3668 4311 
Q 4078 3956 4078 3353 
Q 4078 2753 3668 2397 
Q 3259 2041 2559 2041 
L 1581 2041 
L 1581 331 
L 2303 331 
L 2303 0 
L 353 0 
z
" transform="scale(0.015625)"/>
       <path id="DejaVuSerif-53" d="M 594 225 
L 594 1288 
L 953 1284 
Q 969 753 1261 498 
Q 1553 244 2150 244 
Q 2706 244 2998 464 
Q 3291 684 3291 1106 
Q 3291 1444 3114 1625 
Q 2938 1806 2369 1978 
L 1753 2163 
Q 1084 2366 811 2669 
Q 538 2972 538 3500 
Q 538 4094 959 4422 
Q 1381 4750 2144 4750 
Q 2469 4750 2856 4679 
Q 3244 4609 3681 4475 
L 3681 3481 
L 3328 3481 
Q 3275 3975 2998 4195 
Q 2722 4416 2156 4416 
Q 1663 4416 1405 4214 
Q 1147 4013 1147 3628 
Q 1147 3294 1340 3103 
Q 1534 2913 2163 2725 
L 2741 2553 
Q 3375 2363 3645 2067 
Q 3916 1772 3916 1275 
Q 3916 597 3481 253 
Q 3047 -91 2188 -91 
Q 1803 -91 1404 -12 
Q 1006 66 594 225 
z
" transform="scale(0.015625)"/>
      </defs>
      <use xlink:href="#DejaVuSerif-54"/>
      <use xlink:href="#DejaVuSerif-50" transform="translate(66.699219 0)"/>
      <use xlink:href="#DejaVuSerif-53" transform="translate(133.984375 0)"/>
     </g>
    </g>
    <g id="line2d_88">
     <path d="M 285 114.176562 
L 295 114.176562 
L 305 114.176562 
" style="fill: none; stroke-dasharray: 5.55,2.4; stroke-dashoffset: 0; stroke: #ef233c; stroke-width: 1.5"/>
    </g>
    <g id="text_16">
     <!-- $TPS_{ub}$ -->
     <g transform="translate(313 117.676562) scale(0.1 -0.1)">
      <defs>
       <path id="DejaVuSans-Oblique-75" d="M 428 1388 
L 838 3500 
L 1416 3500 
L 1006 1409 
Q 975 1256 961 1147 
Q 947 1038 947 966 
Q 947 700 1109 554 
Q 1272 409 1569 409 
Q 2031 409 2368 721 
Q 2706 1034 2809 1563 
L 3194 3500 
L 3769 3500 
L 3091 0 
L 2516 0 
L 2631 550 
Q 2388 244 2052 76 
Q 1716 -91 1338 -91 
Q 878 -91 622 161 
Q 366 413 366 863 
Q 366 956 381 1097 
Q 397 1238 428 1388 
z
" transform="scale(0.015625)"/>
       <path id="DejaVuSans-Oblique-62" d="M 3169 2138 
Q 3169 2591 2961 2847 
Q 2753 3103 2388 3103 
Q 2122 3103 1889 2973 
Q 1656 2844 1484 2597 
Q 1303 2338 1198 1995 
Q 1094 1653 1094 1313 
Q 1094 881 1298 636 
Q 1503 391 1863 391 
Q 2134 391 2365 517 
Q 2597 644 2772 891 
Q 2950 1147 3059 1487 
Q 3169 1828 3169 2138 
z
M 1381 2969 
Q 1594 3256 1914 3420 
Q 2234 3584 2584 3584 
Q 3122 3584 3439 3221 
Q 3756 2859 3756 2241 
Q 3756 1734 3570 1259 
Q 3384 784 3041 416 
Q 2816 172 2522 40 
Q 2228 -91 1906 -91 
Q 1566 -91 1316 65 
Q 1066 222 909 531 
L 806 0 
L 231 0 
L 1178 4863 
L 1753 4863 
L 1381 2969 
z
" transform="scale(0.015625)"/>
      </defs>
      <use xlink:href="#DejaVuSans-Oblique-54" transform="translate(0 0.78125)"/>
      <use xlink:href="#DejaVuSans-Oblique-50" transform="translate(61.083984 0.78125)"/>
      <use xlink:href="#DejaVuSans-Oblique-53" transform="translate(121.386719 0.78125)"/>
      <use xlink:href="#DejaVuSans-Oblique-75" transform="translate(184.863281 -15.625) scale(0.7)"/>
      <use xlink:href="#DejaVuSans-Oblique-62" transform="translate(229.228516 -15.625) scale(0.7)"/>
     </g>
    </g>
    <g id="line2d_89">
     <path d="M 285 128.854687 
L 295 128.854687 
L 305 128.854687 
" style="fill: none; stroke-dasharray: 9.6,2.4,1.5,2.4; stroke-dashoffset: 0; stroke: #ef233c; stroke-width: 1.5"/>
    </g>
    <g id="text_17">
     <!-- $TPS_{lb}$ -->
     <g transform="translate(313 132.354687) scale(0.1 -0.1)">
      <defs>
       <path id="DejaVuSans-Oblique-6c" d="M 1172 4863 
L 1747 4863 
L 800 0 
L 225 0 
L 1172 4863 
z
" transform="scale(0.015625)"/>
      </defs>
      <use xlink:href="#DejaVuSans-Oblique-54" transform="translate(0 0.78125)"/>
      <use xlink:href="#DejaVuSans-Oblique-50" transform="translate(61.083984 0.78125)"/>
      <use xlink:href="#DejaVuSans-Oblique-53" transform="translate(121.386719 0.78125)"/>
      <use xlink:href="#DejaVuSans-Oblique-6c" transform="translate(184.863281 -15.625) scale(0.7)"/>
      <use xlink:href="#DejaVuSans-Oblique-62" transform="translate(204.311523 -15.625) scale(0.7)"/>
     </g>
    </g>
   </g>
  </g>
  <g id="axes_2">
   <g id="patch_8">
    <path d="M 412 324 
L 612 324 
L 612 86.4 
L 412 86.4 
z
" style="fill: #ffffff"/>
   </g>
   <g id="matplotlib.axis_3">
    <g id="xtick_25">
     <g id="line2d_90">
      <g>
       <use xlink:href="#md1672a2384" x="421.090909" y="324" style="stroke: #000000; stroke-width: 0.8"/>
      </g>
     </g>
     <g id="text_18">
      <!-- 0 -->
      <g transform="translate(417.909659 338.598437) scale(0.1 -0.1)">
       <use xlink:href="#DejaVuSans-30"/>
      </g>
     </g>
    </g>
    <g id="xtick_26">
     <g id="line2d_91">
      <g>
       <use xlink:href="#md1672a2384" x="464.446884" y="324" style="stroke: #000000; stroke-width: 0.8"/>
      </g>
     </g>
     <g id="text_19">
      <!-- 100 -->
      <g transform="translate(454.903134 338.598437) scale(0.1 -0.1)">
       <use xlink:href="#DejaVuSans-31"/>
       <use xlink:href="#DejaVuSans-30" transform="translate(63.623047 0)"/>
       <use xlink:href="#DejaVuSans-30" transform="translate(127.246094 0)"/>
      </g>
     </g>
    </g>
    <g id="xtick_27">
     <g id="line2d_92">
      <g>
       <use xlink:href="#md1672a2384" x="507.802858" y="324" style="stroke: #000000; stroke-width: 0.8"/>
      </g>
     </g>
     <g id="text_20">
      <!-- 200 -->
      <g transform="translate(498.259108 338.598437) scale(0.1 -0.1)">
       <use xlink:href="#DejaVuSans-32"/>
       <use xlink:href="#DejaVuSans-30" transform="translate(63.623047 0)"/>
       <use xlink:href="#DejaVuSans-30" transform="translate(127.246094 0)"/>
      </g>
     </g>
    </g>
    <g id="xtick_28">
     <g id="line2d_93">
      <g>
       <use xlink:href="#md1672a2384" x="551.158833" y="324" style="stroke: #000000; stroke-width: 0.8"/>
      </g>
     </g>
     <g id="text_21">
      <!-- 300 -->
      <g transform="translate(541.615083 338.598437) scale(0.1 -0.1)">
       <use xlink:href="#DejaVuSans-33"/>
       <use xlink:href="#DejaVuSans-30" transform="translate(63.623047 0)"/>
       <use xlink:href="#DejaVuSans-30" transform="translate(127.246094 0)"/>
      </g>
     </g>
    </g>
    <g id="xtick_29">
     <g id="line2d_94">
      <g>
       <use xlink:href="#md1672a2384" x="594.514808" y="324" style="stroke: #000000; stroke-width: 0.8"/>
      </g>
     </g>
     <g id="text_22">
      <!-- 400 -->
      <g transform="translate(584.971058 338.598437) scale(0.1 -0.1)">
       <use xlink:href="#DejaVuSans-34"/>
       <use xlink:href="#DejaVuSans-30" transform="translate(63.623047 0)"/>
       <use xlink:href="#DejaVuSans-30" transform="translate(127.246094 0)"/>
      </g>
     </g>
    </g>
    <g id="xtick_30">
     <g id="line2d_95">
      <path d="M 412.419714 324 
L 412.419714 86.4 
" clip-path="url(#pfd70fad7bb)" style="fill: none; stroke-dasharray: 0.75,1.2375; stroke-dashoffset: 0; stroke: #808080; stroke-opacity: 0.75; stroke-width: 0.75"/>
     </g>
     <g id="line2d_96">
      <g>
       <use xlink:href="#md275f2df24" x="412.419714" y="324" style="stroke: #000000; stroke-width: 0.6"/>
      </g>
     </g>
    </g>
    <g id="xtick_31">
     <g id="line2d_97">
      <path d="M 429.762104 324 
L 429.762104 86.4 
" clip-path="url(#pfd70fad7bb)" style="fill: none; stroke-dasharray: 0.75,1.2375; stroke-dashoffset: 0; stroke: #808080; stroke-opacity: 0.75; stroke-width: 0.75"/>
     </g>
     <g id="line2d_98">
      <g>
       <use xlink:href="#md275f2df24" x="429.762104" y="324" style="stroke: #000000; stroke-width: 0.6"/>
      </g>
     </g>
    </g>
    <g id="xtick_32">
     <g id="line2d_99">
      <path d="M 438.433299 324 
L 438.433299 86.4 
" clip-path="url(#pfd70fad7bb)" style="fill: none; stroke-dasharray: 0.75,1.2375; stroke-dashoffset: 0; stroke: #808080; stroke-opacity: 0.75; stroke-width: 0.75"/>
     </g>
     <g id="line2d_100">
      <g>
       <use xlink:href="#md275f2df24" x="438.433299" y="324" style="stroke: #000000; stroke-width: 0.6"/>
      </g>
     </g>
    </g>
    <g id="xtick_33">
     <g id="line2d_101">
      <path d="M 447.104494 324 
L 447.104494 86.4 
" clip-path="url(#pfd70fad7bb)" style="fill: none; stroke-dasharray: 0.75,1.2375; stroke-dashoffset: 0; stroke: #808080; stroke-opacity: 0.75; stroke-width: 0.75"/>
     </g>
     <g id="line2d_102">
      <g>
       <use xlink:href="#md275f2df24" x="447.104494" y="324" style="stroke: #000000; stroke-width: 0.6"/>
      </g>
     </g>
    </g>
    <g id="xtick_34">
     <g id="line2d_103">
      <path d="M 455.775689 324 
L 455.775689 86.4 
" clip-path="url(#pfd70fad7bb)" style="fill: none; stroke-dasharray: 0.75,1.2375; stroke-dashoffset: 0; stroke: #808080; stroke-opacity: 0.75; stroke-width: 0.75"/>
     </g>
     <g id="line2d_104">
      <g>
       <use xlink:href="#md275f2df24" x="455.775689" y="324" style="stroke: #000000; stroke-width: 0.6"/>
      </g>
     </g>
    </g>
    <g id="xtick_35">
     <g id="line2d_105">
      <path d="M 473.118079 324 
L 473.118079 86.4 
" clip-path="url(#pfd70fad7bb)" style="fill: none; stroke-dasharray: 0.75,1.2375; stroke-dashoffset: 0; stroke: #808080; stroke-opacity: 0.75; stroke-width: 0.75"/>
     </g>
     <g id="line2d_106">
      <g>
       <use xlink:href="#md275f2df24" x="473.118079" y="324" style="stroke: #000000; stroke-width: 0.6"/>
      </g>
     </g>
    </g>
    <g id="xtick_36">
     <g id="line2d_107">
      <path d="M 481.789274 324 
L 481.789274 86.4 
" clip-path="url(#pfd70fad7bb)" style="fill: none; stroke-dasharray: 0.75,1.2375; stroke-dashoffset: 0; stroke: #808080; stroke-opacity: 0.75; stroke-width: 0.75"/>
     </g>
     <g id="line2d_108">
      <g>
       <use xlink:href="#md275f2df24" x="481.789274" y="324" style="stroke: #000000; stroke-width: 0.6"/>
      </g>
     </g>
    </g>
    <g id="xtick_37">
     <g id="line2d_109">
      <path d="M 490.460469 324 
L 490.460469 86.4 
" clip-path="url(#pfd70fad7bb)" style="fill: none; stroke-dasharray: 0.75,1.2375; stroke-dashoffset: 0; stroke: #808080; stroke-opacity: 0.75; stroke-width: 0.75"/>
     </g>
     <g id="line2d_110">
      <g>
       <use xlink:href="#md275f2df24" x="490.460469" y="324" style="stroke: #000000; stroke-width: 0.6"/>
      </g>
     </g>
    </g>
    <g id="xtick_38">
     <g id="line2d_111">
      <path d="M 499.131663 324 
L 499.131663 86.4 
" clip-path="url(#pfd70fad7bb)" style="fill: none; stroke-dasharray: 0.75,1.2375; stroke-dashoffset: 0; stroke: #808080; stroke-opacity: 0.75; stroke-width: 0.75"/>
     </g>
     <g id="line2d_112">
      <g>
       <use xlink:href="#md275f2df24" x="499.131663" y="324" style="stroke: #000000; stroke-width: 0.6"/>
      </g>
     </g>
    </g>
    <g id="xtick_39">
     <g id="line2d_113">
      <path d="M 516.474053 324 
L 516.474053 86.4 
" clip-path="url(#pfd70fad7bb)" style="fill: none; stroke-dasharray: 0.75,1.2375; stroke-dashoffset: 0; stroke: #808080; stroke-opacity: 0.75; stroke-width: 0.75"/>
     </g>
     <g id="line2d_114">
      <g>
       <use xlink:href="#md275f2df24" x="516.474053" y="324" style="stroke: #000000; stroke-width: 0.6"/>
      </g>
     </g>
    </g>
    <g id="xtick_40">
     <g id="line2d_115">
      <path d="M 525.145248 324 
L 525.145248 86.4 
" clip-path="url(#pfd70fad7bb)" style="fill: none; stroke-dasharray: 0.75,1.2375; stroke-dashoffset: 0; stroke: #808080; stroke-opacity: 0.75; stroke-width: 0.75"/>
     </g>
     <g id="line2d_116">
      <g>
       <use xlink:href="#md275f2df24" x="525.145248" y="324" style="stroke: #000000; stroke-width: 0.6"/>
      </g>
     </g>
    </g>
    <g id="xtick_41">
     <g id="line2d_117">
      <path d="M 533.816443 324 
L 533.816443 86.4 
" clip-path="url(#pfd70fad7bb)" style="fill: none; stroke-dasharray: 0.75,1.2375; stroke-dashoffset: 0; stroke: #808080; stroke-opacity: 0.75; stroke-width: 0.75"/>
     </g>
     <g id="line2d_118">
      <g>
       <use xlink:href="#md275f2df24" x="533.816443" y="324" style="stroke: #000000; stroke-width: 0.6"/>
      </g>
     </g>
    </g>
    <g id="xtick_42">
     <g id="line2d_119">
      <path d="M 542.487638 324 
L 542.487638 86.4 
" clip-path="url(#pfd70fad7bb)" style="fill: none; stroke-dasharray: 0.75,1.2375; stroke-dashoffset: 0; stroke: #808080; stroke-opacity: 0.75; stroke-width: 0.75"/>
     </g>
     <g id="line2d_120">
      <g>
       <use xlink:href="#md275f2df24" x="542.487638" y="324" style="stroke: #000000; stroke-width: 0.6"/>
      </g>
     </g>
    </g>
    <g id="xtick_43">
     <g id="line2d_121">
      <path d="M 559.830028 324 
L 559.830028 86.4 
" clip-path="url(#pfd70fad7bb)" style="fill: none; stroke-dasharray: 0.75,1.2375; stroke-dashoffset: 0; stroke: #808080; stroke-opacity: 0.75; stroke-width: 0.75"/>
     </g>
     <g id="line2d_122">
      <g>
       <use xlink:href="#md275f2df24" x="559.830028" y="324" style="stroke: #000000; stroke-width: 0.6"/>
      </g>
     </g>
    </g>
    <g id="xtick_44">
     <g id="line2d_123">
      <path d="M 568.501223 324 
L 568.501223 86.4 
" clip-path="url(#pfd70fad7bb)" style="fill: none; stroke-dasharray: 0.75,1.2375; stroke-dashoffset: 0; stroke: #808080; stroke-opacity: 0.75; stroke-width: 0.75"/>
     </g>
     <g id="line2d_124">
      <g>
       <use xlink:href="#md275f2df24" x="568.501223" y="324" style="stroke: #000000; stroke-width: 0.6"/>
      </g>
     </g>
    </g>
    <g id="xtick_45">
     <g id="line2d_125">
      <path d="M 577.172418 324 
L 577.172418 86.4 
" clip-path="url(#pfd70fad7bb)" style="fill: none; stroke-dasharray: 0.75,1.2375; stroke-dashoffset: 0; stroke: #808080; stroke-opacity: 0.75; stroke-width: 0.75"/>
     </g>
     <g id="line2d_126">
      <g>
       <use xlink:href="#md275f2df24" x="577.172418" y="324" style="stroke: #000000; stroke-width: 0.6"/>
      </g>
     </g>
    </g>
    <g id="xtick_46">
     <g id="line2d_127">
      <path d="M 585.843613 324 
L 585.843613 86.4 
" clip-path="url(#pfd70fad7bb)" style="fill: none; stroke-dasharray: 0.75,1.2375; stroke-dashoffset: 0; stroke: #808080; stroke-opacity: 0.75; stroke-width: 0.75"/>
     </g>
     <g id="line2d_128">
      <g>
       <use xlink:href="#md275f2df24" x="585.843613" y="324" style="stroke: #000000; stroke-width: 0.6"/>
      </g>
     </g>
    </g>
    <g id="xtick_47">
     <g id="line2d_129">
      <path d="M 603.186003 324 
L 603.186003 86.4 
" clip-path="url(#pfd70fad7bb)" style="fill: none; stroke-dasharray: 0.75,1.2375; stroke-dashoffset: 0; stroke: #808080; stroke-opacity: 0.75; stroke-width: 0.75"/>
     </g>
     <g id="line2d_130">
      <g>
       <use xlink:href="#md275f2df24" x="603.186003" y="324" style="stroke: #000000; stroke-width: 0.6"/>
      </g>
     </g>
    </g>
    <g id="xtick_48">
     <g id="line2d_131">
      <path d="M 611.857197 324 
L 611.857197 86.4 
" clip-path="url(#pfd70fad7bb)" style="fill: none; stroke-dasharray: 0.75,1.2375; stroke-dashoffset: 0; stroke: #808080; stroke-opacity: 0.75; stroke-width: 0.75"/>
     </g>
     <g id="line2d_132">
      <g>
       <use xlink:href="#md275f2df24" x="611.857197" y="324" style="stroke: #000000; stroke-width: 0.6"/>
      </g>
     </g>
    </g>
    <g id="text_23">
     <!-- Time [s] -->
     <g transform="translate(483.032031 355.315938) scale(0.14 -0.14)">
      <use xlink:href="#DejaVuSerif-Italic-54"/>
      <use xlink:href="#DejaVuSerif-Italic-69" transform="translate(66.699219 0)"/>
      <use xlink:href="#DejaVuSerif-Italic-6d" transform="translate(98.681641 0)"/>
      <use xlink:href="#DejaVuSerif-Italic-65" transform="translate(193.505859 0)"/>
      <use xlink:href="#DejaVuSerif-Italic-20" transform="translate(252.685547 0)"/>
      <use xlink:href="#DejaVuSerif-Italic-5b" transform="translate(284.472656 0)"/>
      <use xlink:href="#DejaVuSerif-Italic-73" transform="translate(323.486328 0)"/>
      <use xlink:href="#DejaVuSerif-Italic-5d" transform="translate(374.804688 0)"/>
     </g>
    </g>
   </g>
   <g id="matplotlib.axis_4">
    <g id="ytick_24">
     <g id="line2d_133">
      <g>
       <use xlink:href="#maf81d5c7b1" x="412" y="308.057143" style="stroke: #000000; stroke-width: 0.8"/>
      </g>
     </g>
     <g id="text_24">
      <!-- 0.2 -->
      <g transform="translate(380.717187 311.856362) scale(0.1 -0.1)">
       <defs>
        <path id="DejaVuSans-2212" d="M 678 2272 
L 4684 2272 
L 4684 1741 
L 678 1741 
L 678 2272 
z
" transform="scale(0.015625)"/>
       </defs>
       <use xlink:href="#DejaVuSans-2212"/>
       <use xlink:href="#DejaVuSans-30" transform="translate(83.789062 0)"/>
       <use xlink:href="#DejaVuSans-2e" transform="translate(147.412109 0)"/>
       <use xlink:href="#DejaVuSans-32" transform="translate(179.199219 0)"/>
      </g>
     </g>
    </g>
    <g id="ytick_25">
     <g id="line2d_134">
      <g>
       <use xlink:href="#maf81d5c7b1" x="412" y="256.628571" style="stroke: #000000; stroke-width: 0.8"/>
      </g>
     </g>
     <g id="text_25">
      <!-- 0.1 -->
      <g transform="translate(380.717187 260.42779) scale(0.1 -0.1)">
       <use xlink:href="#DejaVuSans-2212"/>
       <use xlink:href="#DejaVuSans-30" transform="translate(83.789062 0)"/>
       <use xlink:href="#DejaVuSans-2e" transform="translate(147.412109 0)"/>
       <use xlink:href="#DejaVuSans-31" transform="translate(179.199219 0)"/>
      </g>
     </g>
    </g>
    <g id="ytick_26">
     <g id="line2d_135">
      <g>
       <use xlink:href="#maf81d5c7b1" x="412" y="205.2" style="stroke: #000000; stroke-width: 0.8"/>
      </g>
     </g>
     <g id="text_26">
      <!-- 0.0 -->
      <g transform="translate(389.096875 208.999219) scale(0.1 -0.1)">
       <use xlink:href="#DejaVuSans-30"/>
       <use xlink:href="#DejaVuSans-2e" transform="translate(63.623047 0)"/>
       <use xlink:href="#DejaVuSans-30" transform="translate(95.410156 0)"/>
      </g>
     </g>
    </g>
    <g id="ytick_27">
     <g id="line2d_136">
      <g>
       <use xlink:href="#maf81d5c7b1" x="412" y="153.771429" style="stroke: #000000; stroke-width: 0.8"/>
      </g>
     </g>
     <g id="text_27">
      <!-- 0.1 -->
      <g transform="translate(389.096875 157.570647) scale(0.1 -0.1)">
       <use xlink:href="#DejaVuSans-30"/>
       <use xlink:href="#DejaVuSans-2e" transform="translate(63.623047 0)"/>
       <use xlink:href="#DejaVuSans-31" transform="translate(95.410156 0)"/>
      </g>
     </g>
    </g>
    <g id="ytick_28">
     <g id="line2d_137">
      <g>
       <use xlink:href="#maf81d5c7b1" x="412" y="102.342857" style="stroke: #000000; stroke-width: 0.8"/>
      </g>
     </g>
     <g id="text_28">
      <!-- 0.2 -->
      <g transform="translate(389.096875 106.142076) scale(0.1 -0.1)">
       <use xlink:href="#DejaVuSans-30"/>
       <use xlink:href="#DejaVuSans-2e" transform="translate(63.623047 0)"/>
       <use xlink:href="#DejaVuSans-32" transform="translate(95.410156 0)"/>
      </g>
     </g>
    </g>
    <g id="ytick_29">
     <g id="line2d_138">
      <path d="M 412 318.342857 
L 612 318.342857 
" clip-path="url(#pfd70fad7bb)" style="fill: none; stroke-dasharray: 0.75,1.2375; stroke-dashoffset: 0; stroke: #808080; stroke-opacity: 0.75; stroke-width: 0.75"/>
     </g>
     <g id="line2d_139">
      <g>
       <use xlink:href="#m6aa36555d3" x="412" y="318.342857" style="stroke: #000000; stroke-width: 0.6"/>
      </g>
     </g>
    </g>
    <g id="ytick_30">
     <g id="line2d_140">
      <path d="M 412 297.771429 
L 612 297.771429 
" clip-path="url(#pfd70fad7bb)" style="fill: none; stroke-dasharray: 0.75,1.2375; stroke-dashoffset: 0; stroke: #808080; stroke-opacity: 0.75; stroke-width: 0.75"/>
     </g>
     <g id="line2d_141">
      <g>
       <use xlink:href="#m6aa36555d3" x="412" y="297.771429" style="stroke: #000000; stroke-width: 0.6"/>
      </g>
     </g>
    </g>
    <g id="ytick_31">
     <g id="line2d_142">
      <path d="M 412 287.485714 
L 612 287.485714 
" clip-path="url(#pfd70fad7bb)" style="fill: none; stroke-dasharray: 0.75,1.2375; stroke-dashoffset: 0; stroke: #808080; stroke-opacity: 0.75; stroke-width: 0.75"/>
     </g>
     <g id="line2d_143">
      <g>
       <use xlink:href="#m6aa36555d3" x="412" y="287.485714" style="stroke: #000000; stroke-width: 0.6"/>
      </g>
     </g>
    </g>
    <g id="ytick_32">
     <g id="line2d_144">
      <path d="M 412 277.2 
L 612 277.2 
" clip-path="url(#pfd70fad7bb)" style="fill: none; stroke-dasharray: 0.75,1.2375; stroke-dashoffset: 0; stroke: #808080; stroke-opacity: 0.75; stroke-width: 0.75"/>
     </g>
     <g id="line2d_145">
      <g>
       <use xlink:href="#m6aa36555d3" x="412" y="277.2" style="stroke: #000000; stroke-width: 0.6"/>
      </g>
     </g>
    </g>
    <g id="ytick_33">
     <g id="line2d_146">
      <path d="M 412 266.914286 
L 612 266.914286 
" clip-path="url(#pfd70fad7bb)" style="fill: none; stroke-dasharray: 0.75,1.2375; stroke-dashoffset: 0; stroke: #808080; stroke-opacity: 0.75; stroke-width: 0.75"/>
     </g>
     <g id="line2d_147">
      <g>
       <use xlink:href="#m6aa36555d3" x="412" y="266.914286" style="stroke: #000000; stroke-width: 0.6"/>
      </g>
     </g>
    </g>
    <g id="ytick_34">
     <g id="line2d_148">
      <path d="M 412 246.342857 
L 612 246.342857 
" clip-path="url(#pfd70fad7bb)" style="fill: none; stroke-dasharray: 0.75,1.2375; stroke-dashoffset: 0; stroke: #808080; stroke-opacity: 0.75; stroke-width: 0.75"/>
     </g>
     <g id="line2d_149">
      <g>
       <use xlink:href="#m6aa36555d3" x="412" y="246.342857" style="stroke: #000000; stroke-width: 0.6"/>
      </g>
     </g>
    </g>
    <g id="ytick_35">
     <g id="line2d_150">
      <path d="M 412 236.057143 
L 612 236.057143 
" clip-path="url(#pfd70fad7bb)" style="fill: none; stroke-dasharray: 0.75,1.2375; stroke-dashoffset: 0; stroke: #808080; stroke-opacity: 0.75; stroke-width: 0.75"/>
     </g>
     <g id="line2d_151">
      <g>
       <use xlink:href="#m6aa36555d3" x="412" y="236.057143" style="stroke: #000000; stroke-width: 0.6"/>
      </g>
     </g>
    </g>
    <g id="ytick_36">
     <g id="line2d_152">
      <path d="M 412 225.771429 
L 612 225.771429 
" clip-path="url(#pfd70fad7bb)" style="fill: none; stroke-dasharray: 0.75,1.2375; stroke-dashoffset: 0; stroke: #808080; stroke-opacity: 0.75; stroke-width: 0.75"/>
     </g>
     <g id="line2d_153">
      <g>
       <use xlink:href="#m6aa36555d3" x="412" y="225.771429" style="stroke: #000000; stroke-width: 0.6"/>
      </g>
     </g>
    </g>
    <g id="ytick_37">
     <g id="line2d_154">
      <path d="M 412 215.485714 
L 612 215.485714 
" clip-path="url(#pfd70fad7bb)" style="fill: none; stroke-dasharray: 0.75,1.2375; stroke-dashoffset: 0; stroke: #808080; stroke-opacity: 0.75; stroke-width: 0.75"/>
     </g>
     <g id="line2d_155">
      <g>
       <use xlink:href="#m6aa36555d3" x="412" y="215.485714" style="stroke: #000000; stroke-width: 0.6"/>
      </g>
     </g>
    </g>
    <g id="ytick_38">
     <g id="line2d_156">
      <path d="M 412 194.914286 
L 612 194.914286 
" clip-path="url(#pfd70fad7bb)" style="fill: none; stroke-dasharray: 0.75,1.2375; stroke-dashoffset: 0; stroke: #808080; stroke-opacity: 0.75; stroke-width: 0.75"/>
     </g>
     <g id="line2d_157">
      <g>
       <use xlink:href="#m6aa36555d3" x="412" y="194.914286" style="stroke: #000000; stroke-width: 0.6"/>
      </g>
     </g>
    </g>
    <g id="ytick_39">
     <g id="line2d_158">
      <path d="M 412 184.628571 
L 612 184.628571 
" clip-path="url(#pfd70fad7bb)" style="fill: none; stroke-dasharray: 0.75,1.2375; stroke-dashoffset: 0; stroke: #808080; stroke-opacity: 0.75; stroke-width: 0.75"/>
     </g>
     <g id="line2d_159">
      <g>
       <use xlink:href="#m6aa36555d3" x="412" y="184.628571" style="stroke: #000000; stroke-width: 0.6"/>
      </g>
     </g>
    </g>
    <g id="ytick_40">
     <g id="line2d_160">
      <path d="M 412 174.342857 
L 612 174.342857 
" clip-path="url(#pfd70fad7bb)" style="fill: none; stroke-dasharray: 0.75,1.2375; stroke-dashoffset: 0; stroke: #808080; stroke-opacity: 0.75; stroke-width: 0.75"/>
     </g>
     <g id="line2d_161">
      <g>
       <use xlink:href="#m6aa36555d3" x="412" y="174.342857" style="stroke: #000000; stroke-width: 0.6"/>
      </g>
     </g>
    </g>
    <g id="ytick_41">
     <g id="line2d_162">
      <path d="M 412 164.057143 
L 612 164.057143 
" clip-path="url(#pfd70fad7bb)" style="fill: none; stroke-dasharray: 0.75,1.2375; stroke-dashoffset: 0; stroke: #808080; stroke-opacity: 0.75; stroke-width: 0.75"/>
     </g>
     <g id="line2d_163">
      <g>
       <use xlink:href="#m6aa36555d3" x="412" y="164.057143" style="stroke: #000000; stroke-width: 0.6"/>
      </g>
     </g>
    </g>
    <g id="ytick_42">
     <g id="line2d_164">
      <path d="M 412 143.485714 
L 612 143.485714 
" clip-path="url(#pfd70fad7bb)" style="fill: none; stroke-dasharray: 0.75,1.2375; stroke-dashoffset: 0; stroke: #808080; stroke-opacity: 0.75; stroke-width: 0.75"/>
     </g>
     <g id="line2d_165">
      <g>
       <use xlink:href="#m6aa36555d3" x="412" y="143.485714" style="stroke: #000000; stroke-width: 0.6"/>
      </g>
     </g>
    </g>
    <g id="ytick_43">
     <g id="line2d_166">
      <path d="M 412 133.2 
L 612 133.2 
" clip-path="url(#pfd70fad7bb)" style="fill: none; stroke-dasharray: 0.75,1.2375; stroke-dashoffset: 0; stroke: #808080; stroke-opacity: 0.75; stroke-width: 0.75"/>
     </g>
     <g id="line2d_167">
      <g>
       <use xlink:href="#m6aa36555d3" x="412" y="133.2" style="stroke: #000000; stroke-width: 0.6"/>
      </g>
     </g>
    </g>
    <g id="ytick_44">
     <g id="line2d_168">
      <path d="M 412 122.914286 
L 612 122.914286 
" clip-path="url(#pfd70fad7bb)" style="fill: none; stroke-dasharray: 0.75,1.2375; stroke-dashoffset: 0; stroke: #808080; stroke-opacity: 0.75; stroke-width: 0.75"/>
     </g>
     <g id="line2d_169">
      <g>
       <use xlink:href="#m6aa36555d3" x="412" y="122.914286" style="stroke: #000000; stroke-width: 0.6"/>
      </g>
     </g>
    </g>
    <g id="ytick_45">
     <g id="line2d_170">
      <path d="M 412 112.628571 
L 612 112.628571 
" clip-path="url(#pfd70fad7bb)" style="fill: none; stroke-dasharray: 0.75,1.2375; stroke-dashoffset: 0; stroke: #808080; stroke-opacity: 0.75; stroke-width: 0.75"/>
     </g>
     <g id="line2d_171">
      <g>
       <use xlink:href="#m6aa36555d3" x="412" y="112.628571" style="stroke: #000000; stroke-width: 0.6"/>
      </g>
     </g>
    </g>
    <g id="ytick_46">
     <g id="line2d_172">
      <path d="M 412 92.057143 
L 612 92.057143 
" clip-path="url(#pfd70fad7bb)" style="fill: none; stroke-dasharray: 0.75,1.2375; stroke-dashoffset: 0; stroke: #808080; stroke-opacity: 0.75; stroke-width: 0.75"/>
     </g>
     <g id="line2d_173">
      <g>
       <use xlink:href="#m6aa36555d3" x="412" y="92.057143" style="stroke: #000000; stroke-width: 0.6"/>
      </g>
     </g>
    </g>
    <g id="text_29">
     <!-- $\delta_e$ - elevator deflection [rad] -->
     <g transform="translate(373.777187 305.79) rotate(-90) scale(0.14 -0.14)">
      <defs>
       <path id="DejaVuSans-Oblique-65" d="M 3078 2063 
Q 3088 2113 3092 2166 
Q 3097 2219 3097 2272 
Q 3097 2653 2873 2875 
Q 2650 3097 2266 3097 
Q 1838 3097 1509 2826 
Q 1181 2556 1013 2059 
L 3078 2063 
z
M 3578 1613 
L 903 1613 
Q 884 1494 878 1425 
Q 872 1356 872 1306 
Q 872 872 1139 634 
Q 1406 397 1894 397 
Q 2269 397 2603 481 
Q 2938 566 3225 728 
L 3116 159 
Q 2806 34 2476 -28 
Q 2147 -91 1806 -91 
Q 1078 -91 686 257 
Q 294 606 294 1247 
Q 294 1794 489 2264 
Q 684 2734 1063 3103 
Q 1306 3334 1642 3459 
Q 1978 3584 2356 3584 
Q 2950 3584 3301 3228 
Q 3653 2872 3653 2272 
Q 3653 2128 3634 1964 
Q 3616 1800 3578 1613 
z
" transform="scale(0.015625)"/>
       <path id="DejaVuSerif-Italic-76" d="M 1681 0 
L 1259 0 
L 619 2988 
L 241 2988 
L 303 3322 
L 1163 3322 
L 1725 703 
Q 2084 1016 2325 1413 
Q 2825 2238 3003 2988 
L 2622 2988 
L 2688 3322 
L 3547 3322 
Q 3206 2034 2775 1313 
Q 2400 688 1681 0 
z
" transform="scale(0.015625)"/>
       <path id="DejaVuSerif-Italic-61" d="M 2325 519 
Q 1909 -91 1238 -91 
Q 688 -91 409 281 
Q 216 544 216 919 
Q 216 1078 250 1256 
Q 463 2359 1231 2928 
Q 1884 3413 2675 3413 
Q 3206 3413 3388 3322 
L 2806 331 
L 3300 331 
L 3238 0 
L 2225 0 
L 2325 519 
z
M 822 938 
Q 822 269 1469 269 
Q 1863 269 2130 583 
Q 2397 897 2516 1497 
L 2806 3003 
L 2806 3003 
Q 2806 3094 2556 3094 
Q 1956 3094 1491 2625 
Q 1028 2153 863 1297 
Q 822 1097 822 938 
z
" transform="scale(0.015625)"/>
       <path id="DejaVuSerif-Italic-64" d="M 3841 4863 
L 2897 0 
L 2322 0 
L 2422 519 
Q 2191 206 1902 57 
Q 1613 -91 1228 -91 
Q 616 -91 322 394 
Q 125 716 125 1166 
Q 125 1397 178 1663 
Q 331 2444 812 2928 
Q 1294 3413 1909 3413 
Q 2294 3413 2525 3264 
Q 2756 3116 2866 2803 
L 3200 4531 
L 2656 4531 
L 2722 4863 
L 3841 4863 
z
M 2613 1497 
L 2675 1825 
Q 2722 2069 2722 2266 
Q 2722 2550 2622 2738 
Q 2456 3053 2019 3053 
Q 1575 3053 1279 2703 
Q 984 2353 850 1663 
Q 788 1347 788 1103 
Q 788 813 875 622 
Q 1031 269 1475 269 
Q 1913 269 2203 583 
Q 2494 897 2613 1497 
z
" transform="scale(0.015625)"/>
       <path id="DejaVuSerif-Italic-66" d="M 3191 4078 
L 2888 4078 
Q 2900 4144 2900 4203 
Q 2900 4347 2825 4434 
Q 2719 4556 2472 4556 
Q 2150 4556 1984 4379 
Q 1819 4203 1731 3750 
L 1647 3322 
L 2575 3322 
L 2509 2988 
L 1581 2988 
L 963 -206 
Q 853 -763 509 -1047 
Q 166 -1331 -394 -1331 
L -356 -1025 
Q -28 -1025 131 -850 
Q 297 -663 388 -206 
L 1006 2988 
L 456 2988 
L 522 3322 
L 1072 3322 
L 1153 3738 
Q 1263 4297 1606 4578 
Q 1950 4863 2509 4863 
Q 2719 4863 2920 4825 
Q 3122 4788 3316 4709 
L 3191 4078 
z
" transform="scale(0.015625)"/>
       <path id="DejaVuSerif-Italic-63" d="M 3163 997 
Q 2938 466 2536 187 
Q 2134 -91 1584 -91 
Q 859 -91 513 388 
Q 272 722 272 1203 
Q 272 1419 319 1663 
Q 475 2459 1008 2936 
Q 1541 3413 2266 3413 
Q 2581 3413 2879 3339 
Q 3178 3266 3463 3116 
L 3300 2266 
L 2966 2266 
Q 2966 2309 2966 2347 
Q 2966 2722 2803 2903 
Q 2622 3103 2213 3103 
Q 1747 3103 1439 2742 
Q 1131 2381 991 1663 
Q 928 1334 928 1078 
Q 928 778 1016 581 
Q 1181 219 1650 219 
Q 2022 219 2281 412 
Q 2541 606 2700 997 
L 3163 997 
z
" transform="scale(0.015625)"/>
      </defs>
      <use xlink:href="#DejaVuSans-Oblique-3b4" transform="translate(0 0.015625)"/>
      <use xlink:href="#DejaVuSans-Oblique-65" transform="translate(61.181641 -16.390625) scale(0.7)"/>
      <use xlink:href="#DejaVuSerif-Italic-20" transform="translate(106.982422 0.015625)"/>
      <use xlink:href="#DejaVuSerif-Italic-2d" transform="translate(138.769531 0.015625)"/>
      <use xlink:href="#DejaVuSerif-Italic-20" transform="translate(172.558594 0.015625)"/>
      <use xlink:href="#DejaVuSerif-Italic-65" transform="translate(204.345703 0.015625)"/>
      <use xlink:href="#DejaVuSerif-Italic-6c" transform="translate(263.525391 0.015625)"/>
      <use xlink:href="#DejaVuSerif-Italic-65" transform="translate(295.507812 0.015625)"/>
      <use xlink:href="#DejaVuSerif-Italic-76" transform="translate(354.6875 0.015625)"/>
      <use xlink:href="#DejaVuSerif-Italic-61" transform="translate(411.181641 0.015625)"/>
      <use xlink:href="#DejaVuSerif-Italic-74" transform="translate(470.800781 0.015625)"/>
      <use xlink:href="#DejaVuSerif-Italic-6f" transform="translate(510.986328 0.015625)"/>
      <use xlink:href="#DejaVuSerif-Italic-72" transform="translate(571.191406 0.015625)"/>
      <use xlink:href="#DejaVuSerif-Italic-20" transform="translate(618.994141 0.015625)"/>
      <use xlink:href="#DejaVuSerif-Italic-64" transform="translate(650.78125 0.015625)"/>
      <use xlink:href="#DejaVuSerif-Italic-65" transform="translate(714.794922 0.015625)"/>
      <use xlink:href="#DejaVuSerif-Italic-66" transform="translate(773.974609 0.015625)"/>
      <use xlink:href="#DejaVuSerif-Italic-6c" transform="translate(810.986328 0.015625)"/>
      <use xlink:href="#DejaVuSerif-Italic-65" transform="translate(842.96875 0.015625)"/>
      <use xlink:href="#DejaVuSerif-Italic-63" transform="translate(902.148438 0.015625)"/>
      <use xlink:href="#DejaVuSerif-Italic-74" transform="translate(958.154297 0.015625)"/>
      <use xlink:href="#DejaVuSerif-Italic-69" transform="translate(998.339844 0.015625)"/>
      <use xlink:href="#DejaVuSerif-Italic-6f" transform="translate(1030.322266 0.015625)"/>
      <use xlink:href="#DejaVuSerif-Italic-6e" transform="translate(1090.527344 0.015625)"/>
      <use xlink:href="#DejaVuSerif-Italic-20" transform="translate(1154.931641 0.015625)"/>
      <use xlink:href="#DejaVuSerif-Italic-5b" transform="translate(1186.71875 0.015625)"/>
      <use xlink:href="#DejaVuSerif-Italic-72" transform="translate(1225.732422 0.015625)"/>
      <use xlink:href="#DejaVuSerif-Italic-61" transform="translate(1273.535156 0.015625)"/>
      <use xlink:href="#DejaVuSerif-Italic-64" transform="translate(1333.154297 0.015625)"/>
      <use xlink:href="#DejaVuSerif-Italic-5d" transform="translate(1397.167969 0.015625)"/>
     </g>
    </g>
   </g>
   <g id="line2d_174">
    <path d="M 421.090909 197.986483 
L 422.311165 194.427642 
L 423.531422 197.829003 
L 424.751678 194.031873 
L 425.971934 197.553555 
L 427.19219 193.689049 
L 428.412447 197.263153 
L 429.632703 193.358633 
L 430.852959 196.974057 
L 432.073215 193.03427 
L 433.293472 196.68881 
L 434.513728 192.71496 
L 435.733984 196.407803 
L 436.95424 192.400542 
L 438.174497 196.131094 
L 439.394753 192.090985 
L 440.615009 195.858685 
L 441.835265 191.786277 
L 443.055522 195.590572 
L 444.275778 191.486411 
L 445.496034 195.32675 
L 446.71629 191.19138 
L 447.936547 195.067211 
L 449.156803 190.901174 
L 450.377059 194.811951 
L 451.597315 190.615788 
L 452.817572 194.560962 
L 454.037828 190.335212 
L 455.258084 194.314238 
L 456.47834 190.059439 
L 457.698597 194.071772 
L 458.918853 189.788461 
L 460.139109 193.833557 
L 461.359365 189.522269 
L 462.579622 193.599586 
L 463.799878 189.260856 
L 465.020134 193.369853 
L 466.24039 189.004212 
L 467.460647 193.144349 
L 468.680903 188.75233 
L 469.901159 192.923069 
L 471.121415 188.505201 
L 472.341672 192.706004 
L 473.561928 188.262817 
L 474.782184 192.493148 
L 476.002441 188.02517 
L 477.222697 192.284494 
L 478.442953 187.79225 
L 479.663209 192.080034 
L 480.883466 187.56405 
L 482.103722 191.879761 
L 483.323978 187.340562 
L 484.544234 191.683667 
L 485.764491 187.121776 
L 486.984747 191.491746 
L 488.205003 186.907685 
L 489.425259 191.30399 
L 490.645516 186.698279 
L 491.865772 191.120392 
L 493.086028 186.493552 
L 494.306284 190.940945 
L 495.526541 186.293495 
L 496.746797 190.765642 
L 497.967053 186.098099 
L 499.187309 190.594475 
L 500.407566 185.907357 
L 501.627822 190.427438 
L 502.848078 185.72126 
L 504.068334 190.264523 
L 505.288591 185.539801 
L 506.508847 190.105724 
L 507.729103 185.362971 
L 508.949359 189.951033 
L 510.169616 185.190763 
L 511.389872 189.800445 
L 512.610128 185.02317 
L 513.830384 189.653951 
L 515.050641 184.860183 
L 516.270897 189.511546 
L 517.491153 184.701795 
L 518.711409 189.373223 
L 519.931666 184.548 
L 521.151922 189.238976 
L 522.372178 184.398789 
L 523.592434 189.108798 
L 524.812691 184.254155 
L 526.032947 188.982683 
L 527.253203 184.114092 
L 528.473459 188.860625 
L 529.693716 183.978593 
L 530.913972 188.742617 
L 532.134228 183.847651 
L 533.354484 188.628655 
L 534.574741 183.72126 
L 535.794997 188.518732 
L 537.015253 183.599412 
L 538.235509 188.412842 
L 539.455766 183.482103 
L 540.676022 188.31098 
L 541.896278 183.369325 
L 543.116534 188.213141 
L 544.336791 183.261073 
L 545.557047 188.11932 
L 546.777303 183.157341 
L 547.997559 188.02951 
L 549.217816 183.058124 
L 550.438072 187.943709 
L 551.658328 182.963415 
L 552.878585 187.861909 
L 554.098841 182.87321 
L 555.319097 187.784108 
L 556.539353 182.787503 
L 557.75961 187.7103 
L 558.979866 182.70629 
L 560.200122 187.640481 
L 561.420378 182.629566 
L 562.640635 187.574647 
L 563.860891 182.557326 
L 565.081147 187.512794 
L 566.301403 182.489566 
L 567.52166 187.454918 
L 568.741916 182.426282 
L 569.962172 187.401015 
L 571.182428 182.367469 
L 572.402685 187.351082 
L 573.622941 182.313124 
L 574.843197 187.305116 
L 576.063453 182.263244 
L 577.28371 187.263113 
L 578.503966 182.217824 
L 579.724222 187.225071 
L 580.944478 182.176862 
L 582.164735 187.190987 
L 583.384991 182.140355 
L 584.605247 187.160857 
L 585.825503 182.1083 
L 587.04576 187.134681 
L 588.266016 182.080695 
L 589.486272 187.112455 
L 590.706528 182.057537 
L 591.926785 187.094178 
L 593.147041 182.038824 
L 594.367297 187.079849 
L 595.587553 182.024555 
L 596.80781 187.069465 
L 598.028066 182.014728 
L 599.248322 187.063026 
L 600.468578 182.009344 
L 601.688835 187.06053 
L 602.909091 182.007656 
L 602.909091 182.007656 
" clip-path="url(#pfd70fad7bb)" style="fill: none; stroke: #001233; stroke-width: 1.5; stroke-linecap: square"/>
   </g>
   <g id="line2d_175">
    <path d="M 421.090909 97.2 
L 602.909091 97.2 
L 602.909091 97.2 
" clip-path="url(#pfd70fad7bb)" style="fill: none; stroke-dasharray: 5.55,2.4; stroke-dashoffset: 0; stroke: #ef233c; stroke-width: 1.5"/>
   </g>
   <g id="line2d_176">
    <path d="M 421.090909 313.2 
L 602.909091 313.2 
L 602.909091 313.2 
" clip-path="url(#pfd70fad7bb)" style="fill: none; stroke-dasharray: 9.6,2.4,1.5,2.4; stroke-dashoffset: 0; stroke: #ef233c; stroke-width: 1.5"/>
   </g>
   <g id="patch_9">
    <path d="M 412 324 
L 412 86.4 
" style="fill: none; stroke: #000000; stroke-width: 0.8; stroke-linejoin: miter; stroke-linecap: square"/>
   </g>
   <g id="patch_10">
    <path d="M 612 324 
L 612 86.4 
" style="fill: none; stroke: #000000; stroke-width: 0.8; stroke-linejoin: miter; stroke-linecap: square"/>
   </g>
   <g id="patch_11">
    <path d="M 412 324 
L 612 324 
" style="fill: none; stroke: #000000; stroke-width: 0.8; stroke-linejoin: miter; stroke-linecap: square"/>
   </g>
   <g id="patch_12">
    <path d="M 412 86.4 
L 612 86.4 
" style="fill: none; stroke: #000000; stroke-width: 0.8; stroke-linejoin: miter; stroke-linecap: square"/>
   </g>
   <g id="text_30">
    <!-- $\delta_e$ control -->
    <g transform="translate(412 80.4) scale(0.16 -0.16)">
     <use xlink:href="#DejaVuSans-Oblique-3b4" transform="translate(0 0.015625)"/>
     <use xlink:href="#DejaVuSans-Oblique-65" transform="translate(61.181641 -16.390625) scale(0.7)"/>
     <use xlink:href="#DejaVuSerif-Bold-20" transform="translate(106.982422 0.015625)"/>
     <use xlink:href="#DejaVuSerif-Bold-63" transform="translate(141.796875 0.015625)"/>
     <use xlink:href="#DejaVuSerif-Bold-6f" transform="translate(202.685547 0.015625)"/>
     <use xlink:href="#DejaVuSerif-Bold-6e" transform="translate(269.384766 0.015625)"/>
     <use xlink:href="#DejaVuSerif-Bold-74" transform="translate(342.089844 0.015625)"/>
     <use xlink:href="#DejaVuSerif-Bold-72" transform="translate(388.28125 0.015625)"/>
     <use xlink:href="#DejaVuSerif-Bold-6f" transform="translate(440.966797 0.015625)"/>
     <use xlink:href="#DejaVuSerif-Bold-6c" transform="translate(507.666016 0.015625)"/>
    </g>
   </g>
   <g id="legend_2">
    <g id="patch_13">
     <path d="M 623 139.275 
L 678.2 139.275 
Q 680.2 139.275 680.2 137.275 
L 680.2 93.4 
Q 680.2 91.4 678.2 91.4 
L 623 91.4 
Q 621 91.4 621 93.4 
L 621 137.275 
Q 621 139.275 623 139.275 
z
" style="fill: #ffffff; opacity: 0.8; stroke: #cccccc; stroke-linejoin: miter"/>
    </g>
    <g id="line2d_177">
     <path d="M 625 99.498437 
L 635 99.498437 
L 645 99.498437 
" style="fill: none; stroke: #001233; stroke-width: 1.5; stroke-linecap: square"/>
    </g>
    <g id="text_31">
     <!-- $\delta_e$ -->
     <g transform="translate(653 102.998437) scale(0.1 -0.1)">
      <use xlink:href="#DejaVuSans-Oblique-3b4" transform="translate(0 0.78125)"/>
      <use xlink:href="#DejaVuSans-Oblique-65" transform="translate(61.181641 -15.625) scale(0.7)"/>
     </g>
    </g>
    <g id="line2d_178">
     <path d="M 625 114.176562 
L 635 114.176562 
L 645 114.176562 
" style="fill: none; stroke-dasharray: 5.55,2.4; stroke-dashoffset: 0; stroke: #ef233c; stroke-width: 1.5"/>
    </g>
    <g id="text_32">
     <!-- $\delta_{e,ub}$ -->
     <g transform="translate(653 117.676562) scale(0.1 -0.1)">
      <defs>
       <path id="DejaVuSans-2c" d="M 750 794 
L 1409 794 
L 1409 256 
L 897 -744 
L 494 -744 
L 750 256 
L 750 794 
z
" transform="scale(0.015625)"/>
      </defs>
      <use xlink:href="#DejaVuSans-Oblique-3b4" transform="translate(0 0.78125)"/>
      <use xlink:href="#DejaVuSans-Oblique-65" transform="translate(61.181641 -15.625) scale(0.7)"/>
      <use xlink:href="#DejaVuSans-2c" transform="translate(104.248047 -15.625) scale(0.7)"/>
      <use xlink:href="#DejaVuSans-Oblique-75" transform="translate(140.136719 -15.625) scale(0.7)"/>
      <use xlink:href="#DejaVuSans-Oblique-62" transform="translate(184.501953 -15.625) scale(0.7)"/>
     </g>
    </g>
    <g id="line2d_179">
     <path d="M 625 129.275 
L 635 129.275 
L 645 129.275 
" style="fill: none; stroke-dasharray: 9.6,2.4,1.5,2.4; stroke-dashoffset: 0; stroke: #ef233c; stroke-width: 1.5"/>
    </g>
    <g id="text_33">
     <!-- $\delta_{e,lb}$ -->
     <g transform="translate(653 132.775) scale(0.1 -0.1)">
      <use xlink:href="#DejaVuSans-Oblique-3b4" transform="translate(0 0.78125)"/>
      <use xlink:href="#DejaVuSans-Oblique-65" transform="translate(61.181641 -15.625) scale(0.7)"/>
      <use xlink:href="#DejaVuSans-2c" transform="translate(104.248047 -15.625) scale(0.7)"/>
      <use xlink:href="#DejaVuSans-Oblique-6c" transform="translate(140.136719 -15.625) scale(0.7)"/>
      <use xlink:href="#DejaVuSans-Oblique-62" transform="translate(159.584961 -15.625) scale(0.7)"/>
     </g>
    </g>
   </g>
  </g>
 </g>
 <defs>
  <clipPath id="p1d8cddce5d">
   <rect x="72" y="86.4" width="200" height="237.6"/>
  </clipPath>
  <clipPath id="pfd70fad7bb">
   <rect x="412" y="86.4" width="200" height="237.6"/>
  </clipPath>
 </defs>
</svg>
