<?xml version="1.0" encoding="utf-8" standalone="no"?>
<!DOCTYPE svg PUBLIC "-//W3C//DTD SVG 1.1//EN"
  "http://www.w3.org/Graphics/SVG/1.1/DTD/svg11.dtd">
<svg xmlns:xlink="http://www.w3.org/1999/xlink" width="720pt" height="432pt" viewBox="0 0 720 432" xmlns="http://www.w3.org/2000/svg" version="1.1">
 <metadata>
  <rdf:RDF xmlns:dc="http://purl.org/dc/elements/1.1/" xmlns:cc="http://creativecommons.org/ns#" xmlns:rdf="http://www.w3.org/1999/02/22-rdf-syntax-ns#">
   <cc:Work>
    <dc:type rdf:resource="http://purl.org/dc/dcmitype/StillImage"/>
    <dc:date>2026-01-02T18:02:14.958758</dc:date>
    <dc:format>image/svg+xml</dc:format>
    <dc:creator>
     <cc:Agent>
      <dc:title>Matplotlib v3.10.7, https://matplotlib.org/</dc:title>
     </cc:Agent>
    </dc:creator>
   </cc:Work>
  </rdf:RDF>
 </metadata>
 <defs>
  <style type="text/css">*{stroke-linejoin: round; stroke-linecap: butt}</style>
 </defs>
 <g id="figure_1">
  <g id="patch_1">
   <path d="M 0 432 
L 720 432 
L 720 0 
L 0 0 
z
" style="fill: #ffffff"/>
  </g>
  <g id="axes_1">
   <g id="patch_2">
    <path d="M 72 388.8 
L 648 388.8 
L 648 43.2 
L 72 43.2 
z
" style="fill: #ffffff"/>
   </g>
   <g id="matplotlib.axis_1">
    <g id="xtick_1">
     <g id="line2d_1">
      <defs>
       <path id="mfe1d42161c" d="M 0 0 
L 0 3.5 
" style="stroke: #000000; stroke-width: 0.8"/>
      </defs>
      <g>
       <use xlink:href="#mfe1d42161c" x="98.181818" y="388.8" style="stroke: #000000; stroke-width: 0.8"/>
      </g>
     </g>
     <g id="text_1">
      <!-- 0 -->
      <g transform="translate(95.000568 403.398438) scale(0.1 -0.1)">
       <defs>
        <path id="DejaVuSans-30" d="M 2034 4250 
Q 1547 4250 1301 3770 
Q 1056 3291 1056 2328 
Q 1056 1369 1301 889 
Q 1547 409 2034 409 
Q 2525 409 2770 889 
Q 3016 1369 3016 2328 
Q 3016 3291 2770 3770 
Q 2525 4250 2034 4250 
z
M 2034 4750 
Q 2819 4750 3233 4129 
Q 3647 3509 3647 2328 
Q 3647 1150 3233 529 
Q 2819 -91 2034 -91 
Q 1250 -91 836 529 
Q 422 1150 422 2328 
Q 422 3509 836 4129 
Q 1250 4750 2034 4750 
z
" transform="scale(0.015625)"/>
       </defs>
       <use xlink:href="#DejaVuSans-30"/>
      </g>
     </g>
    </g>
    <g id="xtick_2">
     <g id="line2d_2">
      <g>
       <use xlink:href="#mfe1d42161c" x="213.014354" y="388.8" style="stroke: #000000; stroke-width: 0.8"/>
      </g>
     </g>
     <g id="text_2">
      <!-- 50 -->
      <g transform="translate(206.651854 403.398438) scale(0.1 -0.1)">
       <defs>
        <path id="DejaVuSans-35" d="M 691 4666 
L 3169 4666 
L 3169 4134 
L 1269 4134 
L 1269 2991 
Q 1406 3038 1543 3061 
Q 1681 3084 1819 3084 
Q 2600 3084 3056 2656 
Q 3513 2228 3513 1497 
Q 3513 744 3044 326 
Q 2575 -91 1722 -91 
Q 1428 -91 1123 -41 
Q 819 9 494 109 
L 494 744 
Q 775 591 1075 516 
Q 1375 441 1709 441 
Q 2250 441 2565 725 
Q 2881 1009 2881 1497 
Q 2881 1984 2565 2268 
Q 2250 2553 1709 2553 
Q 1456 2553 1204 2497 
Q 953 2441 691 2322 
L 691 4666 
z
" transform="scale(0.015625)"/>
       </defs>
       <use xlink:href="#DejaVuSans-35"/>
       <use xlink:href="#DejaVuSans-30" transform="translate(63.623047 0)"/>
      </g>
     </g>
    </g>
    <g id="xtick_3">
     <g id="line2d_3">
      <g>
       <use xlink:href="#mfe1d42161c" x="327.84689" y="388.8" style="stroke: #000000; stroke-width: 0.8"/>
      </g>
     </g>
     <g id="text_3">
      <!-- 100 -->
      <g transform="translate(318.30314 403.398438) scale(0.1 -0.1)">
       <defs>
        <path id="DejaVuSans-31" d="M 794 531 
L 1825 531 
L 1825 4091 
L 703 3866 
L 703 4441 
L 1819 4666 
L 2450 4666 
L 2450 531 
L 3481 531 
L 3481 0 
L 794 0 
L 794 531 
z
" transform="scale(0.015625)"/>
       </defs>
       <use xlink:href="#DejaVuSans-31"/>
       <use xlink:href="#DejaVuSans-30" transform="translate(63.623047 0)"/>
       <use xlink:href="#DejaVuSans-30" transform="translate(127.246094 0)"/>
      </g>
     </g>
    </g>
    <g id="xtick_4">
     <g id="line2d_4">
      <g>
       <use xlink:href="#mfe1d42161c" x="442.679426" y="388.8" style="stroke: #000000; stroke-width: 0.8"/>
      </g>
     </g>
     <g id="text_4">
      <!-- 150 -->
      <g transform="translate(433.135676 403.398438) scale(0.1 -0.1)">
       <use xlink:href="#DejaVuSans-31"/>
       <use xlink:href="#DejaVuSans-35" transform="translate(63.623047 0)"/>
       <use xlink:href="#DejaVuSans-30" transform="translate(127.246094 0)"/>
      </g>
     </g>
    </g>
    <g id="xtick_5">
     <g id="line2d_5">
      <g>
       <use xlink:href="#mfe1d42161c" x="557.511962" y="388.8" style="stroke: #000000; stroke-width: 0.8"/>
      </g>
     </g>
     <g id="text_5">
      <!-- 200 -->
      <g transform="translate(547.968212 403.398438) scale(0.1 -0.1)">
       <defs>
        <path id="DejaVuSans-32" d="M 1228 531 
L 3431 531 
L 3431 0 
L 469 0 
L 469 531 
Q 828 903 1448 1529 
Q 2069 2156 2228 2338 
Q 2531 2678 2651 2914 
Q 2772 3150 2772 3378 
Q 2772 3750 2511 3984 
Q 2250 4219 1831 4219 
Q 1534 4219 1204 4116 
Q 875 4013 500 3803 
L 500 4441 
Q 881 4594 1212 4672 
Q 1544 4750 1819 4750 
Q 2544 4750 2975 4387 
Q 3406 4025 3406 3419 
Q 3406 3131 3298 2873 
Q 3191 2616 2906 2266 
Q 2828 2175 2409 1742 
Q 1991 1309 1228 531 
z
" transform="scale(0.015625)"/>
       </defs>
       <use xlink:href="#DejaVuSans-32"/>
       <use xlink:href="#DejaVuSans-30" transform="translate(63.623047 0)"/>
       <use xlink:href="#DejaVuSans-30" transform="translate(127.246094 0)"/>
      </g>
     </g>
    </g>
    <g id="xtick_6">
     <g id="line2d_6">
      <path d="M 75.215311 388.8 
L 75.215311 43.2 
" clip-path="url(#p0e6e6cb813)" style="fill: none; stroke-dasharray: 0.75,1.2375; stroke-dashoffset: 0; stroke: #808080; stroke-opacity: 0.75; stroke-width: 0.75"/>
     </g>
     <g id="line2d_7">
      <defs>
       <path id="md1b6cc1b50" d="M 0 0 
L 0 2 
" style="stroke: #000000; stroke-width: 0.6"/>
      </defs>
      <g>
       <use xlink:href="#md1b6cc1b50" x="75.215311" y="388.8" style="stroke: #000000; stroke-width: 0.6"/>
      </g>
     </g>
    </g>
    <g id="xtick_7">
     <g id="line2d_8">
      <path d="M 121.148325 388.8 
L 121.148325 43.2 
" clip-path="url(#p0e6e6cb813)" style="fill: none; stroke-dasharray: 0.75,1.2375; stroke-dashoffset: 0; stroke: #808080; stroke-opacity: 0.75; stroke-width: 0.75"/>
     </g>
     <g id="line2d_9">
      <g>
       <use xlink:href="#md1b6cc1b50" x="121.148325" y="388.8" style="stroke: #000000; stroke-width: 0.6"/>
      </g>
     </g>
    </g>
    <g id="xtick_8">
     <g id="line2d_10">
      <path d="M 144.114833 388.8 
L 144.114833 43.2 
" clip-path="url(#p0e6e6cb813)" style="fill: none; stroke-dasharray: 0.75,1.2375; stroke-dashoffset: 0; stroke: #808080; stroke-opacity: 0.75; stroke-width: 0.75"/>
     </g>
     <g id="line2d_11">
      <g>
       <use xlink:href="#md1b6cc1b50" x="144.114833" y="388.8" style="stroke: #000000; stroke-width: 0.6"/>
      </g>
     </g>
    </g>
    <g id="xtick_9">
     <g id="line2d_12">
      <path d="M 167.08134 388.8 
L 167.08134 43.2 
" clip-path="url(#p0e6e6cb813)" style="fill: none; stroke-dasharray: 0.75,1.2375; stroke-dashoffset: 0; stroke: #808080; stroke-opacity: 0.75; stroke-width: 0.75"/>
     </g>
     <g id="line2d_13">
      <g>
       <use xlink:href="#md1b6cc1b50" x="167.08134" y="388.8" style="stroke: #000000; stroke-width: 0.6"/>
      </g>
     </g>
    </g>
    <g id="xtick_10">
     <g id="line2d_14">
      <path d="M 190.047847 388.8 
L 190.047847 43.2 
" clip-path="url(#p0e6e6cb813)" style="fill: none; stroke-dasharray: 0.75,1.2375; stroke-dashoffset: 0; stroke: #808080; stroke-opacity: 0.75; stroke-width: 0.75"/>
     </g>
     <g id="line2d_15">
      <g>
       <use xlink:href="#md1b6cc1b50" x="190.047847" y="388.8" style="stroke: #000000; stroke-width: 0.6"/>
      </g>
     </g>
    </g>
    <g id="xtick_11">
     <g id="line2d_16">
      <path d="M 235.980861 388.8 
L 235.980861 43.2 
" clip-path="url(#p0e6e6cb813)" style="fill: none; stroke-dasharray: 0.75,1.2375; stroke-dashoffset: 0; stroke: #808080; stroke-opacity: 0.75; stroke-width: 0.75"/>
     </g>
     <g id="line2d_17">
      <g>
       <use xlink:href="#md1b6cc1b50" x="235.980861" y="388.8" style="stroke: #000000; stroke-width: 0.6"/>
      </g>
     </g>
    </g>
    <g id="xtick_12">
     <g id="line2d_18">
      <path d="M 258.947368 388.8 
L 258.947368 43.2 
" clip-path="url(#p0e6e6cb813)" style="fill: none; stroke-dasharray: 0.75,1.2375; stroke-dashoffset: 0; stroke: #808080; stroke-opacity: 0.75; stroke-width: 0.75"/>
     </g>
     <g id="line2d_19">
      <g>
       <use xlink:href="#md1b6cc1b50" x="258.947368" y="388.8" style="stroke: #000000; stroke-width: 0.6"/>
      </g>
     </g>
    </g>
    <g id="xtick_13">
     <g id="line2d_20">
      <path d="M 281.913876 388.8 
L 281.913876 43.2 
" clip-path="url(#p0e6e6cb813)" style="fill: none; stroke-dasharray: 0.75,1.2375; stroke-dashoffset: 0; stroke: #808080; stroke-opacity: 0.75; stroke-width: 0.75"/>
     </g>
     <g id="line2d_21">
      <g>
       <use xlink:href="#md1b6cc1b50" x="281.913876" y="388.8" style="stroke: #000000; stroke-width: 0.6"/>
      </g>
     </g>
    </g>
    <g id="xtick_14">
     <g id="line2d_22">
      <path d="M 304.880383 388.8 
L 304.880383 43.2 
" clip-path="url(#p0e6e6cb813)" style="fill: none; stroke-dasharray: 0.75,1.2375; stroke-dashoffset: 0; stroke: #808080; stroke-opacity: 0.75; stroke-width: 0.75"/>
     </g>
     <g id="line2d_23">
      <g>
       <use xlink:href="#md1b6cc1b50" x="304.880383" y="388.8" style="stroke: #000000; stroke-width: 0.6"/>
      </g>
     </g>
    </g>
    <g id="xtick_15">
     <g id="line2d_24">
      <path d="M 350.813397 388.8 
L 350.813397 43.2 
" clip-path="url(#p0e6e6cb813)" style="fill: none; stroke-dasharray: 0.75,1.2375; stroke-dashoffset: 0; stroke: #808080; stroke-opacity: 0.75; stroke-width: 0.75"/>
     </g>
     <g id="line2d_25">
      <g>
       <use xlink:href="#md1b6cc1b50" x="350.813397" y="388.8" style="stroke: #000000; stroke-width: 0.6"/>
      </g>
     </g>
    </g>
    <g id="xtick_16">
     <g id="line2d_26">
      <path d="M 373.779904 388.8 
L 373.779904 43.2 
" clip-path="url(#p0e6e6cb813)" style="fill: none; stroke-dasharray: 0.75,1.2375; stroke-dashoffset: 0; stroke: #808080; stroke-opacity: 0.75; stroke-width: 0.75"/>
     </g>
     <g id="line2d_27">
      <g>
       <use xlink:href="#md1b6cc1b50" x="373.779904" y="388.8" style="stroke: #000000; stroke-width: 0.6"/>
      </g>
     </g>
    </g>
    <g id="xtick_17">
     <g id="line2d_28">
      <path d="M 396.746411 388.8 
L 396.746411 43.2 
" clip-path="url(#p0e6e6cb813)" style="fill: none; stroke-dasharray: 0.75,1.2375; stroke-dashoffset: 0; stroke: #808080; stroke-opacity: 0.75; stroke-width: 0.75"/>
     </g>
     <g id="line2d_29">
      <g>
       <use xlink:href="#md1b6cc1b50" x="396.746411" y="388.8" style="stroke: #000000; stroke-width: 0.6"/>
      </g>
     </g>
    </g>
    <g id="xtick_18">
     <g id="line2d_30">
      <path d="M 419.712919 388.8 
L 419.712919 43.2 
" clip-path="url(#p0e6e6cb813)" style="fill: none; stroke-dasharray: 0.75,1.2375; stroke-dashoffset: 0; stroke: #808080; stroke-opacity: 0.75; stroke-width: 0.75"/>
     </g>
     <g id="line2d_31">
      <g>
       <use xlink:href="#md1b6cc1b50" x="419.712919" y="388.8" style="stroke: #000000; stroke-width: 0.6"/>
      </g>
     </g>
    </g>
    <g id="xtick_19">
     <g id="line2d_32">
      <path d="M 465.645933 388.8 
L 465.645933 43.2 
" clip-path="url(#p0e6e6cb813)" style="fill: none; stroke-dasharray: 0.75,1.2375; stroke-dashoffset: 0; stroke: #808080; stroke-opacity: 0.75; stroke-width: 0.75"/>
     </g>
     <g id="line2d_33">
      <g>
       <use xlink:href="#md1b6cc1b50" x="465.645933" y="388.8" style="stroke: #000000; stroke-width: 0.6"/>
      </g>
     </g>
    </g>
    <g id="xtick_20">
     <g id="line2d_34">
      <path d="M 488.61244 388.8 
L 488.61244 43.2 
" clip-path="url(#p0e6e6cb813)" style="fill: none; stroke-dasharray: 0.75,1.2375; stroke-dashoffset: 0; stroke: #808080; stroke-opacity: 0.75; stroke-width: 0.75"/>
     </g>
     <g id="line2d_35">
      <g>
       <use xlink:href="#md1b6cc1b50" x="488.61244" y="388.8" style="stroke: #000000; stroke-width: 0.6"/>
      </g>
     </g>
    </g>
    <g id="xtick_21">
     <g id="line2d_36">
      <path d="M 511.578947 388.8 
L 511.578947 43.2 
" clip-path="url(#p0e6e6cb813)" style="fill: none; stroke-dasharray: 0.75,1.2375; stroke-dashoffset: 0; stroke: #808080; stroke-opacity: 0.75; stroke-width: 0.75"/>
     </g>
     <g id="line2d_37">
      <g>
       <use xlink:href="#md1b6cc1b50" x="511.578947" y="388.8" style="stroke: #000000; stroke-width: 0.6"/>
      </g>
     </g>
    </g>
    <g id="xtick_22">
     <g id="line2d_38">
      <path d="M 534.545455 388.8 
L 534.545455 43.2 
" clip-path="url(#p0e6e6cb813)" style="fill: none; stroke-dasharray: 0.75,1.2375; stroke-dashoffset: 0; stroke: #808080; stroke-opacity: 0.75; stroke-width: 0.75"/>
     </g>
     <g id="line2d_39">
      <g>
       <use xlink:href="#md1b6cc1b50" x="534.545455" y="388.8" style="stroke: #000000; stroke-width: 0.6"/>
      </g>
     </g>
    </g>
    <g id="xtick_23">
     <g id="line2d_40">
      <path d="M 580.478469 388.8 
L 580.478469 43.2 
" clip-path="url(#p0e6e6cb813)" style="fill: none; stroke-dasharray: 0.75,1.2375; stroke-dashoffset: 0; stroke: #808080; stroke-opacity: 0.75; stroke-width: 0.75"/>
     </g>
     <g id="line2d_41">
      <g>
       <use xlink:href="#md1b6cc1b50" x="580.478469" y="388.8" style="stroke: #000000; stroke-width: 0.6"/>
      </g>
     </g>
    </g>
    <g id="xtick_24">
     <g id="line2d_42">
      <path d="M 603.444976 388.8 
L 603.444976 43.2 
" clip-path="url(#p0e6e6cb813)" style="fill: none; stroke-dasharray: 0.75,1.2375; stroke-dashoffset: 0; stroke: #808080; stroke-opacity: 0.75; stroke-width: 0.75"/>
     </g>
     <g id="line2d_43">
      <g>
       <use xlink:href="#md1b6cc1b50" x="603.444976" y="388.8" style="stroke: #000000; stroke-width: 0.6"/>
      </g>
     </g>
    </g>
    <g id="xtick_25">
     <g id="line2d_44">
      <path d="M 626.411483 388.8 
L 626.411483 43.2 
" clip-path="url(#p0e6e6cb813)" style="fill: none; stroke-dasharray: 0.75,1.2375; stroke-dashoffset: 0; stroke: #808080; stroke-opacity: 0.75; stroke-width: 0.75"/>
     </g>
     <g id="line2d_45">
      <g>
       <use xlink:href="#md1b6cc1b50" x="626.411483" y="388.8" style="stroke: #000000; stroke-width: 0.6"/>
      </g>
     </g>
    </g>
    <g id="text_6">
     <!-- Iterations [-] -->
     <g transform="translate(315.34 420.115938) scale(0.14 -0.14)">
      <defs>
       <path id="DejaVuSerif-Italic-49" d="M 1194 331 
L 1788 331 
L 1725 0 
L -97 0 
L -34 331 
L 559 331 
L 1338 4331 
L 744 4331 
L 809 4666 
L 2631 4666 
L 2566 4331 
L 1972 4331 
L 1194 331 
z
" transform="scale(0.015625)"/>
       <path id="DejaVuSerif-Italic-74" d="M 856 2988 
L 350 2988 
L 416 3322 
L 922 3322 
L 1122 4353 
L 1700 4353 
L 1500 3322 
L 2581 3322 
L 2516 2988 
L 1434 2988 
L 1025 878 
Q 978 631 978 488 
Q 978 388 1000 338 
Q 1059 219 1278 219 
Q 1503 219 1633 351 
Q 1763 484 1825 781 
L 2259 781 
Q 2147 328 1884 118 
Q 1622 -91 1169 -91 
Q 672 -91 506 131 
Q 406 266 406 516 
Q 406 675 447 878 
L 856 2988 
z
" transform="scale(0.015625)"/>
       <path id="DejaVuSerif-Italic-65" d="M 938 1275 
Q 925 1156 925 1050 
Q 925 756 1031 563 
Q 1216 219 1709 219 
Q 2072 219 2250 328 
Q 2569 525 2644 778 
L 3066 778 
Q 2941 381 2475 103 
Q 2150 -91 1506 -91 
Q 863 -91 516 388 
Q 272 722 272 1206 
Q 272 1419 319 1659 
Q 472 2450 1000 2931 
Q 1528 3413 2278 3413 
Q 3500 3413 3500 2547 
Q 3500 1913 2859 1603 
Q 2206 1288 938 1275 
z
M 2541 1975 
Q 2891 2181 2891 2569 
Q 2891 3103 2181 3103 
Q 1763 3103 1472 2784 
Q 1181 2466 1003 1606 
Q 2006 1653 2541 1975 
z
" transform="scale(0.015625)"/>
       <path id="DejaVuSerif-Italic-72" d="M 3375 3328 
L 3213 2497 
L 2881 2497 
Q 2891 2559 2891 2613 
Q 2891 2775 2816 2866 
Q 2719 2988 2484 2988 
Q 2059 2988 1775 2694 
Q 1491 2400 1384 1850 
L 1025 0 
L 450 0 
L 1031 2994 
L 481 2994 
L 544 3322 
L 1669 3322 
L 1556 2731 
Q 1791 3078 2089 3245 
Q 2388 3413 2769 3413 
Q 2909 3413 3059 3391 
Q 3209 3369 3375 3328 
z
" transform="scale(0.015625)"/>
       <path id="DejaVuSerif-Italic-61" d="M 2325 519 
Q 1909 -91 1238 -91 
Q 688 -91 409 281 
Q 216 544 216 919 
Q 216 1078 250 1256 
Q 463 2359 1231 2928 
Q 1884 3413 2675 3413 
Q 3206 3413 3388 3322 
L 2806 331 
L 3300 331 
L 3238 0 
L 2225 0 
L 2325 519 
z
M 822 938 
Q 822 269 1469 269 
Q 1863 269 2130 583 
Q 2397 897 2516 1497 
L 2806 3003 
L 2806 3003 
Q 2806 3094 2556 3094 
Q 1956 3094 1491 2625 
Q 1028 2153 863 1297 
Q 822 1097 822 938 
z
" transform="scale(0.015625)"/>
       <path id="DejaVuSerif-Italic-69" d="M 1009 4353 
Q 1038 4497 1163 4603 
Q 1288 4709 1434 4709 
Q 1578 4709 1663 4603 
Q 1728 4522 1728 4422 
Q 1728 4388 1719 4353 
Q 1691 4206 1567 4103 
Q 1444 4000 1297 4000 
Q 1150 4000 1066 4103 
Q 1003 4181 1003 4281 
Q 1003 4316 1009 4353 
z
M 963 331 
L 1506 331 
L 1444 0 
L 325 0 
L 903 2988 
L 353 2988 
L 419 3322 
L 1544 3322 
L 963 331 
z
" transform="scale(0.015625)"/>
       <path id="DejaVuSerif-Italic-6f" d="M 1644 219 
Q 2106 219 2414 584 
Q 2722 950 2859 1663 
Q 2922 1988 2922 2241 
Q 2922 2541 2834 2738 
Q 2669 3103 2206 3103 
Q 1744 3103 1436 2739 
Q 1128 2375 991 1663 
Q 928 1338 928 1088 
Q 928 784 1019 584 
Q 1184 219 1644 219 
z
M 1584 -91 
Q 859 -91 513 388 
Q 272 722 272 1203 
Q 272 1419 319 1663 
Q 472 2456 1005 2934 
Q 1538 3413 2266 3413 
Q 2994 3413 3341 2934 
Q 3578 2603 3578 2122 
Q 3578 1906 3531 1663 
Q 3378 869 2845 389 
Q 2313 -91 1584 -91 
z
" transform="scale(0.015625)"/>
       <path id="DejaVuSerif-Italic-6e" d="M 450 0 
L 1031 2988 
L 481 2988 
L 544 3322 
L 1669 3322 
L 1556 2731 
Q 1781 3069 2068 3241 
Q 2356 3413 2694 3413 
Q 3244 3413 3444 3097 
Q 3563 2906 3563 2588 
Q 3563 2378 3509 2113 
L 3163 331 
L 3675 331 
L 3613 0 
L 2522 0 
L 2897 1931 
Q 2959 2253 2959 2469 
Q 2959 2659 2909 2769 
Q 2803 2994 2425 2994 
Q 2025 2994 1759 2701 
Q 1494 2409 1384 1850 
L 1025 0 
L 450 0 
z
" transform="scale(0.015625)"/>
       <path id="DejaVuSerif-Italic-73" d="M 222 959 
L 553 959 
Q 541 869 541 788 
Q 541 219 1313 219 
Q 2088 219 2200 788 
Q 2209 844 2209 944 
Q 2209 1041 2103 1158 
Q 1997 1275 1550 1428 
L 1159 1569 
Q 759 1706 629 1882 
Q 500 2059 500 2263 
Q 500 2344 516 2438 
Q 606 2894 990 3153 
Q 1375 3413 1931 3413 
Q 2484 3413 3066 3144 
L 2925 2419 
L 2594 2419 
Q 2606 2491 2606 2553 
Q 2606 2781 2448 2942 
Q 2291 3103 1925 3103 
Q 1191 3103 1091 2591 
Q 1078 2538 1078 2444 
Q 1078 2347 1179 2237 
Q 1281 2128 1678 1997 
L 2106 1856 
Q 2550 1709 2716 1488 
Q 2831 1331 2831 1178 
Q 2831 522 2306 181 
Q 1894 -91 1262 -91 
Q 631 -91 72 184 
L 222 959 
z
" transform="scale(0.015625)"/>
       <path id="DejaVuSerif-Italic-20" transform="scale(0.015625)"/>
       <path id="DejaVuSerif-Italic-5b" d="M 1106 4863 
L 2559 4863 
L 2497 4531 
L 1641 4531 
L 659 -513 
L 1516 -513 
L 1453 -844 
L 0 -844 
L 1106 4863 
z
" transform="scale(0.015625)"/>
       <path id="DejaVuSerif-Italic-2d" d="M 328 1959 
L 1928 1959 
L 1834 1472 
L 234 1472 
L 328 1959 
z
" transform="scale(0.015625)"/>
       <path id="DejaVuSerif-Italic-5d" d="M 2503 4863 
L 1397 -844 
L -56 -844 
L 6 -513 
L 863 -513 
L 1844 4531 
L 988 4531 
L 1050 4863 
L 2503 4863 
z
" transform="scale(0.015625)"/>
      </defs>
      <use xlink:href="#DejaVuSerif-Italic-49"/>
      <use xlink:href="#DejaVuSerif-Italic-74" transform="translate(39.501953 0)"/>
      <use xlink:href="#DejaVuSerif-Italic-65" transform="translate(79.6875 0)"/>
      <use xlink:href="#DejaVuSerif-Italic-72" transform="translate(138.867188 0)"/>
      <use xlink:href="#DejaVuSerif-Italic-61" transform="translate(186.669922 0)"/>
      <use xlink:href="#DejaVuSerif-Italic-74" transform="translate(246.289062 0)"/>
      <use xlink:href="#DejaVuSerif-Italic-69" transform="translate(286.474609 0)"/>
      <use xlink:href="#DejaVuSerif-Italic-6f" transform="translate(318.457031 0)"/>
      <use xlink:href="#DejaVuSerif-Italic-6e" transform="translate(378.662109 0)"/>
      <use xlink:href="#DejaVuSerif-Italic-73" transform="translate(443.066406 0)"/>
      <use xlink:href="#DejaVuSerif-Italic-20" transform="translate(494.384766 0)"/>
      <use xlink:href="#DejaVuSerif-Italic-5b" transform="translate(526.171875 0)"/>
      <use xlink:href="#DejaVuSerif-Italic-2d" transform="translate(565.185547 0)"/>
      <use xlink:href="#DejaVuSerif-Italic-5d" transform="translate(598.974609 0)"/>
     </g>
    </g>
   </g>
   <g id="matplotlib.axis_2">
    <g id="ytick_1">
     <g id="line2d_46">
      <defs>
       <path id="m869af998f2" d="M 0 0 
L -3.5 0 
" style="stroke: #000000; stroke-width: 0.8"/>
      </defs>
      <g>
       <use xlink:href="#m869af998f2" x="72" y="373.092106" style="stroke: #000000; stroke-width: 0.8"/>
      </g>
     </g>
     <g id="text_7">
      <!-- 0 -->
      <g transform="translate(58.6375 376.891325) scale(0.1 -0.1)">
       <use xlink:href="#DejaVuSans-30"/>
      </g>
     </g>
    </g>
    <g id="ytick_2">
     <g id="line2d_47">
      <g>
       <use xlink:href="#m869af998f2" x="72" y="330.214122" style="stroke: #000000; stroke-width: 0.8"/>
      </g>
     </g>
     <g id="text_8">
      <!-- 1 -->
      <g transform="translate(58.6375 334.01334) scale(0.1 -0.1)">
       <use xlink:href="#DejaVuSans-31"/>
      </g>
     </g>
    </g>
    <g id="ytick_3">
     <g id="line2d_48">
      <g>
       <use xlink:href="#m869af998f2" x="72" y="287.336137" style="stroke: #000000; stroke-width: 0.8"/>
      </g>
     </g>
     <g id="text_9">
      <!-- 2 -->
      <g transform="translate(58.6375 291.135356) scale(0.1 -0.1)">
       <use xlink:href="#DejaVuSans-32"/>
      </g>
     </g>
    </g>
    <g id="ytick_4">
     <g id="line2d_49">
      <g>
       <use xlink:href="#m869af998f2" x="72" y="244.458153" style="stroke: #000000; stroke-width: 0.8"/>
      </g>
     </g>
     <g id="text_10">
      <!-- 3 -->
      <g transform="translate(58.6375 248.257372) scale(0.1 -0.1)">
       <defs>
        <path id="DejaVuSans-33" d="M 2597 2516 
Q 3050 2419 3304 2112 
Q 3559 1806 3559 1356 
Q 3559 666 3084 287 
Q 2609 -91 1734 -91 
Q 1441 -91 1130 -33 
Q 819 25 488 141 
L 488 750 
Q 750 597 1062 519 
Q 1375 441 1716 441 
Q 2309 441 2620 675 
Q 2931 909 2931 1356 
Q 2931 1769 2642 2001 
Q 2353 2234 1838 2234 
L 1294 2234 
L 1294 2753 
L 1863 2753 
Q 2328 2753 2575 2939 
Q 2822 3125 2822 3475 
Q 2822 3834 2567 4026 
Q 2313 4219 1838 4219 
Q 1578 4219 1281 4162 
Q 984 4106 628 3988 
L 628 4550 
Q 988 4650 1302 4700 
Q 1616 4750 1894 4750 
Q 2613 4750 3031 4423 
Q 3450 4097 3450 3541 
Q 3450 3153 3228 2886 
Q 3006 2619 2597 2516 
z
" transform="scale(0.015625)"/>
       </defs>
       <use xlink:href="#DejaVuSans-33"/>
      </g>
     </g>
    </g>
    <g id="ytick_5">
     <g id="line2d_50">
      <g>
       <use xlink:href="#m869af998f2" x="72" y="201.580169" style="stroke: #000000; stroke-width: 0.8"/>
      </g>
     </g>
     <g id="text_11">
      <!-- 4 -->
      <g transform="translate(58.6375 205.379388) scale(0.1 -0.1)">
       <defs>
        <path id="DejaVuSans-34" d="M 2419 4116 
L 825 1625 
L 2419 1625 
L 2419 4116 
z
M 2253 4666 
L 3047 4666 
L 3047 1625 
L 3713 1625 
L 3713 1100 
L 3047 1100 
L 3047 0 
L 2419 0 
L 2419 1100 
L 313 1100 
L 313 1709 
L 2253 4666 
z
" transform="scale(0.015625)"/>
       </defs>
       <use xlink:href="#DejaVuSans-34"/>
      </g>
     </g>
    </g>
    <g id="ytick_6">
     <g id="line2d_51">
      <g>
       <use xlink:href="#m869af998f2" x="72" y="158.702185" style="stroke: #000000; stroke-width: 0.8"/>
      </g>
     </g>
     <g id="text_12">
      <!-- 5 -->
      <g transform="translate(58.6375 162.501403) scale(0.1 -0.1)">
       <use xlink:href="#DejaVuSans-35"/>
      </g>
     </g>
    </g>
    <g id="ytick_7">
     <g id="line2d_52">
      <g>
       <use xlink:href="#m869af998f2" x="72" y="115.824201" style="stroke: #000000; stroke-width: 0.8"/>
      </g>
     </g>
     <g id="text_13">
      <!-- 6 -->
      <g transform="translate(58.6375 119.623419) scale(0.1 -0.1)">
       <defs>
        <path id="DejaVuSans-36" d="M 2113 2584 
Q 1688 2584 1439 2293 
Q 1191 2003 1191 1497 
Q 1191 994 1439 701 
Q 1688 409 2113 409 
Q 2538 409 2786 701 
Q 3034 994 3034 1497 
Q 3034 2003 2786 2293 
Q 2538 2584 2113 2584 
z
M 3366 4563 
L 3366 3988 
Q 3128 4100 2886 4159 
Q 2644 4219 2406 4219 
Q 1781 4219 1451 3797 
Q 1122 3375 1075 2522 
Q 1259 2794 1537 2939 
Q 1816 3084 2150 3084 
Q 2853 3084 3261 2657 
Q 3669 2231 3669 1497 
Q 3669 778 3244 343 
Q 2819 -91 2113 -91 
Q 1303 -91 875 529 
Q 447 1150 447 2328 
Q 447 3434 972 4092 
Q 1497 4750 2381 4750 
Q 2619 4750 2861 4703 
Q 3103 4656 3366 4563 
z
" transform="scale(0.015625)"/>
       </defs>
       <use xlink:href="#DejaVuSans-36"/>
      </g>
     </g>
    </g>
    <g id="ytick_8">
     <g id="line2d_53">
      <g>
       <use xlink:href="#m869af998f2" x="72" y="72.946216" style="stroke: #000000; stroke-width: 0.8"/>
      </g>
     </g>
     <g id="text_14">
      <!-- 7 -->
      <g transform="translate(58.6375 76.745435) scale(0.1 -0.1)">
       <defs>
        <path id="DejaVuSans-37" d="M 525 4666 
L 3525 4666 
L 3525 4397 
L 1831 0 
L 1172 0 
L 2766 4134 
L 525 4134 
L 525 4666 
z
" transform="scale(0.015625)"/>
       </defs>
       <use xlink:href="#DejaVuSans-37"/>
      </g>
     </g>
    </g>
    <g id="ytick_9">
     <g id="line2d_54">
      <path d="M 72 381.667703 
L 648 381.667703 
" clip-path="url(#p0e6e6cb813)" style="fill: none; stroke-dasharray: 0.75,1.2375; stroke-dashoffset: 0; stroke: #808080; stroke-opacity: 0.75; stroke-width: 0.75"/>
     </g>
     <g id="line2d_55">
      <defs>
       <path id="mbb56e72073" d="M 0 0 
L -2 0 
" style="stroke: #000000; stroke-width: 0.6"/>
      </defs>
      <g>
       <use xlink:href="#mbb56e72073" x="72" y="381.667703" style="stroke: #000000; stroke-width: 0.6"/>
      </g>
     </g>
    </g>
    <g id="ytick_10">
     <g id="line2d_56">
      <path d="M 72 364.516509 
L 648 364.516509 
" clip-path="url(#p0e6e6cb813)" style="fill: none; stroke-dasharray: 0.75,1.2375; stroke-dashoffset: 0; stroke: #808080; stroke-opacity: 0.75; stroke-width: 0.75"/>
     </g>
     <g id="line2d_57">
      <g>
       <use xlink:href="#mbb56e72073" x="72" y="364.516509" style="stroke: #000000; stroke-width: 0.6"/>
      </g>
     </g>
    </g>
    <g id="ytick_11">
     <g id="line2d_58">
      <path d="M 72 355.940912 
L 648 355.940912 
" clip-path="url(#p0e6e6cb813)" style="fill: none; stroke-dasharray: 0.75,1.2375; stroke-dashoffset: 0; stroke: #808080; stroke-opacity: 0.75; stroke-width: 0.75"/>
     </g>
     <g id="line2d_59">
      <g>
       <use xlink:href="#mbb56e72073" x="72" y="355.940912" style="stroke: #000000; stroke-width: 0.6"/>
      </g>
     </g>
    </g>
    <g id="ytick_12">
     <g id="line2d_60">
      <path d="M 72 347.365315 
L 648 347.365315 
" clip-path="url(#p0e6e6cb813)" style="fill: none; stroke-dasharray: 0.75,1.2375; stroke-dashoffset: 0; stroke: #808080; stroke-opacity: 0.75; stroke-width: 0.75"/>
     </g>
     <g id="line2d_61">
      <g>
       <use xlink:href="#mbb56e72073" x="72" y="347.365315" style="stroke: #000000; stroke-width: 0.6"/>
      </g>
     </g>
    </g>
    <g id="ytick_13">
     <g id="line2d_62">
      <path d="M 72 338.789718 
L 648 338.789718 
" clip-path="url(#p0e6e6cb813)" style="fill: none; stroke-dasharray: 0.75,1.2375; stroke-dashoffset: 0; stroke: #808080; stroke-opacity: 0.75; stroke-width: 0.75"/>
     </g>
     <g id="line2d_63">
      <g>
       <use xlink:href="#mbb56e72073" x="72" y="338.789718" style="stroke: #000000; stroke-width: 0.6"/>
      </g>
     </g>
    </g>
    <g id="ytick_14">
     <g id="line2d_64">
      <path d="M 72 321.638525 
L 648 321.638525 
" clip-path="url(#p0e6e6cb813)" style="fill: none; stroke-dasharray: 0.75,1.2375; stroke-dashoffset: 0; stroke: #808080; stroke-opacity: 0.75; stroke-width: 0.75"/>
     </g>
     <g id="line2d_65">
      <g>
       <use xlink:href="#mbb56e72073" x="72" y="321.638525" style="stroke: #000000; stroke-width: 0.6"/>
      </g>
     </g>
    </g>
    <g id="ytick_15">
     <g id="line2d_66">
      <path d="M 72 313.062928 
L 648 313.062928 
" clip-path="url(#p0e6e6cb813)" style="fill: none; stroke-dasharray: 0.75,1.2375; stroke-dashoffset: 0; stroke: #808080; stroke-opacity: 0.75; stroke-width: 0.75"/>
     </g>
     <g id="line2d_67">
      <g>
       <use xlink:href="#mbb56e72073" x="72" y="313.062928" style="stroke: #000000; stroke-width: 0.6"/>
      </g>
     </g>
    </g>
    <g id="ytick_16">
     <g id="line2d_68">
      <path d="M 72 304.487331 
L 648 304.487331 
" clip-path="url(#p0e6e6cb813)" style="fill: none; stroke-dasharray: 0.75,1.2375; stroke-dashoffset: 0; stroke: #808080; stroke-opacity: 0.75; stroke-width: 0.75"/>
     </g>
     <g id="line2d_69">
      <g>
       <use xlink:href="#mbb56e72073" x="72" y="304.487331" style="stroke: #000000; stroke-width: 0.6"/>
      </g>
     </g>
    </g>
    <g id="ytick_17">
     <g id="line2d_70">
      <path d="M 72 295.911734 
L 648 295.911734 
" clip-path="url(#p0e6e6cb813)" style="fill: none; stroke-dasharray: 0.75,1.2375; stroke-dashoffset: 0; stroke: #808080; stroke-opacity: 0.75; stroke-width: 0.75"/>
     </g>
     <g id="line2d_71">
      <g>
       <use xlink:href="#mbb56e72073" x="72" y="295.911734" style="stroke: #000000; stroke-width: 0.6"/>
      </g>
     </g>
    </g>
    <g id="ytick_18">
     <g id="line2d_72">
      <path d="M 72 278.760541 
L 648 278.760541 
" clip-path="url(#p0e6e6cb813)" style="fill: none; stroke-dasharray: 0.75,1.2375; stroke-dashoffset: 0; stroke: #808080; stroke-opacity: 0.75; stroke-width: 0.75"/>
     </g>
     <g id="line2d_73">
      <g>
       <use xlink:href="#mbb56e72073" x="72" y="278.760541" style="stroke: #000000; stroke-width: 0.6"/>
      </g>
     </g>
    </g>
    <g id="ytick_19">
     <g id="line2d_74">
      <path d="M 72 270.184944 
L 648 270.184944 
" clip-path="url(#p0e6e6cb813)" style="fill: none; stroke-dasharray: 0.75,1.2375; stroke-dashoffset: 0; stroke: #808080; stroke-opacity: 0.75; stroke-width: 0.75"/>
     </g>
     <g id="line2d_75">
      <g>
       <use xlink:href="#mbb56e72073" x="72" y="270.184944" style="stroke: #000000; stroke-width: 0.6"/>
      </g>
     </g>
    </g>
    <g id="ytick_20">
     <g id="line2d_76">
      <path d="M 72 261.609347 
L 648 261.609347 
" clip-path="url(#p0e6e6cb813)" style="fill: none; stroke-dasharray: 0.75,1.2375; stroke-dashoffset: 0; stroke: #808080; stroke-opacity: 0.75; stroke-width: 0.75"/>
     </g>
     <g id="line2d_77">
      <g>
       <use xlink:href="#mbb56e72073" x="72" y="261.609347" style="stroke: #000000; stroke-width: 0.6"/>
      </g>
     </g>
    </g>
    <g id="ytick_21">
     <g id="line2d_78">
      <path d="M 72 253.03375 
L 648 253.03375 
" clip-path="url(#p0e6e6cb813)" style="fill: none; stroke-dasharray: 0.75,1.2375; stroke-dashoffset: 0; stroke: #808080; stroke-opacity: 0.75; stroke-width: 0.75"/>
     </g>
     <g id="line2d_79">
      <g>
       <use xlink:href="#mbb56e72073" x="72" y="253.03375" style="stroke: #000000; stroke-width: 0.6"/>
      </g>
     </g>
    </g>
    <g id="ytick_22">
     <g id="line2d_80">
      <path d="M 72 235.882556 
L 648 235.882556 
" clip-path="url(#p0e6e6cb813)" style="fill: none; stroke-dasharray: 0.75,1.2375; stroke-dashoffset: 0; stroke: #808080; stroke-opacity: 0.75; stroke-width: 0.75"/>
     </g>
     <g id="line2d_81">
      <g>
       <use xlink:href="#mbb56e72073" x="72" y="235.882556" style="stroke: #000000; stroke-width: 0.6"/>
      </g>
     </g>
    </g>
    <g id="ytick_23">
     <g id="line2d_82">
      <path d="M 72 227.306959 
L 648 227.306959 
" clip-path="url(#p0e6e6cb813)" style="fill: none; stroke-dasharray: 0.75,1.2375; stroke-dashoffset: 0; stroke: #808080; stroke-opacity: 0.75; stroke-width: 0.75"/>
     </g>
     <g id="line2d_83">
      <g>
       <use xlink:href="#mbb56e72073" x="72" y="227.306959" style="stroke: #000000; stroke-width: 0.6"/>
      </g>
     </g>
    </g>
    <g id="ytick_24">
     <g id="line2d_84">
      <path d="M 72 218.731363 
L 648 218.731363 
" clip-path="url(#p0e6e6cb813)" style="fill: none; stroke-dasharray: 0.75,1.2375; stroke-dashoffset: 0; stroke: #808080; stroke-opacity: 0.75; stroke-width: 0.75"/>
     </g>
     <g id="line2d_85">
      <g>
       <use xlink:href="#mbb56e72073" x="72" y="218.731363" style="stroke: #000000; stroke-width: 0.6"/>
      </g>
     </g>
    </g>
    <g id="ytick_25">
     <g id="line2d_86">
      <path d="M 72 210.155766 
L 648 210.155766 
" clip-path="url(#p0e6e6cb813)" style="fill: none; stroke-dasharray: 0.75,1.2375; stroke-dashoffset: 0; stroke: #808080; stroke-opacity: 0.75; stroke-width: 0.75"/>
     </g>
     <g id="line2d_87">
      <g>
       <use xlink:href="#mbb56e72073" x="72" y="210.155766" style="stroke: #000000; stroke-width: 0.6"/>
      </g>
     </g>
    </g>
    <g id="ytick_26">
     <g id="line2d_88">
      <path d="M 72 193.004572 
L 648 193.004572 
" clip-path="url(#p0e6e6cb813)" style="fill: none; stroke-dasharray: 0.75,1.2375; stroke-dashoffset: 0; stroke: #808080; stroke-opacity: 0.75; stroke-width: 0.75"/>
     </g>
     <g id="line2d_89">
      <g>
       <use xlink:href="#mbb56e72073" x="72" y="193.004572" style="stroke: #000000; stroke-width: 0.6"/>
      </g>
     </g>
    </g>
    <g id="ytick_27">
     <g id="line2d_90">
      <path d="M 72 184.428975 
L 648 184.428975 
" clip-path="url(#p0e6e6cb813)" style="fill: none; stroke-dasharray: 0.75,1.2375; stroke-dashoffset: 0; stroke: #808080; stroke-opacity: 0.75; stroke-width: 0.75"/>
     </g>
     <g id="line2d_91">
      <g>
       <use xlink:href="#mbb56e72073" x="72" y="184.428975" style="stroke: #000000; stroke-width: 0.6"/>
      </g>
     </g>
    </g>
    <g id="ytick_28">
     <g id="line2d_92">
      <path d="M 72 175.853378 
L 648 175.853378 
" clip-path="url(#p0e6e6cb813)" style="fill: none; stroke-dasharray: 0.75,1.2375; stroke-dashoffset: 0; stroke: #808080; stroke-opacity: 0.75; stroke-width: 0.75"/>
     </g>
     <g id="line2d_93">
      <g>
       <use xlink:href="#mbb56e72073" x="72" y="175.853378" style="stroke: #000000; stroke-width: 0.6"/>
      </g>
     </g>
    </g>
    <g id="ytick_29">
     <g id="line2d_94">
      <path d="M 72 167.277782 
L 648 167.277782 
" clip-path="url(#p0e6e6cb813)" style="fill: none; stroke-dasharray: 0.75,1.2375; stroke-dashoffset: 0; stroke: #808080; stroke-opacity: 0.75; stroke-width: 0.75"/>
     </g>
     <g id="line2d_95">
      <g>
       <use xlink:href="#mbb56e72073" x="72" y="167.277782" style="stroke: #000000; stroke-width: 0.6"/>
      </g>
     </g>
    </g>
    <g id="ytick_30">
     <g id="line2d_96">
      <path d="M 72 150.126588 
L 648 150.126588 
" clip-path="url(#p0e6e6cb813)" style="fill: none; stroke-dasharray: 0.75,1.2375; stroke-dashoffset: 0; stroke: #808080; stroke-opacity: 0.75; stroke-width: 0.75"/>
     </g>
     <g id="line2d_97">
      <g>
       <use xlink:href="#mbb56e72073" x="72" y="150.126588" style="stroke: #000000; stroke-width: 0.6"/>
      </g>
     </g>
    </g>
    <g id="ytick_31">
     <g id="line2d_98">
      <path d="M 72 141.550991 
L 648 141.550991 
" clip-path="url(#p0e6e6cb813)" style="fill: none; stroke-dasharray: 0.75,1.2375; stroke-dashoffset: 0; stroke: #808080; stroke-opacity: 0.75; stroke-width: 0.75"/>
     </g>
     <g id="line2d_99">
      <g>
       <use xlink:href="#mbb56e72073" x="72" y="141.550991" style="stroke: #000000; stroke-width: 0.6"/>
      </g>
     </g>
    </g>
    <g id="ytick_32">
     <g id="line2d_100">
      <path d="M 72 132.975394 
L 648 132.975394 
" clip-path="url(#p0e6e6cb813)" style="fill: none; stroke-dasharray: 0.75,1.2375; stroke-dashoffset: 0; stroke: #808080; stroke-opacity: 0.75; stroke-width: 0.75"/>
     </g>
     <g id="line2d_101">
      <g>
       <use xlink:href="#mbb56e72073" x="72" y="132.975394" style="stroke: #000000; stroke-width: 0.6"/>
      </g>
     </g>
    </g>
    <g id="ytick_33">
     <g id="line2d_102">
      <path d="M 72 124.399797 
L 648 124.399797 
" clip-path="url(#p0e6e6cb813)" style="fill: none; stroke-dasharray: 0.75,1.2375; stroke-dashoffset: 0; stroke: #808080; stroke-opacity: 0.75; stroke-width: 0.75"/>
     </g>
     <g id="line2d_103">
      <g>
       <use xlink:href="#mbb56e72073" x="72" y="124.399797" style="stroke: #000000; stroke-width: 0.6"/>
      </g>
     </g>
    </g>
    <g id="ytick_34">
     <g id="line2d_104">
      <path d="M 72 107.248604 
L 648 107.248604 
" clip-path="url(#p0e6e6cb813)" style="fill: none; stroke-dasharray: 0.75,1.2375; stroke-dashoffset: 0; stroke: #808080; stroke-opacity: 0.75; stroke-width: 0.75"/>
     </g>
     <g id="line2d_105">
      <g>
       <use xlink:href="#mbb56e72073" x="72" y="107.248604" style="stroke: #000000; stroke-width: 0.6"/>
      </g>
     </g>
    </g>
    <g id="ytick_35">
     <g id="line2d_106">
      <path d="M 72 98.673007 
L 648 98.673007 
" clip-path="url(#p0e6e6cb813)" style="fill: none; stroke-dasharray: 0.75,1.2375; stroke-dashoffset: 0; stroke: #808080; stroke-opacity: 0.75; stroke-width: 0.75"/>
     </g>
     <g id="line2d_107">
      <g>
       <use xlink:href="#mbb56e72073" x="72" y="98.673007" style="stroke: #000000; stroke-width: 0.6"/>
      </g>
     </g>
    </g>
    <g id="ytick_36">
     <g id="line2d_108">
      <path d="M 72 90.09741 
L 648 90.09741 
" clip-path="url(#p0e6e6cb813)" style="fill: none; stroke-dasharray: 0.75,1.2375; stroke-dashoffset: 0; stroke: #808080; stroke-opacity: 0.75; stroke-width: 0.75"/>
     </g>
     <g id="line2d_109">
      <g>
       <use xlink:href="#mbb56e72073" x="72" y="90.09741" style="stroke: #000000; stroke-width: 0.6"/>
      </g>
     </g>
    </g>
    <g id="ytick_37">
     <g id="line2d_110">
      <path d="M 72 81.521813 
L 648 81.521813 
" clip-path="url(#p0e6e6cb813)" style="fill: none; stroke-dasharray: 0.75,1.2375; stroke-dashoffset: 0; stroke: #808080; stroke-opacity: 0.75; stroke-width: 0.75"/>
     </g>
     <g id="line2d_111">
      <g>
       <use xlink:href="#mbb56e72073" x="72" y="81.521813" style="stroke: #000000; stroke-width: 0.6"/>
      </g>
     </g>
    </g>
    <g id="ytick_38">
     <g id="line2d_112">
      <path d="M 72 64.370619 
L 648 64.370619 
" clip-path="url(#p0e6e6cb813)" style="fill: none; stroke-dasharray: 0.75,1.2375; stroke-dashoffset: 0; stroke: #808080; stroke-opacity: 0.75; stroke-width: 0.75"/>
     </g>
     <g id="line2d_113">
      <g>
       <use xlink:href="#mbb56e72073" x="72" y="64.370619" style="stroke: #000000; stroke-width: 0.6"/>
      </g>
     </g>
    </g>
    <g id="ytick_39">
     <g id="line2d_114">
      <path d="M 72 55.795023 
L 648 55.795023 
" clip-path="url(#p0e6e6cb813)" style="fill: none; stroke-dasharray: 0.75,1.2375; stroke-dashoffset: 0; stroke: #808080; stroke-opacity: 0.75; stroke-width: 0.75"/>
     </g>
     <g id="line2d_115">
      <g>
       <use xlink:href="#mbb56e72073" x="72" y="55.795023" style="stroke: #000000; stroke-width: 0.6"/>
      </g>
     </g>
    </g>
    <g id="ytick_40">
     <g id="line2d_116">
      <path d="M 72 47.219426 
L 648 47.219426 
" clip-path="url(#p0e6e6cb813)" style="fill: none; stroke-dasharray: 0.75,1.2375; stroke-dashoffset: 0; stroke: #808080; stroke-opacity: 0.75; stroke-width: 0.75"/>
     </g>
     <g id="line2d_117">
      <g>
       <use xlink:href="#mbb56e72073" x="72" y="47.219426" style="stroke: #000000; stroke-width: 0.6"/>
      </g>
     </g>
    </g>
    <g id="text_15">
     <!-- Cost objective [-] -->
     <g transform="translate(51.526875 276.33125) rotate(-90) scale(0.14 -0.14)">
      <defs>
       <path id="DejaVuSerif-Italic-43" d="M 4300 1234 
Q 3966 581 3414 245 
Q 2863 -91 2119 -91 
Q 1663 -91 1303 65 
Q 944 222 700 525 
Q 419 875 334 1320 
Q 250 1766 359 2328 
Q 572 3416 1330 4083 
Q 2088 4750 3116 4750 
Q 3497 4750 3908 4650 
Q 4319 4550 4775 4347 
L 4569 3272 
L 4216 3272 
Q 4213 3859 3919 4137 
Q 3625 4416 2997 4416 
Q 2250 4416 1762 3886 
Q 1275 3356 1075 2328 
Q 875 1303 1156 773 
Q 1438 244 2184 244 
Q 2706 244 3092 492 
Q 3478 741 3725 1234 
L 4300 1234 
z
" transform="scale(0.015625)"/>
       <path id="DejaVuSerif-Italic-62" d="M 1153 4531 
L 600 4531 
L 666 4863 
L 1794 4863 
L 1394 2803 
Q 1622 3116 1912 3264 
Q 2203 3413 2588 3413 
Q 3200 3413 3494 2928 
Q 3688 2609 3688 2163 
Q 3688 1928 3634 1663 
Q 3481 881 3000 395 
Q 2519 -91 1906 -91 
Q 1522 -91 1289 57 
Q 1056 206 950 519 
L 850 0 
L 275 0 
L 1153 4531 
z
M 1141 1497 
Q 1091 1250 1091 1053 
Q 1091 769 1191 581 
Q 1359 269 1797 269 
Q 2238 269 2533 622 
Q 2828 975 2963 1663 
Q 3025 1978 3025 2225 
Q 3025 2513 2938 2703 
Q 2781 3053 2338 3053 
Q 1900 3053 1609 2737 
Q 1319 2422 1203 1825 
L 1141 1497 
z
" transform="scale(0.015625)"/>
       <path id="DejaVuSerif-Italic-6a" d="M 1172 4353 
Q 1197 4497 1323 4603 
Q 1450 4709 1597 4709 
Q 1741 4709 1825 4603 
Q 1888 4522 1888 4422 
Q 1888 4388 1881 4353 
Q 1850 4206 1729 4103 
Q 1609 4000 1459 4000 
Q 1313 4000 1225 4103 
Q 1163 4181 1163 4281 
Q 1163 4316 1172 4353 
z
M 1047 2988 
L 503 2988 
L 566 3322 
L 1684 3322 
L 978 -325 
Q 878 -838 515 -1130 
Q 153 -1422 -381 -1422 
Q -606 -1422 -800 -1370 
Q -994 -1319 -1169 -1216 
L -1034 -531 
L -738 -531 
Q -747 -609 -747 -675 
Q -747 -869 -669 -972 
Q -563 -1113 -306 -1113 
Q -22 -1113 150 -920 
Q 322 -728 403 -325 
L 1047 2988 
z
" transform="scale(0.015625)"/>
       <path id="DejaVuSerif-Italic-63" d="M 3163 997 
Q 2938 466 2536 187 
Q 2134 -91 1584 -91 
Q 859 -91 513 388 
Q 272 722 272 1203 
Q 272 1419 319 1663 
Q 475 2459 1008 2936 
Q 1541 3413 2266 3413 
Q 2581 3413 2879 3339 
Q 3178 3266 3463 3116 
L 3300 2266 
L 2966 2266 
Q 2966 2309 2966 2347 
Q 2966 2722 2803 2903 
Q 2622 3103 2213 3103 
Q 1747 3103 1439 2742 
Q 1131 2381 991 1663 
Q 928 1334 928 1078 
Q 928 778 1016 581 
Q 1181 219 1650 219 
Q 2022 219 2281 412 
Q 2541 606 2700 997 
L 3163 997 
z
" transform="scale(0.015625)"/>
       <path id="DejaVuSerif-Italic-76" d="M 1681 0 
L 1259 0 
L 619 2988 
L 241 2988 
L 303 3322 
L 1163 3322 
L 1725 703 
Q 2084 1016 2325 1413 
Q 2825 2238 3003 2988 
L 2622 2988 
L 2688 3322 
L 3547 3322 
Q 3206 2034 2775 1313 
Q 2400 688 1681 0 
z
" transform="scale(0.015625)"/>
      </defs>
      <use xlink:href="#DejaVuSerif-Italic-43"/>
      <use xlink:href="#DejaVuSerif-Italic-6f" transform="translate(76.513672 0)"/>
      <use xlink:href="#DejaVuSerif-Italic-73" transform="translate(136.71875 0)"/>
      <use xlink:href="#DejaVuSerif-Italic-74" transform="translate(188.037109 0)"/>
      <use xlink:href="#DejaVuSerif-Italic-20" transform="translate(228.222656 0)"/>
      <use xlink:href="#DejaVuSerif-Italic-6f" transform="translate(260.009766 0)"/>
      <use xlink:href="#DejaVuSerif-Italic-62" transform="translate(320.214844 0)"/>
      <use xlink:href="#DejaVuSerif-Italic-6a" transform="translate(384.228516 0)"/>
      <use xlink:href="#DejaVuSerif-Italic-65" transform="translate(415.234375 0)"/>
      <use xlink:href="#DejaVuSerif-Italic-63" transform="translate(474.414062 0)"/>
      <use xlink:href="#DejaVuSerif-Italic-74" transform="translate(530.419922 0)"/>
      <use xlink:href="#DejaVuSerif-Italic-69" transform="translate(570.605469 0)"/>
      <use xlink:href="#DejaVuSerif-Italic-76" transform="translate(602.587891 0)"/>
      <use xlink:href="#DejaVuSerif-Italic-65" transform="translate(659.082031 0)"/>
      <use xlink:href="#DejaVuSerif-Italic-20" transform="translate(718.261719 0)"/>
      <use xlink:href="#DejaVuSerif-Italic-5b" transform="translate(750.048828 0)"/>
      <use xlink:href="#DejaVuSerif-Italic-2d" transform="translate(789.0625 0)"/>
      <use xlink:href="#DejaVuSerif-Italic-5d" transform="translate(822.851562 0)"/>
     </g>
    </g>
   </g>
   <g id="line2d_118">
    <path d="M 98.181818 373.090909 
L 100.46844 372.929475 
L 102.755062 372.925516 
L 105.041683 371.976415 
L 107.328305 371.684498 
L 109.614927 371.219335 
L 111.901548 369.89708 
L 114.18817 369.065101 
L 116.474792 368.505287 
L 118.761413 368.108273 
L 123.334657 367.491874 
L 127.9079 366.543872 
L 130.194522 366.624218 
L 132.481143 366.380965 
L 134.767765 365.563754 
L 137.054387 365.693924 
L 139.341008 365.331614 
L 141.62763 365.508648 
L 143.914252 365.452265 
L 146.200873 364.867607 
L 148.487495 365.41937 
L 150.774117 365.031492 
L 153.060738 365.522933 
L 162.207225 365.223845 
L 164.493847 364.875632 
L 166.780468 364.229923 
L 169.06709 362.867828 
L 171.353712 362.45347 
L 173.640333 361.758958 
L 178.213577 359.963768 
L 180.500198 359.659664 
L 182.78682 358.108029 
L 185.073442 357.027419 
L 187.360064 355.666007 
L 189.646685 354.70825 
L 191.933307 354.40576 
L 194.219929 354.989292 
L 198.793172 353.727529 
L 203.366415 354.070317 
L 205.653037 352.630812 
L 207.939659 352.077836 
L 210.22628 353.558168 
L 212.512902 353.051919 
L 214.799524 354.048464 
L 217.086145 353.814345 
L 219.372767 351.490699 
L 221.659389 351.903495 
L 223.94601 351.93914 
L 226.232632 349.880934 
L 228.519254 352.007626 
L 230.805875 354.942149 
L 233.092497 363.88592 
L 235.379119 365.672218 
L 237.66574 366.760904 
L 239.952362 367.243121 
L 242.238984 367.015089 
L 244.525605 367.023636 
L 246.812227 349.311375 
L 249.098849 354.506612 
L 251.38547 326.689992 
L 253.672092 334.82051 
L 255.958714 357.441583 
L 258.245335 356.414869 
L 260.531957 352.01043 
L 262.818579 355.136771 
L 265.1052 362.509011 
L 267.391822 361.4067 
L 269.678444 358.33064 
L 271.965066 359.88259 
L 274.251687 359.823866 
L 276.538309 357.002183 
L 281.111552 360.420467 
L 283.398174 361.893296 
L 285.684796 360.90455 
L 287.971417 360.568954 
L 290.258039 361.29068 
L 292.544661 363.340321 
L 294.831282 362.963669 
L 297.117904 361.470081 
L 299.404526 361.929774 
L 301.691147 363.258939 
L 303.977769 363.260706 
L 306.264391 360.984499 
L 308.551012 361.449057 
L 310.837634 361.077828 
L 313.124256 361.464026 
L 315.410877 357.688348 
L 317.697499 358.506952 
L 319.984121 366.054378 
L 322.270742 364.228418 
L 324.557364 351.783839 
L 326.843986 354.687666 
L 329.130607 360.79408 
L 331.417229 364.536343 
L 335.990472 367.06133 
L 338.277094 367.345488 
L 347.423581 367.420276 
L 351.996824 367.729582 
L 356.570067 368.317002 
L 358.856689 369.156302 
L 374.863041 369.19114 
L 390.869393 369.73712 
L 402.302501 369.762979 
L 416.022231 369.757885 
L 418.308853 366.728681 
L 420.595474 366.452584 
L 422.882096 365.223991 
L 425.168718 369.756672 
L 445.748313 369.744145 
L 448.034934 364.240299 
L 450.321556 359.984048 
L 452.608178 359.746539 
L 454.8948 369.743352 
L 489.194125 369.821308 
L 491.480746 368.397893 
L 493.767368 364.289935 
L 496.05399 360.785295 
L 498.340611 369.820348 
L 505.200476 369.819781 
L 507.487098 369.686641 
L 509.77372 362.408598 
L 512.060341 361.305974 
L 514.346963 360.657655 
L 518.920206 359.704735 
L 521.206828 353.355884 
L 523.49345 353.059543 
L 525.780071 352.932195 
L 528.066693 353.992798 
L 530.353315 354.729463 
L 532.639936 354.729463 
L 534.926558 354.597246 
L 537.21318 143.202211 
L 539.499802 301.302738 
L 541.786423 267.619997 
L 544.073045 58.909091 
L 546.359667 187.798683 
L 548.646288 341.929377 
L 550.93291 367.679165 
L 553.219532 369.204944 
L 557.792775 366.175211 
L 560.079397 366.520515 
L 562.366018 360.871876 
L 564.65264 361.024071 
L 566.939262 356.426588 
L 569.225883 356.737622 
L 571.512505 356.737622 
L 573.799127 358.67066 
L 576.085748 361.550865 
L 578.37237 363.848207 
L 580.658992 367.317451 
L 582.945613 369.159073 
L 585.232235 370.397487 
L 587.518857 370.985105 
L 589.805478 371.286473 
L 594.378722 371.514782 
L 605.81183 371.57703 
L 621.818182 371.581419 
L 621.818182 371.581419 
" clip-path="url(#p0e6e6cb813)" style="fill: none; stroke: #004d99; stroke-width: 1.5; stroke-linecap: square"/>
   </g>
   <g id="patch_3">
    <path d="M 72 388.8 
L 72 43.2 
" style="fill: none; stroke: #000000; stroke-width: 0.8; stroke-linejoin: miter; stroke-linecap: square"/>
   </g>
   <g id="patch_4">
    <path d="M 648 388.8 
L 648 43.2 
" style="fill: none; stroke: #000000; stroke-width: 0.8; stroke-linejoin: miter; stroke-linecap: square"/>
   </g>
   <g id="patch_5">
    <path d="M 72 388.8 
L 648 388.8 
" style="fill: none; stroke: #000000; stroke-width: 0.8; stroke-linejoin: miter; stroke-linecap: square"/>
   </g>
   <g id="patch_6">
    <path d="M 72 43.2 
L 648 43.2 
" style="fill: none; stroke: #000000; stroke-width: 0.8; stroke-linejoin: miter; stroke-linecap: square"/>
   </g>
   <g id="text_16">
    <!-- Objective evolution -->
    <g transform="translate(72 37.2) scale(0.16 -0.16)">
     <defs>
      <path id="DejaVuSerif-Bold-4f" d="M 2784 288 
Q 3381 288 3672 791 
Q 3963 1294 3963 2328 
Q 3963 3366 3672 3869 
Q 3381 4372 2784 4372 
Q 2191 4372 1898 3864 
Q 1606 3356 1606 2328 
Q 1606 1303 1898 795 
Q 2191 288 2784 288 
z
M 2784 -91 
Q 1606 -91 937 553 
Q 269 1197 269 2328 
Q 269 3459 939 4104 
Q 1609 4750 2784 4750 
Q 3963 4750 4631 4106 
Q 5300 3463 5300 2328 
Q 5300 1197 4629 553 
Q 3959 -91 2784 -91 
z
" transform="scale(0.015625)"/>
      <path id="DejaVuSerif-Bold-62" d="M 622 378 
L 622 4488 
L 147 4488 
L 147 4863 
L 1728 4863 
L 1728 2900 
Q 1869 3159 2106 3286 
Q 2344 3413 2694 3413 
Q 3403 3413 3811 2945 
Q 4219 2478 4219 1663 
Q 4219 847 3811 378 
Q 3403 -91 2694 -91 
Q 2344 -91 2106 36 
Q 1869 163 1728 422 
L 1728 0 
L 147 0 
L 147 378 
L 622 378 
z
M 1728 1497 
Q 1728 916 1876 656 
Q 2025 397 2356 397 
Q 2697 397 2836 672 
Q 2975 947 2975 1663 
Q 2975 2378 2836 2651 
Q 2697 2925 2356 2925 
Q 2025 2925 1876 2665 
Q 1728 2406 1728 1825 
L 1728 1497 
z
" transform="scale(0.015625)"/>
      <path id="DejaVuSerif-Bold-6a" d="M 556 4263 
Q 556 4516 729 4689 
Q 903 4863 1159 4863 
Q 1403 4863 1578 4688 
Q 1753 4513 1753 4263 
Q 1753 4016 1579 3842 
Q 1406 3669 1159 3669 
Q 906 3669 731 3841 
Q 556 4013 556 4263 
z
M 684 2944 
L 213 2944 
L 213 3322 
L 1791 3322 
L 1791 -391 
Q 1791 -900 1430 -1161 
Q 1069 -1422 366 -1422 
Q 178 -1422 -34 -1390 
Q -247 -1359 -475 -1300 
L -475 -594 
L -122 -597 
Q -116 -847 -23 -958 
Q 69 -1069 275 -1069 
Q 503 -1069 593 -922 
Q 684 -775 684 -391 
L 684 2944 
z
" transform="scale(0.015625)"/>
      <path id="DejaVuSerif-Bold-65" d="M 2566 1875 
Q 2566 2531 2444 2795 
Q 2322 3059 2028 3059 
Q 1744 3059 1620 2800 
Q 1497 2541 1497 1931 
L 1497 1875 
L 2566 1875 
z
M 3781 1503 
L 1497 1503 
L 1497 1478 
Q 1497 834 1690 548 
Q 1884 263 2316 263 
Q 2675 263 2897 453 
Q 3119 644 3181 1006 
L 3700 1006 
Q 3566 441 3166 175 
Q 2766 -91 2047 -91 
Q 1184 -91 723 364 
Q 263 819 263 1663 
Q 263 2488 734 2950 
Q 1206 3413 2047 3413 
Q 2872 3413 3312 2927 
Q 3753 2441 3781 1503 
z
" transform="scale(0.015625)"/>
      <path id="DejaVuSerif-Bold-63" d="M 3609 1038 
Q 3491 469 3123 189 
Q 2756 -91 2125 -91 
Q 1238 -91 750 368 
Q 263 828 263 1663 
Q 263 2488 744 2950 
Q 1225 3413 2081 3413 
Q 2428 3413 2781 3347 
Q 3134 3281 3500 3150 
L 3500 2228 
L 3150 2228 
Q 3100 2650 2903 2854 
Q 2706 3059 2350 3059 
Q 1888 3059 1692 2746 
Q 1497 2434 1497 1663 
Q 1497 909 1687 586 
Q 1878 263 2309 263 
Q 2644 263 2845 463 
Q 3047 663 3091 1038 
L 3609 1038 
z
" transform="scale(0.015625)"/>
      <path id="DejaVuSerif-Bold-74" d="M 634 2944 
L 153 2944 
L 153 3322 
L 634 3322 
L 634 4353 
L 1741 4353 
L 1741 3322 
L 2663 3322 
L 2663 2944 
L 1741 2944 
L 1741 909 
Q 1741 475 1809 369 
Q 1878 263 2059 263 
Q 2259 263 2356 397 
Q 2453 531 2459 813 
L 2925 813 
Q 2897 313 2651 111 
Q 2406 -91 1806 -91 
Q 1122 -91 878 123 
Q 634 338 634 909 
L 634 2944 
z
" transform="scale(0.015625)"/>
      <path id="DejaVuSerif-Bold-69" d="M 588 4263 
Q 588 4516 763 4689 
Q 938 4863 1191 4863 
Q 1438 4863 1611 4689 
Q 1784 4516 1784 4263 
Q 1784 4016 1611 3842 
Q 1438 3669 1191 3669 
Q 938 3669 763 3841 
Q 588 4013 588 4263 
z
M 1797 378 
L 2272 378 
L 2272 0 
L 219 0 
L 219 378 
L 691 378 
L 691 2944 
L 219 2944 
L 219 3322 
L 1797 3322 
L 1797 378 
z
" transform="scale(0.015625)"/>
      <path id="DejaVuSerif-Bold-76" d="M 1428 0 
L 250 2944 
L -116 2944 
L -116 3322 
L 1791 3322 
L 1791 2944 
L 1388 2944 
L 2228 844 
L 3066 2944 
L 2631 2944 
L 2631 3322 
L 3878 3322 
L 3878 2944 
L 3494 2944 
L 2316 0 
L 1428 0 
z
" transform="scale(0.015625)"/>
      <path id="DejaVuSerif-Bold-20" transform="scale(0.015625)"/>
      <path id="DejaVuSerif-Bold-6f" d="M 2138 263 
Q 2488 263 2630 563 
Q 2772 863 2772 1663 
Q 2772 2463 2631 2761 
Q 2491 3059 2138 3059 
Q 1784 3059 1640 2757 
Q 1497 2456 1497 1663 
Q 1497 869 1640 566 
Q 1784 263 2138 263 
z
M 2138 -91 
Q 1259 -91 761 376 
Q 263 844 263 1663 
Q 263 2484 761 2948 
Q 1259 3413 2138 3413 
Q 3019 3413 3516 2948 
Q 4013 2484 4013 1663 
Q 4013 844 3514 376 
Q 3016 -91 2138 -91 
z
" transform="scale(0.015625)"/>
      <path id="DejaVuSerif-Bold-6c" d="M 1797 378 
L 2272 378 
L 2272 0 
L 219 0 
L 219 378 
L 691 378 
L 691 4488 
L 219 4488 
L 219 4863 
L 1797 4863 
L 1797 378 
z
" transform="scale(0.015625)"/>
      <path id="DejaVuSerif-Bold-75" d="M 3963 3322 
L 3963 378 
L 4434 378 
L 4434 0 
L 2853 0 
L 2853 469 
Q 2656 172 2400 40 
Q 2144 -91 1753 -91 
Q 1194 -91 908 239 
Q 622 569 622 1209 
L 622 2944 
L 147 2944 
L 147 3322 
L 1728 3322 
L 1728 1381 
Q 1728 763 1831 595 
Q 1934 428 2209 428 
Q 2544 428 2698 675 
Q 2853 922 2853 1459 
L 2853 2944 
L 2450 2944 
L 2450 3322 
L 3963 3322 
z
" transform="scale(0.015625)"/>
      <path id="DejaVuSerif-Bold-6e" d="M 219 0 
L 219 378 
L 691 378 
L 691 2944 
L 219 2944 
L 219 3322 
L 1797 3322 
L 1797 2853 
Q 1997 3150 2253 3281 
Q 2509 3413 2900 3413 
Q 3459 3413 3745 3083 
Q 4031 2753 4031 2113 
L 4031 378 
L 4506 378 
L 4506 0 
L 2522 0 
L 2522 378 
L 2925 378 
L 2925 2144 
Q 2925 2566 2817 2730 
Q 2709 2894 2444 2894 
Q 2109 2894 1953 2648 
Q 1797 2403 1797 1869 
L 1797 378 
L 2203 378 
L 2203 0 
L 219 0 
z
" transform="scale(0.015625)"/>
     </defs>
     <use xlink:href="#DejaVuSerif-Bold-4f"/>
     <use xlink:href="#DejaVuSerif-Bold-62" transform="translate(87.109375 0)"/>
     <use xlink:href="#DejaVuSerif-Bold-6a" transform="translate(157.03125 0)"/>
     <use xlink:href="#DejaVuSerif-Bold-65" transform="translate(193.212891 0)"/>
     <use xlink:href="#DejaVuSerif-Bold-63" transform="translate(256.835938 0)"/>
     <use xlink:href="#DejaVuSerif-Bold-74" transform="translate(317.724609 0)"/>
     <use xlink:href="#DejaVuSerif-Bold-69" transform="translate(363.916016 0)"/>
     <use xlink:href="#DejaVuSerif-Bold-76" transform="translate(401.904297 0)"/>
     <use xlink:href="#DejaVuSerif-Bold-65" transform="translate(460.009766 0)"/>
     <use xlink:href="#DejaVuSerif-Bold-20" transform="translate(523.632812 0)"/>
     <use xlink:href="#DejaVuSerif-Bold-65" transform="translate(558.447266 0)"/>
     <use xlink:href="#DejaVuSerif-Bold-76" transform="translate(622.070312 0)"/>
     <use xlink:href="#DejaVuSerif-Bold-6f" transform="translate(680.175781 0)"/>
     <use xlink:href="#DejaVuSerif-Bold-6c" transform="translate(746.875 0)"/>
     <use xlink:href="#DejaVuSerif-Bold-75" transform="translate(784.863281 0)"/>
     <use xlink:href="#DejaVuSerif-Bold-74" transform="translate(857.568359 0)"/>
     <use xlink:href="#DejaVuSerif-Bold-69" transform="translate(903.759766 0)"/>
     <use xlink:href="#DejaVuSerif-Bold-6f" transform="translate(941.748047 0)"/>
     <use xlink:href="#DejaVuSerif-Bold-6e" transform="translate(1008.447266 0)"/>
    </g>
   </g>
   <g id="legend_1">
    <g id="patch_7">
     <path d="M 666.52 65.878125 
L 728.529375 65.878125 
Q 730.529375 65.878125 730.529375 63.878125 
L 730.529375 50.2 
Q 730.529375 48.2 728.529375 48.2 
L 666.52 48.2 
Q 664.52 48.2 664.52 50.2 
L 664.52 63.878125 
Q 664.52 65.878125 666.52 65.878125 
z
" style="fill: #ffffff; opacity: 0.8; stroke: #cccccc; stroke-linejoin: miter"/>
    </g>
    <g id="line2d_119">
     <path d="M 668.52 56.298438 
L 678.52 56.298438 
L 688.52 56.298438 
" style="fill: none; stroke: #004d99; stroke-width: 1.5; stroke-linecap: square"/>
    </g>
    <g id="text_17">
     <!-- Cost J -->
     <g transform="translate(696.52 59.798438) scale(0.1 -0.1)">
      <defs>
       <path id="DejaVuSerif-43" d="M 4513 1234 
Q 4306 581 3820 245 
Q 3334 -91 2591 -91 
Q 2134 -91 1743 65 
Q 1353 222 1050 525 
Q 700 875 529 1320 
Q 359 1766 359 2328 
Q 359 3416 987 4083 
Q 1616 4750 2644 4750 
Q 3025 4750 3456 4650 
Q 3888 4550 4384 4347 
L 4384 3272 
L 4031 3272 
Q 3916 3859 3567 4137 
Q 3219 4416 2591 4416 
Q 1844 4416 1459 3886 
Q 1075 3356 1075 2328 
Q 1075 1303 1459 773 
Q 1844 244 2591 244 
Q 3113 244 3450 492 
Q 3788 741 3938 1234 
L 4513 1234 
z
" transform="scale(0.015625)"/>
       <path id="DejaVuSerif-6f" d="M 1925 219 
Q 2388 219 2623 584 
Q 2859 950 2859 1663 
Q 2859 2375 2623 2739 
Q 2388 3103 1925 3103 
Q 1463 3103 1227 2739 
Q 991 2375 991 1663 
Q 991 950 1228 584 
Q 1466 219 1925 219 
z
M 1925 -91 
Q 1200 -91 759 389 
Q 319 869 319 1663 
Q 319 2456 758 2934 
Q 1197 3413 1925 3413 
Q 2653 3413 3092 2934 
Q 3531 2456 3531 1663 
Q 3531 869 3092 389 
Q 2653 -91 1925 -91 
z
" transform="scale(0.015625)"/>
       <path id="DejaVuSerif-73" d="M 359 184 
L 359 959 
L 691 959 
Q 703 588 923 403 
Q 1144 219 1575 219 
Q 1963 219 2166 364 
Q 2369 509 2369 788 
Q 2369 1006 2220 1140 
Q 2072 1275 1594 1428 
L 1178 1569 
Q 750 1706 558 1912 
Q 366 2119 366 2438 
Q 366 2894 700 3153 
Q 1034 3413 1625 3413 
Q 1888 3413 2178 3344 
Q 2469 3275 2778 3144 
L 2778 2419 
L 2447 2419 
Q 2434 2741 2221 2922 
Q 2009 3103 1644 3103 
Q 1281 3103 1095 2975 
Q 909 2847 909 2591 
Q 909 2381 1050 2254 
Q 1191 2128 1613 1997 
L 2069 1856 
Q 2541 1709 2748 1489 
Q 2956 1269 2956 922 
Q 2956 450 2595 179 
Q 2234 -91 1600 -91 
Q 1278 -91 972 -22 
Q 666 47 359 184 
z
" transform="scale(0.015625)"/>
       <path id="DejaVuSerif-74" d="M 691 2988 
L 184 2988 
L 184 3322 
L 691 3322 
L 691 4353 
L 1269 4353 
L 1269 3322 
L 2350 3322 
L 2350 2988 
L 1269 2988 
L 1269 878 
Q 1269 456 1350 337 
Q 1431 219 1650 219 
Q 1875 219 1978 351 
Q 2081 484 2088 781 
L 2522 781 
Q 2497 328 2275 118 
Q 2053 -91 1600 -91 
Q 1103 -91 897 129 
Q 691 350 691 878 
L 691 2988 
z
" transform="scale(0.015625)"/>
       <path id="DejaVuSerif-20" transform="scale(0.015625)"/>
       <path id="DejaVuSerif-4a" d="M -538 -1119 
L -538 -384 
L -181 -384 
Q -172 -694 -34 -845 
Q 103 -997 378 -997 
Q 750 -997 897 -762 
Q 1044 -528 1044 153 
L 1044 4331 
L 319 4331 
L 319 4666 
L 2272 4666 
L 2272 4331 
L 1678 4331 
L 1678 128 
Q 1678 -644 1368 -987 
Q 1059 -1331 372 -1331 
Q 150 -1331 -79 -1278 
Q -309 -1225 -538 -1119 
z
" transform="scale(0.015625)"/>
      </defs>
      <use xlink:href="#DejaVuSerif-43"/>
      <use xlink:href="#DejaVuSerif-6f" transform="translate(76.513672 0)"/>
      <use xlink:href="#DejaVuSerif-73" transform="translate(136.71875 0)"/>
      <use xlink:href="#DejaVuSerif-74" transform="translate(188.037109 0)"/>
      <use xlink:href="#DejaVuSerif-20" transform="translate(228.222656 0)"/>
      <use xlink:href="#DejaVuSerif-4a" transform="translate(260.009766 0)"/>
     </g>
    </g>
   </g>
  </g>
  <g id="text_18">
   <!-- Computation time: 16.228 s -->
   <g transform="translate(72 399.437813) scale(0.14 -0.14)">
    <defs>
     <path id="DejaVuSerif-6d" d="M 3316 2675 
Q 3481 3041 3739 3227 
Q 3997 3413 4341 3413 
Q 4863 3413 5119 3089 
Q 5375 2766 5375 2113 
L 5375 331 
L 5894 331 
L 5894 0 
L 4300 0 
L 4300 331 
L 4800 331 
L 4800 2047 
Q 4800 2556 4650 2772 
Q 4500 2988 4153 2988 
Q 3769 2988 3567 2697 
Q 3366 2406 3366 1850 
L 3366 331 
L 3866 331 
L 3866 0 
L 2291 0 
L 2291 331 
L 2791 331 
L 2791 2069 
Q 2791 2566 2641 2777 
Q 2491 2988 2144 2988 
Q 1759 2988 1557 2697 
Q 1356 2406 1356 1850 
L 1356 331 
L 1856 331 
L 1856 0 
L 263 0 
L 263 331 
L 781 331 
L 781 2994 
L 231 2994 
L 231 3322 
L 1356 3322 
L 1356 2731 
Q 1516 3063 1762 3238 
Q 2009 3413 2322 3413 
Q 2709 3413 2968 3220 
Q 3228 3028 3316 2675 
z
" transform="scale(0.015625)"/>
     <path id="DejaVuSerif-70" d="M 1313 1825 
L 1313 1497 
Q 1313 897 1542 583 
Q 1772 269 2209 269 
Q 2650 269 2876 622 
Q 3103 975 3103 1663 
Q 3103 2353 2876 2703 
Q 2650 3053 2209 3053 
Q 1772 3053 1542 2737 
Q 1313 2422 1313 1825 
z
M 738 2988 
L 184 2988 
L 184 3322 
L 1313 3322 
L 1313 2803 
Q 1481 3116 1742 3264 
Q 2003 3413 2388 3413 
Q 3000 3413 3387 2928 
Q 3775 2444 3775 1663 
Q 3775 881 3387 395 
Q 3000 -91 2388 -91 
Q 2003 -91 1742 57 
Q 1481 206 1313 519 
L 1313 -997 
L 1856 -997 
L 1856 -1331 
L 184 -1331 
L 184 -997 
L 738 -997 
L 738 2988 
z
" transform="scale(0.015625)"/>
     <path id="DejaVuSerif-75" d="M 2266 3322 
L 3341 3322 
L 3341 331 
L 3884 331 
L 3884 0 
L 2766 0 
L 2766 588 
Q 2606 256 2353 82 
Q 2100 -91 1766 -91 
Q 1213 -91 952 223 
Q 691 538 691 1209 
L 691 2988 
L 172 2988 
L 172 3322 
L 1269 3322 
L 1269 1388 
Q 1269 781 1417 556 
Q 1566 331 1947 331 
Q 2347 331 2556 625 
Q 2766 919 2766 1478 
L 2766 2988 
L 2266 2988 
L 2266 3322 
z
" transform="scale(0.015625)"/>
     <path id="DejaVuSerif-61" d="M 2547 1044 
L 2547 1747 
L 1806 1747 
Q 1378 1747 1168 1562 
Q 959 1378 959 997 
Q 959 650 1171 447 
Q 1384 244 1747 244 
Q 2106 244 2326 466 
Q 2547 688 2547 1044 
z
M 3122 2075 
L 3122 331 
L 3634 331 
L 3634 0 
L 2547 0 
L 2547 359 
Q 2356 128 2106 18 
Q 1856 -91 1522 -91 
Q 969 -91 644 203 
Q 319 497 319 997 
Q 319 1513 691 1797 
Q 1063 2081 1741 2081 
L 2547 2081 
L 2547 2309 
Q 2547 2688 2317 2895 
Q 2088 3103 1672 3103 
Q 1328 3103 1125 2947 
Q 922 2791 872 2484 
L 575 2484 
L 575 3156 
Q 875 3284 1158 3348 
Q 1441 3413 1709 3413 
Q 2400 3413 2761 3070 
Q 3122 2728 3122 2075 
z
" transform="scale(0.015625)"/>
     <path id="DejaVuSerif-69" d="M 622 4353 
Q 622 4497 726 4603 
Q 831 4709 978 4709 
Q 1122 4709 1226 4603 
Q 1331 4497 1331 4353 
Q 1331 4206 1228 4103 
Q 1125 4000 978 4000 
Q 831 4000 726 4103 
Q 622 4206 622 4353 
z
M 1356 331 
L 1900 331 
L 1900 0 
L 231 0 
L 231 331 
L 781 331 
L 781 2988 
L 231 2988 
L 231 3322 
L 1356 3322 
L 1356 331 
z
" transform="scale(0.015625)"/>
     <path id="DejaVuSerif-6e" d="M 263 0 
L 263 331 
L 781 331 
L 781 2988 
L 231 2988 
L 231 3322 
L 1356 3322 
L 1356 2731 
Q 1516 3069 1770 3241 
Q 2025 3413 2363 3413 
Q 2913 3413 3172 3097 
Q 3431 2781 3431 2113 
L 3431 331 
L 3944 331 
L 3944 0 
L 2356 0 
L 2356 331 
L 2853 331 
L 2853 1931 
Q 2853 2541 2703 2767 
Q 2553 2994 2175 2994 
Q 1775 2994 1565 2701 
Q 1356 2409 1356 1850 
L 1356 331 
L 1856 331 
L 1856 0 
L 263 0 
z
" transform="scale(0.015625)"/>
     <path id="DejaVuSerif-65" d="M 3469 1600 
L 991 1600 
L 991 1575 
Q 991 903 1244 561 
Q 1497 219 1991 219 
Q 2369 219 2611 417 
Q 2853 616 2950 1006 
L 3413 1006 
Q 3275 459 2904 184 
Q 2534 -91 1931 -91 
Q 1203 -91 761 389 
Q 319 869 319 1663 
Q 319 2450 753 2931 
Q 1188 3413 1894 3413 
Q 2647 3413 3050 2948 
Q 3453 2484 3469 1600 
z
M 2791 1931 
Q 2772 2513 2545 2808 
Q 2319 3103 1894 3103 
Q 1497 3103 1269 2806 
Q 1041 2509 991 1931 
L 2791 1931 
z
" transform="scale(0.015625)"/>
     <path id="DejaVuSerif-3a" d="M 666 325 
Q 666 500 786 622 
Q 906 744 1081 744 
Q 1256 744 1376 622 
Q 1497 500 1497 325 
Q 1497 150 1378 29 
Q 1259 -91 1081 -91 
Q 903 -91 784 29 
Q 666 150 666 325 
z
M 666 2363 
Q 666 2538 786 2658 
Q 906 2778 1081 2778 
Q 1259 2778 1378 2659 
Q 1497 2541 1497 2363 
Q 1497 2184 1378 2065 
Q 1259 1947 1081 1947 
Q 906 1947 786 2067 
Q 666 2188 666 2363 
z
" transform="scale(0.015625)"/>
     <path id="DejaVuSerif-31" d="M 909 0 
L 909 331 
L 1722 331 
L 1722 4213 
L 781 3603 
L 781 4013 
L 1919 4750 
L 2350 4750 
L 2350 331 
L 3163 331 
L 3163 0 
L 909 0 
z
" transform="scale(0.015625)"/>
     <path id="DejaVuSerif-36" d="M 2094 219 
Q 2534 219 2771 542 
Q 3009 866 3009 1472 
Q 3009 2078 2771 2401 
Q 2534 2725 2094 2725 
Q 1647 2725 1412 2412 
Q 1178 2100 1178 1509 
Q 1178 888 1415 553 
Q 1653 219 2094 219 
z
M 1075 2569 
Q 1288 2803 1556 2918 
Q 1825 3034 2163 3034 
Q 2859 3034 3264 2615 
Q 3669 2197 3669 1472 
Q 3669 763 3233 336 
Q 2797 -91 2069 -91 
Q 1278 -91 853 498 
Q 428 1088 428 2181 
Q 428 3406 931 4078 
Q 1434 4750 2350 4750 
Q 2597 4750 2869 4703 
Q 3141 4656 3425 4563 
L 3425 3794 
L 3072 3794 
Q 3034 4109 2831 4275 
Q 2628 4441 2284 4441 
Q 1678 4441 1381 3981 
Q 1084 3522 1075 2569 
z
" transform="scale(0.015625)"/>
     <path id="DejaVuSerif-2e" d="M 603 325 
Q 603 500 722 622 
Q 841 744 1019 744 
Q 1191 744 1312 622 
Q 1434 500 1434 325 
Q 1434 153 1312 31 
Q 1191 -91 1019 -91 
Q 841 -91 722 29 
Q 603 150 603 325 
z
" transform="scale(0.015625)"/>
     <path id="DejaVuSerif-32" d="M 819 3553 
L 469 3553 
L 469 4384 
Q 803 4563 1142 4656 
Q 1481 4750 1806 4750 
Q 2534 4750 2956 4397 
Q 3378 4044 3378 3438 
Q 3378 2753 2422 1800 
Q 2347 1728 2309 1691 
L 1131 513 
L 3078 513 
L 3078 1088 
L 3444 1088 
L 3444 0 
L 434 0 
L 434 341 
L 1850 1753 
Q 2319 2222 2519 2614 
Q 2719 3006 2719 3438 
Q 2719 3909 2473 4175 
Q 2228 4441 1797 4441 
Q 1350 4441 1106 4219 
Q 863 3997 819 3553 
z
" transform="scale(0.015625)"/>
     <path id="DejaVuSerif-38" d="M 2981 1275 
Q 2981 1775 2732 2051 
Q 2484 2328 2034 2328 
Q 1584 2328 1336 2051 
Q 1088 1775 1088 1275 
Q 1088 772 1336 495 
Q 1584 219 2034 219 
Q 2484 219 2732 495 
Q 2981 772 2981 1275 
z
M 2853 3541 
Q 2853 3966 2637 4203 
Q 2422 4441 2034 4441 
Q 1650 4441 1433 4203 
Q 1216 3966 1216 3541 
Q 1216 3113 1433 2875 
Q 1650 2638 2034 2638 
Q 2422 2638 2637 2875 
Q 2853 3113 2853 3541 
z
M 2516 2484 
Q 3047 2413 3344 2092 
Q 3641 1772 3641 1275 
Q 3641 619 3225 264 
Q 2809 -91 2034 -91 
Q 1263 -91 845 264 
Q 428 619 428 1275 
Q 428 1772 725 2092 
Q 1022 2413 1556 2484 
Q 1084 2569 832 2842 
Q 581 3116 581 3541 
Q 581 4103 968 4426 
Q 1356 4750 2034 4750 
Q 2713 4750 3100 4426 
Q 3488 4103 3488 3541 
Q 3488 3116 3236 2842 
Q 2984 2569 2516 2484 
z
" transform="scale(0.015625)"/>
    </defs>
    <use xlink:href="#DejaVuSerif-43"/>
    <use xlink:href="#DejaVuSerif-6f" transform="translate(76.513672 0)"/>
    <use xlink:href="#DejaVuSerif-6d" transform="translate(136.71875 0)"/>
    <use xlink:href="#DejaVuSerif-70" transform="translate(231.542969 0)"/>
    <use xlink:href="#DejaVuSerif-75" transform="translate(295.556641 0)"/>
    <use xlink:href="#DejaVuSerif-74" transform="translate(359.960938 0)"/>
    <use xlink:href="#DejaVuSerif-61" transform="translate(400.146484 0)"/>
    <use xlink:href="#DejaVuSerif-74" transform="translate(459.765625 0)"/>
    <use xlink:href="#DejaVuSerif-69" transform="translate(499.951172 0)"/>
    <use xlink:href="#DejaVuSerif-6f" transform="translate(531.933594 0)"/>
    <use xlink:href="#DejaVuSerif-6e" transform="translate(592.138672 0)"/>
    <use xlink:href="#DejaVuSerif-20" transform="translate(656.542969 0)"/>
    <use xlink:href="#DejaVuSerif-74" transform="translate(688.330078 0)"/>
    <use xlink:href="#DejaVuSerif-69" transform="translate(728.515625 0)"/>
    <use xlink:href="#DejaVuSerif-6d" transform="translate(760.498047 0)"/>
    <use xlink:href="#DejaVuSerif-65" transform="translate(855.322266 0)"/>
    <use xlink:href="#DejaVuSerif-3a" transform="translate(914.501953 0)"/>
    <use xlink:href="#DejaVuSerif-20" transform="translate(948.193359 0)"/>
    <use xlink:href="#DejaVuSerif-31" transform="translate(979.980469 0)"/>
    <use xlink:href="#DejaVuSerif-36" transform="translate(1043.603516 0)"/>
    <use xlink:href="#DejaVuSerif-2e" transform="translate(1107.226562 0)"/>
    <use xlink:href="#DejaVuSerif-32" transform="translate(1139.013672 0)"/>
    <use xlink:href="#DejaVuSerif-32" transform="translate(1202.636719 0)"/>
    <use xlink:href="#DejaVuSerif-38" transform="translate(1266.259766 0)"/>
    <use xlink:href="#DejaVuSerif-20" transform="translate(1329.882812 0)"/>
    <use xlink:href="#DejaVuSerif-73" transform="translate(1361.669922 0)"/>
   </g>
  </g>
 </g>
 <defs>
  <clipPath id="p0e6e6cb813">
   <rect x="72" y="43.2" width="576" height="345.6"/>
  </clipPath>
 </defs>
</svg>
