<?xml version="1.0" encoding="utf-8" standalone="no"?>
<!DOCTYPE svg PUBLIC "-//W3C//DTD SVG 1.1//EN"
  "http://www.w3.org/Graphics/SVG/1.1/DTD/svg11.dtd">
<svg xmlns:xlink="http://www.w3.org/1999/xlink" width="864pt" height="576pt" viewBox="0 0 864 576" xmlns="http://www.w3.org/2000/svg" version="1.1">
 <metadata>
  <rdf:RDF xmlns:dc="http://purl.org/dc/elements/1.1/" xmlns:cc="http://creativecommons.org/ns#" xmlns:rdf="http://www.w3.org/1999/02/22-rdf-syntax-ns#">
   <cc:Work>
    <dc:type rdf:resource="http://purl.org/dc/dcmitype/StillImage"/>
    <dc:date>2025-12-04T19:27:22.141437</dc:date>
    <dc:format>image/svg+xml</dc:format>
    <dc:creator>
     <cc:Agent>
      <dc:title>Matplotlib v3.10.7, https://matplotlib.org/</dc:title>
     </cc:Agent>
    </dc:creator>
   </cc:Work>
  </rdf:RDF>
 </metadata>
 <defs>
  <style type="text/css">*{stroke-linejoin: round; stroke-linecap: butt}</style>
 </defs>
 <g id="figure_1">
  <g id="patch_1">
   <path d="M 0 576 
L 864 576 
L 864 0 
L 0 0 
z
" style="fill: #ffffff"/>
  </g>
  <g id="axes_1">
   <g id="patch_2">
    <path d="M 86.4 460.8 
L 734.4 460.8 
L 734.4 86.4 
L 86.4 86.4 
z
" style="fill: #ffffff"/>
   </g>
   <g id="matplotlib.axis_1">
    <g id="xtick_1">
     <g id="line2d_1">
      <defs>
       <path id="m2c52155631" d="M 0 0 
L 0 3.5 
" style="stroke: #000000; stroke-width: 0.8"/>
      </defs>
      <g>
       <use xlink:href="#m2c52155631" x="115.854545" y="460.8" style="stroke: #000000; stroke-width: 0.8"/>
      </g>
     </g>
     <g id="text_1">
      <!-- 0 -->
      <g transform="translate(112.673295 475.398437) scale(0.1 -0.1)">
       <defs>
        <path id="DejaVuSans-30" d="M 2034 4250 
Q 1547 4250 1301 3770 
Q 1056 3291 1056 2328 
Q 1056 1369 1301 889 
Q 1547 409 2034 409 
Q 2525 409 2770 889 
Q 3016 1369 3016 2328 
Q 3016 3291 2770 3770 
Q 2525 4250 2034 4250 
z
M 2034 4750 
Q 2819 4750 3233 4129 
Q 3647 3509 3647 2328 
Q 3647 1150 3233 529 
Q 2819 -91 2034 -91 
Q 1250 -91 836 529 
Q 422 1150 422 2328 
Q 422 3509 836 4129 
Q 1250 4750 2034 4750 
z
" transform="scale(0.015625)"/>
       </defs>
       <use xlink:href="#DejaVuSans-30"/>
      </g>
     </g>
    </g>
    <g id="xtick_2">
     <g id="line2d_2">
      <g>
       <use xlink:href="#m2c52155631" x="253.171774" y="460.8" style="stroke: #000000; stroke-width: 0.8"/>
      </g>
     </g>
     <g id="text_2">
      <!-- 100 -->
      <g transform="translate(243.628024 475.398437) scale(0.1 -0.1)">
       <defs>
        <path id="DejaVuSans-31" d="M 794 531 
L 1825 531 
L 1825 4091 
L 703 3866 
L 703 4441 
L 1819 4666 
L 2450 4666 
L 2450 531 
L 3481 531 
L 3481 0 
L 794 0 
L 794 531 
z
" transform="scale(0.015625)"/>
       </defs>
       <use xlink:href="#DejaVuSans-31"/>
       <use xlink:href="#DejaVuSans-30" transform="translate(63.623047 0)"/>
       <use xlink:href="#DejaVuSans-30" transform="translate(127.246094 0)"/>
      </g>
     </g>
    </g>
    <g id="xtick_3">
     <g id="line2d_3">
      <g>
       <use xlink:href="#m2c52155631" x="390.489002" y="460.8" style="stroke: #000000; stroke-width: 0.8"/>
      </g>
     </g>
     <g id="text_3">
      <!-- 200 -->
      <g transform="translate(380.945252 475.398437) scale(0.1 -0.1)">
       <defs>
        <path id="DejaVuSans-32" d="M 1228 531 
L 3431 531 
L 3431 0 
L 469 0 
L 469 531 
Q 828 903 1448 1529 
Q 2069 2156 2228 2338 
Q 2531 2678 2651 2914 
Q 2772 3150 2772 3378 
Q 2772 3750 2511 3984 
Q 2250 4219 1831 4219 
Q 1534 4219 1204 4116 
Q 875 4013 500 3803 
L 500 4441 
Q 881 4594 1212 4672 
Q 1544 4750 1819 4750 
Q 2544 4750 2975 4387 
Q 3406 4025 3406 3419 
Q 3406 3131 3298 2873 
Q 3191 2616 2906 2266 
Q 2828 2175 2409 1742 
Q 1991 1309 1228 531 
z
" transform="scale(0.015625)"/>
       </defs>
       <use xlink:href="#DejaVuSans-32"/>
       <use xlink:href="#DejaVuSans-30" transform="translate(63.623047 0)"/>
       <use xlink:href="#DejaVuSans-30" transform="translate(127.246094 0)"/>
      </g>
     </g>
    </g>
    <g id="xtick_4">
     <g id="line2d_4">
      <g>
       <use xlink:href="#m2c52155631" x="527.80623" y="460.8" style="stroke: #000000; stroke-width: 0.8"/>
      </g>
     </g>
     <g id="text_4">
      <!-- 300 -->
      <g transform="translate(518.26248 475.398437) scale(0.1 -0.1)">
       <defs>
        <path id="DejaVuSans-33" d="M 2597 2516 
Q 3050 2419 3304 2112 
Q 3559 1806 3559 1356 
Q 3559 666 3084 287 
Q 2609 -91 1734 -91 
Q 1441 -91 1130 -33 
Q 819 25 488 141 
L 488 750 
Q 750 597 1062 519 
Q 1375 441 1716 441 
Q 2309 441 2620 675 
Q 2931 909 2931 1356 
Q 2931 1769 2642 2001 
Q 2353 2234 1838 2234 
L 1294 2234 
L 1294 2753 
L 1863 2753 
Q 2328 2753 2575 2939 
Q 2822 3125 2822 3475 
Q 2822 3834 2567 4026 
Q 2313 4219 1838 4219 
Q 1578 4219 1281 4162 
Q 984 4106 628 3988 
L 628 4550 
Q 988 4650 1302 4700 
Q 1616 4750 1894 4750 
Q 2613 4750 3031 4423 
Q 3450 4097 3450 3541 
Q 3450 3153 3228 2886 
Q 3006 2619 2597 2516 
z
" transform="scale(0.015625)"/>
       </defs>
       <use xlink:href="#DejaVuSans-33"/>
       <use xlink:href="#DejaVuSans-30" transform="translate(63.623047 0)"/>
       <use xlink:href="#DejaVuSans-30" transform="translate(127.246094 0)"/>
      </g>
     </g>
    </g>
    <g id="xtick_5">
     <g id="line2d_5">
      <g>
       <use xlink:href="#m2c52155631" x="665.123458" y="460.8" style="stroke: #000000; stroke-width: 0.8"/>
      </g>
     </g>
     <g id="text_5">
      <!-- 400 -->
      <g transform="translate(655.579708 475.398437) scale(0.1 -0.1)">
       <defs>
        <path id="DejaVuSans-34" d="M 2419 4116 
L 825 1625 
L 2419 1625 
L 2419 4116 
z
M 2253 4666 
L 3047 4666 
L 3047 1625 
L 3713 1625 
L 3713 1100 
L 3047 1100 
L 3047 0 
L 2419 0 
L 2419 1100 
L 313 1100 
L 313 1709 
L 2253 4666 
z
" transform="scale(0.015625)"/>
       </defs>
       <use xlink:href="#DejaVuSans-34"/>
       <use xlink:href="#DejaVuSans-30" transform="translate(63.623047 0)"/>
       <use xlink:href="#DejaVuSans-30" transform="translate(127.246094 0)"/>
      </g>
     </g>
    </g>
    <g id="xtick_6">
     <g id="line2d_6">
      <path d="M 88.3911 460.8 
L 88.3911 86.4 
" clip-path="url(#p3561b586b6)" style="fill: none; stroke-dasharray: 0.75,1.2375; stroke-dashoffset: 0; stroke: #808080; stroke-opacity: 0.75; stroke-width: 0.75"/>
     </g>
     <g id="line2d_7">
      <defs>
       <path id="m8014b34f78" d="M 0 0 
L 0 2 
" style="stroke: #000000; stroke-width: 0.6"/>
      </defs>
      <g>
       <use xlink:href="#m8014b34f78" x="88.3911" y="460.8" style="stroke: #000000; stroke-width: 0.6"/>
      </g>
     </g>
    </g>
    <g id="xtick_7">
     <g id="line2d_8">
      <path d="M 143.317991 460.8 
L 143.317991 86.4 
" clip-path="url(#p3561b586b6)" style="fill: none; stroke-dasharray: 0.75,1.2375; stroke-dashoffset: 0; stroke: #808080; stroke-opacity: 0.75; stroke-width: 0.75"/>
     </g>
     <g id="line2d_9">
      <g>
       <use xlink:href="#m8014b34f78" x="143.317991" y="460.8" style="stroke: #000000; stroke-width: 0.6"/>
      </g>
     </g>
    </g>
    <g id="xtick_8">
     <g id="line2d_10">
      <path d="M 170.781437 460.8 
L 170.781437 86.4 
" clip-path="url(#p3561b586b6)" style="fill: none; stroke-dasharray: 0.75,1.2375; stroke-dashoffset: 0; stroke: #808080; stroke-opacity: 0.75; stroke-width: 0.75"/>
     </g>
     <g id="line2d_11">
      <g>
       <use xlink:href="#m8014b34f78" x="170.781437" y="460.8" style="stroke: #000000; stroke-width: 0.6"/>
      </g>
     </g>
    </g>
    <g id="xtick_9">
     <g id="line2d_12">
      <path d="M 198.244882 460.8 
L 198.244882 86.4 
" clip-path="url(#p3561b586b6)" style="fill: none; stroke-dasharray: 0.75,1.2375; stroke-dashoffset: 0; stroke: #808080; stroke-opacity: 0.75; stroke-width: 0.75"/>
     </g>
     <g id="line2d_13">
      <g>
       <use xlink:href="#m8014b34f78" x="198.244882" y="460.8" style="stroke: #000000; stroke-width: 0.6"/>
      </g>
     </g>
    </g>
    <g id="xtick_10">
     <g id="line2d_14">
      <path d="M 225.708328 460.8 
L 225.708328 86.4 
" clip-path="url(#p3561b586b6)" style="fill: none; stroke-dasharray: 0.75,1.2375; stroke-dashoffset: 0; stroke: #808080; stroke-opacity: 0.75; stroke-width: 0.75"/>
     </g>
     <g id="line2d_15">
      <g>
       <use xlink:href="#m8014b34f78" x="225.708328" y="460.8" style="stroke: #000000; stroke-width: 0.6"/>
      </g>
     </g>
    </g>
    <g id="xtick_11">
     <g id="line2d_16">
      <path d="M 280.635219 460.8 
L 280.635219 86.4 
" clip-path="url(#p3561b586b6)" style="fill: none; stroke-dasharray: 0.75,1.2375; stroke-dashoffset: 0; stroke: #808080; stroke-opacity: 0.75; stroke-width: 0.75"/>
     </g>
     <g id="line2d_17">
      <g>
       <use xlink:href="#m8014b34f78" x="280.635219" y="460.8" style="stroke: #000000; stroke-width: 0.6"/>
      </g>
     </g>
    </g>
    <g id="xtick_12">
     <g id="line2d_18">
      <path d="M 308.098665 460.8 
L 308.098665 86.4 
" clip-path="url(#p3561b586b6)" style="fill: none; stroke-dasharray: 0.75,1.2375; stroke-dashoffset: 0; stroke: #808080; stroke-opacity: 0.75; stroke-width: 0.75"/>
     </g>
     <g id="line2d_19">
      <g>
       <use xlink:href="#m8014b34f78" x="308.098665" y="460.8" style="stroke: #000000; stroke-width: 0.6"/>
      </g>
     </g>
    </g>
    <g id="xtick_13">
     <g id="line2d_20">
      <path d="M 335.562111 460.8 
L 335.562111 86.4 
" clip-path="url(#p3561b586b6)" style="fill: none; stroke-dasharray: 0.75,1.2375; stroke-dashoffset: 0; stroke: #808080; stroke-opacity: 0.75; stroke-width: 0.75"/>
     </g>
     <g id="line2d_21">
      <g>
       <use xlink:href="#m8014b34f78" x="335.562111" y="460.8" style="stroke: #000000; stroke-width: 0.6"/>
      </g>
     </g>
    </g>
    <g id="xtick_14">
     <g id="line2d_22">
      <path d="M 363.025556 460.8 
L 363.025556 86.4 
" clip-path="url(#p3561b586b6)" style="fill: none; stroke-dasharray: 0.75,1.2375; stroke-dashoffset: 0; stroke: #808080; stroke-opacity: 0.75; stroke-width: 0.75"/>
     </g>
     <g id="line2d_23">
      <g>
       <use xlink:href="#m8014b34f78" x="363.025556" y="460.8" style="stroke: #000000; stroke-width: 0.6"/>
      </g>
     </g>
    </g>
    <g id="xtick_15">
     <g id="line2d_24">
      <path d="M 417.952448 460.8 
L 417.952448 86.4 
" clip-path="url(#p3561b586b6)" style="fill: none; stroke-dasharray: 0.75,1.2375; stroke-dashoffset: 0; stroke: #808080; stroke-opacity: 0.75; stroke-width: 0.75"/>
     </g>
     <g id="line2d_25">
      <g>
       <use xlink:href="#m8014b34f78" x="417.952448" y="460.8" style="stroke: #000000; stroke-width: 0.6"/>
      </g>
     </g>
    </g>
    <g id="xtick_16">
     <g id="line2d_26">
      <path d="M 445.415893 460.8 
L 445.415893 86.4 
" clip-path="url(#p3561b586b6)" style="fill: none; stroke-dasharray: 0.75,1.2375; stroke-dashoffset: 0; stroke: #808080; stroke-opacity: 0.75; stroke-width: 0.75"/>
     </g>
     <g id="line2d_27">
      <g>
       <use xlink:href="#m8014b34f78" x="445.415893" y="460.8" style="stroke: #000000; stroke-width: 0.6"/>
      </g>
     </g>
    </g>
    <g id="xtick_17">
     <g id="line2d_28">
      <path d="M 472.879339 460.8 
L 472.879339 86.4 
" clip-path="url(#p3561b586b6)" style="fill: none; stroke-dasharray: 0.75,1.2375; stroke-dashoffset: 0; stroke: #808080; stroke-opacity: 0.75; stroke-width: 0.75"/>
     </g>
     <g id="line2d_29">
      <g>
       <use xlink:href="#m8014b34f78" x="472.879339" y="460.8" style="stroke: #000000; stroke-width: 0.6"/>
      </g>
     </g>
    </g>
    <g id="xtick_18">
     <g id="line2d_30">
      <path d="M 500.342784 460.8 
L 500.342784 86.4 
" clip-path="url(#p3561b586b6)" style="fill: none; stroke-dasharray: 0.75,1.2375; stroke-dashoffset: 0; stroke: #808080; stroke-opacity: 0.75; stroke-width: 0.75"/>
     </g>
     <g id="line2d_31">
      <g>
       <use xlink:href="#m8014b34f78" x="500.342784" y="460.8" style="stroke: #000000; stroke-width: 0.6"/>
      </g>
     </g>
    </g>
    <g id="xtick_19">
     <g id="line2d_32">
      <path d="M 555.269676 460.8 
L 555.269676 86.4 
" clip-path="url(#p3561b586b6)" style="fill: none; stroke-dasharray: 0.75,1.2375; stroke-dashoffset: 0; stroke: #808080; stroke-opacity: 0.75; stroke-width: 0.75"/>
     </g>
     <g id="line2d_33">
      <g>
       <use xlink:href="#m8014b34f78" x="555.269676" y="460.8" style="stroke: #000000; stroke-width: 0.6"/>
      </g>
     </g>
    </g>
    <g id="xtick_20">
     <g id="line2d_34">
      <path d="M 582.733121 460.8 
L 582.733121 86.4 
" clip-path="url(#p3561b586b6)" style="fill: none; stroke-dasharray: 0.75,1.2375; stroke-dashoffset: 0; stroke: #808080; stroke-opacity: 0.75; stroke-width: 0.75"/>
     </g>
     <g id="line2d_35">
      <g>
       <use xlink:href="#m8014b34f78" x="582.733121" y="460.8" style="stroke: #000000; stroke-width: 0.6"/>
      </g>
     </g>
    </g>
    <g id="xtick_21">
     <g id="line2d_36">
      <path d="M 610.196567 460.8 
L 610.196567 86.4 
" clip-path="url(#p3561b586b6)" style="fill: none; stroke-dasharray: 0.75,1.2375; stroke-dashoffset: 0; stroke: #808080; stroke-opacity: 0.75; stroke-width: 0.75"/>
     </g>
     <g id="line2d_37">
      <g>
       <use xlink:href="#m8014b34f78" x="610.196567" y="460.8" style="stroke: #000000; stroke-width: 0.6"/>
      </g>
     </g>
    </g>
    <g id="xtick_22">
     <g id="line2d_38">
      <path d="M 637.660013 460.8 
L 637.660013 86.4 
" clip-path="url(#p3561b586b6)" style="fill: none; stroke-dasharray: 0.75,1.2375; stroke-dashoffset: 0; stroke: #808080; stroke-opacity: 0.75; stroke-width: 0.75"/>
     </g>
     <g id="line2d_39">
      <g>
       <use xlink:href="#m8014b34f78" x="637.660013" y="460.8" style="stroke: #000000; stroke-width: 0.6"/>
      </g>
     </g>
    </g>
    <g id="xtick_23">
     <g id="line2d_40">
      <path d="M 692.586904 460.8 
L 692.586904 86.4 
" clip-path="url(#p3561b586b6)" style="fill: none; stroke-dasharray: 0.75,1.2375; stroke-dashoffset: 0; stroke: #808080; stroke-opacity: 0.75; stroke-width: 0.75"/>
     </g>
     <g id="line2d_41">
      <g>
       <use xlink:href="#m8014b34f78" x="692.586904" y="460.8" style="stroke: #000000; stroke-width: 0.6"/>
      </g>
     </g>
    </g>
    <g id="xtick_24">
     <g id="line2d_42">
      <path d="M 720.05035 460.8 
L 720.05035 86.4 
" clip-path="url(#p3561b586b6)" style="fill: none; stroke-dasharray: 0.75,1.2375; stroke-dashoffset: 0; stroke: #808080; stroke-opacity: 0.75; stroke-width: 0.75"/>
     </g>
     <g id="line2d_43">
      <g>
       <use xlink:href="#m8014b34f78" x="720.05035" y="460.8" style="stroke: #000000; stroke-width: 0.6"/>
      </g>
     </g>
    </g>
    <g id="text_6">
     <!-- Iterations [-] -->
     <g transform="translate(365.74 492.115937) scale(0.14 -0.14)">
      <defs>
       <path id="DejaVuSerif-Italic-49" d="M 1194 331 
L 1788 331 
L 1725 0 
L -97 0 
L -34 331 
L 559 331 
L 1338 4331 
L 744 4331 
L 809 4666 
L 2631 4666 
L 2566 4331 
L 1972 4331 
L 1194 331 
z
" transform="scale(0.015625)"/>
       <path id="DejaVuSerif-Italic-74" d="M 856 2988 
L 350 2988 
L 416 3322 
L 922 3322 
L 1122 4353 
L 1700 4353 
L 1500 3322 
L 2581 3322 
L 2516 2988 
L 1434 2988 
L 1025 878 
Q 978 631 978 488 
Q 978 388 1000 338 
Q 1059 219 1278 219 
Q 1503 219 1633 351 
Q 1763 484 1825 781 
L 2259 781 
Q 2147 328 1884 118 
Q 1622 -91 1169 -91 
Q 672 -91 506 131 
Q 406 266 406 516 
Q 406 675 447 878 
L 856 2988 
z
" transform="scale(0.015625)"/>
       <path id="DejaVuSerif-Italic-65" d="M 938 1275 
Q 925 1156 925 1050 
Q 925 756 1031 563 
Q 1216 219 1709 219 
Q 2072 219 2250 328 
Q 2569 525 2644 778 
L 3066 778 
Q 2941 381 2475 103 
Q 2150 -91 1506 -91 
Q 863 -91 516 388 
Q 272 722 272 1206 
Q 272 1419 319 1659 
Q 472 2450 1000 2931 
Q 1528 3413 2278 3413 
Q 3500 3413 3500 2547 
Q 3500 1913 2859 1603 
Q 2206 1288 938 1275 
z
M 2541 1975 
Q 2891 2181 2891 2569 
Q 2891 3103 2181 3103 
Q 1763 3103 1472 2784 
Q 1181 2466 1003 1606 
Q 2006 1653 2541 1975 
z
" transform="scale(0.015625)"/>
       <path id="DejaVuSerif-Italic-72" d="M 3375 3328 
L 3213 2497 
L 2881 2497 
Q 2891 2559 2891 2613 
Q 2891 2775 2816 2866 
Q 2719 2988 2484 2988 
Q 2059 2988 1775 2694 
Q 1491 2400 1384 1850 
L 1025 0 
L 450 0 
L 1031 2994 
L 481 2994 
L 544 3322 
L 1669 3322 
L 1556 2731 
Q 1791 3078 2089 3245 
Q 2388 3413 2769 3413 
Q 2909 3413 3059 3391 
Q 3209 3369 3375 3328 
z
" transform="scale(0.015625)"/>
       <path id="DejaVuSerif-Italic-61" d="M 2325 519 
Q 1909 -91 1238 -91 
Q 688 -91 409 281 
Q 216 544 216 919 
Q 216 1078 250 1256 
Q 463 2359 1231 2928 
Q 1884 3413 2675 3413 
Q 3206 3413 3388 3322 
L 2806 331 
L 3300 331 
L 3238 0 
L 2225 0 
L 2325 519 
z
M 822 938 
Q 822 269 1469 269 
Q 1863 269 2130 583 
Q 2397 897 2516 1497 
L 2806 3003 
L 2806 3003 
Q 2806 3094 2556 3094 
Q 1956 3094 1491 2625 
Q 1028 2153 863 1297 
Q 822 1097 822 938 
z
" transform="scale(0.015625)"/>
       <path id="DejaVuSerif-Italic-69" d="M 1009 4353 
Q 1038 4497 1163 4603 
Q 1288 4709 1434 4709 
Q 1578 4709 1663 4603 
Q 1728 4522 1728 4422 
Q 1728 4388 1719 4353 
Q 1691 4206 1567 4103 
Q 1444 4000 1297 4000 
Q 1150 4000 1066 4103 
Q 1003 4181 1003 4281 
Q 1003 4316 1009 4353 
z
M 963 331 
L 1506 331 
L 1444 0 
L 325 0 
L 903 2988 
L 353 2988 
L 419 3322 
L 1544 3322 
L 963 331 
z
" transform="scale(0.015625)"/>
       <path id="DejaVuSerif-Italic-6f" d="M 1644 219 
Q 2106 219 2414 584 
Q 2722 950 2859 1663 
Q 2922 1988 2922 2241 
Q 2922 2541 2834 2738 
Q 2669 3103 2206 3103 
Q 1744 3103 1436 2739 
Q 1128 2375 991 1663 
Q 928 1338 928 1088 
Q 928 784 1019 584 
Q 1184 219 1644 219 
z
M 1584 -91 
Q 859 -91 513 388 
Q 272 722 272 1203 
Q 272 1419 319 1663 
Q 472 2456 1005 2934 
Q 1538 3413 2266 3413 
Q 2994 3413 3341 2934 
Q 3578 2603 3578 2122 
Q 3578 1906 3531 1663 
Q 3378 869 2845 389 
Q 2313 -91 1584 -91 
z
" transform="scale(0.015625)"/>
       <path id="DejaVuSerif-Italic-6e" d="M 450 0 
L 1031 2988 
L 481 2988 
L 544 3322 
L 1669 3322 
L 1556 2731 
Q 1781 3069 2068 3241 
Q 2356 3413 2694 3413 
Q 3244 3413 3444 3097 
Q 3563 2906 3563 2588 
Q 3563 2378 3509 2113 
L 3163 331 
L 3675 331 
L 3613 0 
L 2522 0 
L 2897 1931 
Q 2959 2253 2959 2469 
Q 2959 2659 2909 2769 
Q 2803 2994 2425 2994 
Q 2025 2994 1759 2701 
Q 1494 2409 1384 1850 
L 1025 0 
L 450 0 
z
" transform="scale(0.015625)"/>
       <path id="DejaVuSerif-Italic-73" d="M 222 959 
L 553 959 
Q 541 869 541 788 
Q 541 219 1313 219 
Q 2088 219 2200 788 
Q 2209 844 2209 944 
Q 2209 1041 2103 1158 
Q 1997 1275 1550 1428 
L 1159 1569 
Q 759 1706 629 1882 
Q 500 2059 500 2263 
Q 500 2344 516 2438 
Q 606 2894 990 3153 
Q 1375 3413 1931 3413 
Q 2484 3413 3066 3144 
L 2925 2419 
L 2594 2419 
Q 2606 2491 2606 2553 
Q 2606 2781 2448 2942 
Q 2291 3103 1925 3103 
Q 1191 3103 1091 2591 
Q 1078 2538 1078 2444 
Q 1078 2347 1179 2237 
Q 1281 2128 1678 1997 
L 2106 1856 
Q 2550 1709 2716 1488 
Q 2831 1331 2831 1178 
Q 2831 522 2306 181 
Q 1894 -91 1262 -91 
Q 631 -91 72 184 
L 222 959 
z
" transform="scale(0.015625)"/>
       <path id="DejaVuSerif-Italic-20" transform="scale(0.015625)"/>
       <path id="DejaVuSerif-Italic-5b" d="M 1106 4863 
L 2559 4863 
L 2497 4531 
L 1641 4531 
L 659 -513 
L 1516 -513 
L 1453 -844 
L 0 -844 
L 1106 4863 
z
" transform="scale(0.015625)"/>
       <path id="DejaVuSerif-Italic-2d" d="M 328 1959 
L 1928 1959 
L 1834 1472 
L 234 1472 
L 328 1959 
z
" transform="scale(0.015625)"/>
       <path id="DejaVuSerif-Italic-5d" d="M 2503 4863 
L 1397 -844 
L -56 -844 
L 6 -513 
L 863 -513 
L 1844 4531 
L 988 4531 
L 1050 4863 
L 2503 4863 
z
" transform="scale(0.015625)"/>
      </defs>
      <use xlink:href="#DejaVuSerif-Italic-49"/>
      <use xlink:href="#DejaVuSerif-Italic-74" transform="translate(39.501953 0)"/>
      <use xlink:href="#DejaVuSerif-Italic-65" transform="translate(79.6875 0)"/>
      <use xlink:href="#DejaVuSerif-Italic-72" transform="translate(138.867188 0)"/>
      <use xlink:href="#DejaVuSerif-Italic-61" transform="translate(186.669922 0)"/>
      <use xlink:href="#DejaVuSerif-Italic-74" transform="translate(246.289062 0)"/>
      <use xlink:href="#DejaVuSerif-Italic-69" transform="translate(286.474609 0)"/>
      <use xlink:href="#DejaVuSerif-Italic-6f" transform="translate(318.457031 0)"/>
      <use xlink:href="#DejaVuSerif-Italic-6e" transform="translate(378.662109 0)"/>
      <use xlink:href="#DejaVuSerif-Italic-73" transform="translate(443.066406 0)"/>
      <use xlink:href="#DejaVuSerif-Italic-20" transform="translate(494.384766 0)"/>
      <use xlink:href="#DejaVuSerif-Italic-5b" transform="translate(526.171875 0)"/>
      <use xlink:href="#DejaVuSerif-Italic-2d" transform="translate(565.185547 0)"/>
      <use xlink:href="#DejaVuSerif-Italic-5d" transform="translate(598.974609 0)"/>
     </g>
    </g>
   </g>
   <g id="matplotlib.axis_2">
    <g id="ytick_1">
     <g id="line2d_44">
      <defs>
       <path id="m8eff833220" d="M 0 0 
L -3.5 0 
" style="stroke: #000000; stroke-width: 0.8"/>
      </defs>
      <g>
       <use xlink:href="#m8eff833220" x="86.4" y="453.239062" style="stroke: #000000; stroke-width: 0.8"/>
      </g>
     </g>
     <g id="text_7">
      <!-- 40 -->
      <g transform="translate(66.675 457.038281) scale(0.1 -0.1)">
       <use xlink:href="#DejaVuSans-34"/>
       <use xlink:href="#DejaVuSans-30" transform="translate(63.623047 0)"/>
      </g>
     </g>
    </g>
    <g id="ytick_2">
     <g id="line2d_45">
      <g>
       <use xlink:href="#m8eff833220" x="86.4" y="376.174354" style="stroke: #000000; stroke-width: 0.8"/>
      </g>
     </g>
     <g id="text_8">
      <!-- 50 -->
      <g transform="translate(66.675 379.973573) scale(0.1 -0.1)">
       <defs>
        <path id="DejaVuSans-35" d="M 691 4666 
L 3169 4666 
L 3169 4134 
L 1269 4134 
L 1269 2991 
Q 1406 3038 1543 3061 
Q 1681 3084 1819 3084 
Q 2600 3084 3056 2656 
Q 3513 2228 3513 1497 
Q 3513 744 3044 326 
Q 2575 -91 1722 -91 
Q 1428 -91 1123 -41 
Q 819 9 494 109 
L 494 744 
Q 775 591 1075 516 
Q 1375 441 1709 441 
Q 2250 441 2565 725 
Q 2881 1009 2881 1497 
Q 2881 1984 2565 2268 
Q 2250 2553 1709 2553 
Q 1456 2553 1204 2497 
Q 953 2441 691 2322 
L 691 4666 
z
" transform="scale(0.015625)"/>
       </defs>
       <use xlink:href="#DejaVuSans-35"/>
       <use xlink:href="#DejaVuSans-30" transform="translate(63.623047 0)"/>
      </g>
     </g>
    </g>
    <g id="ytick_3">
     <g id="line2d_46">
      <g>
       <use xlink:href="#m8eff833220" x="86.4" y="299.109646" style="stroke: #000000; stroke-width: 0.8"/>
      </g>
     </g>
     <g id="text_9">
      <!-- 60 -->
      <g transform="translate(66.675 302.908865) scale(0.1 -0.1)">
       <defs>
        <path id="DejaVuSans-36" d="M 2113 2584 
Q 1688 2584 1439 2293 
Q 1191 2003 1191 1497 
Q 1191 994 1439 701 
Q 1688 409 2113 409 
Q 2538 409 2786 701 
Q 3034 994 3034 1497 
Q 3034 2003 2786 2293 
Q 2538 2584 2113 2584 
z
M 3366 4563 
L 3366 3988 
Q 3128 4100 2886 4159 
Q 2644 4219 2406 4219 
Q 1781 4219 1451 3797 
Q 1122 3375 1075 2522 
Q 1259 2794 1537 2939 
Q 1816 3084 2150 3084 
Q 2853 3084 3261 2657 
Q 3669 2231 3669 1497 
Q 3669 778 3244 343 
Q 2819 -91 2113 -91 
Q 1303 -91 875 529 
Q 447 1150 447 2328 
Q 447 3434 972 4092 
Q 1497 4750 2381 4750 
Q 2619 4750 2861 4703 
Q 3103 4656 3366 4563 
z
" transform="scale(0.015625)"/>
       </defs>
       <use xlink:href="#DejaVuSans-36"/>
       <use xlink:href="#DejaVuSans-30" transform="translate(63.623047 0)"/>
      </g>
     </g>
    </g>
    <g id="ytick_4">
     <g id="line2d_47">
      <g>
       <use xlink:href="#m8eff833220" x="86.4" y="222.044938" style="stroke: #000000; stroke-width: 0.8"/>
      </g>
     </g>
     <g id="text_10">
      <!-- 70 -->
      <g transform="translate(66.675 225.844157) scale(0.1 -0.1)">
       <defs>
        <path id="DejaVuSans-37" d="M 525 4666 
L 3525 4666 
L 3525 4397 
L 1831 0 
L 1172 0 
L 2766 4134 
L 525 4134 
L 525 4666 
z
" transform="scale(0.015625)"/>
       </defs>
       <use xlink:href="#DejaVuSans-37"/>
       <use xlink:href="#DejaVuSans-30" transform="translate(63.623047 0)"/>
      </g>
     </g>
    </g>
    <g id="ytick_5">
     <g id="line2d_48">
      <g>
       <use xlink:href="#m8eff833220" x="86.4" y="144.98023" style="stroke: #000000; stroke-width: 0.8"/>
      </g>
     </g>
     <g id="text_11">
      <!-- 80 -->
      <g transform="translate(66.675 148.779449) scale(0.1 -0.1)">
       <defs>
        <path id="DejaVuSans-38" d="M 2034 2216 
Q 1584 2216 1326 1975 
Q 1069 1734 1069 1313 
Q 1069 891 1326 650 
Q 1584 409 2034 409 
Q 2484 409 2743 651 
Q 3003 894 3003 1313 
Q 3003 1734 2745 1975 
Q 2488 2216 2034 2216 
z
M 1403 2484 
Q 997 2584 770 2862 
Q 544 3141 544 3541 
Q 544 4100 942 4425 
Q 1341 4750 2034 4750 
Q 2731 4750 3128 4425 
Q 3525 4100 3525 3541 
Q 3525 3141 3298 2862 
Q 3072 2584 2669 2484 
Q 3125 2378 3379 2068 
Q 3634 1759 3634 1313 
Q 3634 634 3220 271 
Q 2806 -91 2034 -91 
Q 1263 -91 848 271 
Q 434 634 434 1313 
Q 434 1759 690 2068 
Q 947 2378 1403 2484 
z
M 1172 3481 
Q 1172 3119 1398 2916 
Q 1625 2713 2034 2713 
Q 2441 2713 2670 2916 
Q 2900 3119 2900 3481 
Q 2900 3844 2670 4047 
Q 2441 4250 2034 4250 
Q 1625 4250 1398 4047 
Q 1172 3844 1172 3481 
z
" transform="scale(0.015625)"/>
       </defs>
       <use xlink:href="#DejaVuSans-38"/>
       <use xlink:href="#DejaVuSans-30" transform="translate(63.623047 0)"/>
      </g>
     </g>
    </g>
    <g id="ytick_6">
     <g id="line2d_49">
      <path d="M 86.4 437.82612 
L 734.4 437.82612 
" clip-path="url(#p3561b586b6)" style="fill: none; stroke-dasharray: 0.75,1.2375; stroke-dashoffset: 0; stroke: #808080; stroke-opacity: 0.75; stroke-width: 0.75"/>
     </g>
     <g id="line2d_50">
      <defs>
       <path id="mc5a4450440" d="M 0 0 
L -2 0 
" style="stroke: #000000; stroke-width: 0.6"/>
      </defs>
      <g>
       <use xlink:href="#mc5a4450440" x="86.4" y="437.82612" style="stroke: #000000; stroke-width: 0.6"/>
      </g>
     </g>
    </g>
    <g id="ytick_7">
     <g id="line2d_51">
      <path d="M 86.4 422.413179 
L 734.4 422.413179 
" clip-path="url(#p3561b586b6)" style="fill: none; stroke-dasharray: 0.75,1.2375; stroke-dashoffset: 0; stroke: #808080; stroke-opacity: 0.75; stroke-width: 0.75"/>
     </g>
     <g id="line2d_52">
      <g>
       <use xlink:href="#mc5a4450440" x="86.4" y="422.413179" style="stroke: #000000; stroke-width: 0.6"/>
      </g>
     </g>
    </g>
    <g id="ytick_8">
     <g id="line2d_53">
      <path d="M 86.4 407.000237 
L 734.4 407.000237 
" clip-path="url(#p3561b586b6)" style="fill: none; stroke-dasharray: 0.75,1.2375; stroke-dashoffset: 0; stroke: #808080; stroke-opacity: 0.75; stroke-width: 0.75"/>
     </g>
     <g id="line2d_54">
      <g>
       <use xlink:href="#mc5a4450440" x="86.4" y="407.000237" style="stroke: #000000; stroke-width: 0.6"/>
      </g>
     </g>
    </g>
    <g id="ytick_9">
     <g id="line2d_55">
      <path d="M 86.4 391.587296 
L 734.4 391.587296 
" clip-path="url(#p3561b586b6)" style="fill: none; stroke-dasharray: 0.75,1.2375; stroke-dashoffset: 0; stroke: #808080; stroke-opacity: 0.75; stroke-width: 0.75"/>
     </g>
     <g id="line2d_56">
      <g>
       <use xlink:href="#mc5a4450440" x="86.4" y="391.587296" style="stroke: #000000; stroke-width: 0.6"/>
      </g>
     </g>
    </g>
    <g id="ytick_10">
     <g id="line2d_57">
      <path d="M 86.4 360.761412 
L 734.4 360.761412 
" clip-path="url(#p3561b586b6)" style="fill: none; stroke-dasharray: 0.75,1.2375; stroke-dashoffset: 0; stroke: #808080; stroke-opacity: 0.75; stroke-width: 0.75"/>
     </g>
     <g id="line2d_58">
      <g>
       <use xlink:href="#mc5a4450440" x="86.4" y="360.761412" style="stroke: #000000; stroke-width: 0.6"/>
      </g>
     </g>
    </g>
    <g id="ytick_11">
     <g id="line2d_59">
      <path d="M 86.4 345.348471 
L 734.4 345.348471 
" clip-path="url(#p3561b586b6)" style="fill: none; stroke-dasharray: 0.75,1.2375; stroke-dashoffset: 0; stroke: #808080; stroke-opacity: 0.75; stroke-width: 0.75"/>
     </g>
     <g id="line2d_60">
      <g>
       <use xlink:href="#mc5a4450440" x="86.4" y="345.348471" style="stroke: #000000; stroke-width: 0.6"/>
      </g>
     </g>
    </g>
    <g id="ytick_12">
     <g id="line2d_61">
      <path d="M 86.4 329.935529 
L 734.4 329.935529 
" clip-path="url(#p3561b586b6)" style="fill: none; stroke-dasharray: 0.75,1.2375; stroke-dashoffset: 0; stroke: #808080; stroke-opacity: 0.75; stroke-width: 0.75"/>
     </g>
     <g id="line2d_62">
      <g>
       <use xlink:href="#mc5a4450440" x="86.4" y="329.935529" style="stroke: #000000; stroke-width: 0.6"/>
      </g>
     </g>
    </g>
    <g id="ytick_13">
     <g id="line2d_63">
      <path d="M 86.4 314.522587 
L 734.4 314.522587 
" clip-path="url(#p3561b586b6)" style="fill: none; stroke-dasharray: 0.75,1.2375; stroke-dashoffset: 0; stroke: #808080; stroke-opacity: 0.75; stroke-width: 0.75"/>
     </g>
     <g id="line2d_64">
      <g>
       <use xlink:href="#mc5a4450440" x="86.4" y="314.522587" style="stroke: #000000; stroke-width: 0.6"/>
      </g>
     </g>
    </g>
    <g id="ytick_14">
     <g id="line2d_65">
      <path d="M 86.4 283.696704 
L 734.4 283.696704 
" clip-path="url(#p3561b586b6)" style="fill: none; stroke-dasharray: 0.75,1.2375; stroke-dashoffset: 0; stroke: #808080; stroke-opacity: 0.75; stroke-width: 0.75"/>
     </g>
     <g id="line2d_66">
      <g>
       <use xlink:href="#mc5a4450440" x="86.4" y="283.696704" style="stroke: #000000; stroke-width: 0.6"/>
      </g>
     </g>
    </g>
    <g id="ytick_15">
     <g id="line2d_67">
      <path d="M 86.4 268.283763 
L 734.4 268.283763 
" clip-path="url(#p3561b586b6)" style="fill: none; stroke-dasharray: 0.75,1.2375; stroke-dashoffset: 0; stroke: #808080; stroke-opacity: 0.75; stroke-width: 0.75"/>
     </g>
     <g id="line2d_68">
      <g>
       <use xlink:href="#mc5a4450440" x="86.4" y="268.283763" style="stroke: #000000; stroke-width: 0.6"/>
      </g>
     </g>
    </g>
    <g id="ytick_16">
     <g id="line2d_69">
      <path d="M 86.4 252.870821 
L 734.4 252.870821 
" clip-path="url(#p3561b586b6)" style="fill: none; stroke-dasharray: 0.75,1.2375; stroke-dashoffset: 0; stroke: #808080; stroke-opacity: 0.75; stroke-width: 0.75"/>
     </g>
     <g id="line2d_70">
      <g>
       <use xlink:href="#mc5a4450440" x="86.4" y="252.870821" style="stroke: #000000; stroke-width: 0.6"/>
      </g>
     </g>
    </g>
    <g id="ytick_17">
     <g id="line2d_71">
      <path d="M 86.4 237.457879 
L 734.4 237.457879 
" clip-path="url(#p3561b586b6)" style="fill: none; stroke-dasharray: 0.75,1.2375; stroke-dashoffset: 0; stroke: #808080; stroke-opacity: 0.75; stroke-width: 0.75"/>
     </g>
     <g id="line2d_72">
      <g>
       <use xlink:href="#mc5a4450440" x="86.4" y="237.457879" style="stroke: #000000; stroke-width: 0.6"/>
      </g>
     </g>
    </g>
    <g id="ytick_18">
     <g id="line2d_73">
      <path d="M 86.4 206.631996 
L 734.4 206.631996 
" clip-path="url(#p3561b586b6)" style="fill: none; stroke-dasharray: 0.75,1.2375; stroke-dashoffset: 0; stroke: #808080; stroke-opacity: 0.75; stroke-width: 0.75"/>
     </g>
     <g id="line2d_74">
      <g>
       <use xlink:href="#mc5a4450440" x="86.4" y="206.631996" style="stroke: #000000; stroke-width: 0.6"/>
      </g>
     </g>
    </g>
    <g id="ytick_19">
     <g id="line2d_75">
      <path d="M 86.4 191.219055 
L 734.4 191.219055 
" clip-path="url(#p3561b586b6)" style="fill: none; stroke-dasharray: 0.75,1.2375; stroke-dashoffset: 0; stroke: #808080; stroke-opacity: 0.75; stroke-width: 0.75"/>
     </g>
     <g id="line2d_76">
      <g>
       <use xlink:href="#mc5a4450440" x="86.4" y="191.219055" style="stroke: #000000; stroke-width: 0.6"/>
      </g>
     </g>
    </g>
    <g id="ytick_20">
     <g id="line2d_77">
      <path d="M 86.4 175.806113 
L 734.4 175.806113 
" clip-path="url(#p3561b586b6)" style="fill: none; stroke-dasharray: 0.75,1.2375; stroke-dashoffset: 0; stroke: #808080; stroke-opacity: 0.75; stroke-width: 0.75"/>
     </g>
     <g id="line2d_78">
      <g>
       <use xlink:href="#mc5a4450440" x="86.4" y="175.806113" style="stroke: #000000; stroke-width: 0.6"/>
      </g>
     </g>
    </g>
    <g id="ytick_21">
     <g id="line2d_79">
      <path d="M 86.4 160.393171 
L 734.4 160.393171 
" clip-path="url(#p3561b586b6)" style="fill: none; stroke-dasharray: 0.75,1.2375; stroke-dashoffset: 0; stroke: #808080; stroke-opacity: 0.75; stroke-width: 0.75"/>
     </g>
     <g id="line2d_80">
      <g>
       <use xlink:href="#mc5a4450440" x="86.4" y="160.393171" style="stroke: #000000; stroke-width: 0.6"/>
      </g>
     </g>
    </g>
    <g id="ytick_22">
     <g id="line2d_81">
      <path d="M 86.4 129.567288 
L 734.4 129.567288 
" clip-path="url(#p3561b586b6)" style="fill: none; stroke-dasharray: 0.75,1.2375; stroke-dashoffset: 0; stroke: #808080; stroke-opacity: 0.75; stroke-width: 0.75"/>
     </g>
     <g id="line2d_82">
      <g>
       <use xlink:href="#mc5a4450440" x="86.4" y="129.567288" style="stroke: #000000; stroke-width: 0.6"/>
      </g>
     </g>
    </g>
    <g id="ytick_23">
     <g id="line2d_83">
      <path d="M 86.4 114.154347 
L 734.4 114.154347 
" clip-path="url(#p3561b586b6)" style="fill: none; stroke-dasharray: 0.75,1.2375; stroke-dashoffset: 0; stroke: #808080; stroke-opacity: 0.75; stroke-width: 0.75"/>
     </g>
     <g id="line2d_84">
      <g>
       <use xlink:href="#mc5a4450440" x="86.4" y="114.154347" style="stroke: #000000; stroke-width: 0.6"/>
      </g>
     </g>
    </g>
    <g id="ytick_24">
     <g id="line2d_85">
      <path d="M 86.4 98.741405 
L 734.4 98.741405 
" clip-path="url(#p3561b586b6)" style="fill: none; stroke-dasharray: 0.75,1.2375; stroke-dashoffset: 0; stroke: #808080; stroke-opacity: 0.75; stroke-width: 0.75"/>
     </g>
     <g id="line2d_86">
      <g>
       <use xlink:href="#mc5a4450440" x="86.4" y="98.741405" style="stroke: #000000; stroke-width: 0.6"/>
      </g>
     </g>
    </g>
    <g id="text_12">
     <!-- Cost objective [-] -->
     <g transform="translate(59.564375 333.93125) rotate(-90) scale(0.14 -0.14)">
      <defs>
       <path id="DejaVuSerif-Italic-43" d="M 4300 1234 
Q 3966 581 3414 245 
Q 2863 -91 2119 -91 
Q 1663 -91 1303 65 
Q 944 222 700 525 
Q 419 875 334 1320 
Q 250 1766 359 2328 
Q 572 3416 1330 4083 
Q 2088 4750 3116 4750 
Q 3497 4750 3908 4650 
Q 4319 4550 4775 4347 
L 4569 3272 
L 4216 3272 
Q 4213 3859 3919 4137 
Q 3625 4416 2997 4416 
Q 2250 4416 1762 3886 
Q 1275 3356 1075 2328 
Q 875 1303 1156 773 
Q 1438 244 2184 244 
Q 2706 244 3092 492 
Q 3478 741 3725 1234 
L 4300 1234 
z
" transform="scale(0.015625)"/>
       <path id="DejaVuSerif-Italic-62" d="M 1153 4531 
L 600 4531 
L 666 4863 
L 1794 4863 
L 1394 2803 
Q 1622 3116 1912 3264 
Q 2203 3413 2588 3413 
Q 3200 3413 3494 2928 
Q 3688 2609 3688 2163 
Q 3688 1928 3634 1663 
Q 3481 881 3000 395 
Q 2519 -91 1906 -91 
Q 1522 -91 1289 57 
Q 1056 206 950 519 
L 850 0 
L 275 0 
L 1153 4531 
z
M 1141 1497 
Q 1091 1250 1091 1053 
Q 1091 769 1191 581 
Q 1359 269 1797 269 
Q 2238 269 2533 622 
Q 2828 975 2963 1663 
Q 3025 1978 3025 2225 
Q 3025 2513 2938 2703 
Q 2781 3053 2338 3053 
Q 1900 3053 1609 2737 
Q 1319 2422 1203 1825 
L 1141 1497 
z
" transform="scale(0.015625)"/>
       <path id="DejaVuSerif-Italic-6a" d="M 1172 4353 
Q 1197 4497 1323 4603 
Q 1450 4709 1597 4709 
Q 1741 4709 1825 4603 
Q 1888 4522 1888 4422 
Q 1888 4388 1881 4353 
Q 1850 4206 1729 4103 
Q 1609 4000 1459 4000 
Q 1313 4000 1225 4103 
Q 1163 4181 1163 4281 
Q 1163 4316 1172 4353 
z
M 1047 2988 
L 503 2988 
L 566 3322 
L 1684 3322 
L 978 -325 
Q 878 -838 515 -1130 
Q 153 -1422 -381 -1422 
Q -606 -1422 -800 -1370 
Q -994 -1319 -1169 -1216 
L -1034 -531 
L -738 -531 
Q -747 -609 -747 -675 
Q -747 -869 -669 -972 
Q -563 -1113 -306 -1113 
Q -22 -1113 150 -920 
Q 322 -728 403 -325 
L 1047 2988 
z
" transform="scale(0.015625)"/>
       <path id="DejaVuSerif-Italic-63" d="M 3163 997 
Q 2938 466 2536 187 
Q 2134 -91 1584 -91 
Q 859 -91 513 388 
Q 272 722 272 1203 
Q 272 1419 319 1663 
Q 475 2459 1008 2936 
Q 1541 3413 2266 3413 
Q 2581 3413 2879 3339 
Q 3178 3266 3463 3116 
L 3300 2266 
L 2966 2266 
Q 2966 2309 2966 2347 
Q 2966 2722 2803 2903 
Q 2622 3103 2213 3103 
Q 1747 3103 1439 2742 
Q 1131 2381 991 1663 
Q 928 1334 928 1078 
Q 928 778 1016 581 
Q 1181 219 1650 219 
Q 2022 219 2281 412 
Q 2541 606 2700 997 
L 3163 997 
z
" transform="scale(0.015625)"/>
       <path id="DejaVuSerif-Italic-76" d="M 1681 0 
L 1259 0 
L 619 2988 
L 241 2988 
L 303 3322 
L 1163 3322 
L 1725 703 
Q 2084 1016 2325 1413 
Q 2825 2238 3003 2988 
L 2622 2988 
L 2688 3322 
L 3547 3322 
Q 3206 2034 2775 1313 
Q 2400 688 1681 0 
z
" transform="scale(0.015625)"/>
      </defs>
      <use xlink:href="#DejaVuSerif-Italic-43"/>
      <use xlink:href="#DejaVuSerif-Italic-6f" transform="translate(76.513672 0)"/>
      <use xlink:href="#DejaVuSerif-Italic-73" transform="translate(136.71875 0)"/>
      <use xlink:href="#DejaVuSerif-Italic-74" transform="translate(188.037109 0)"/>
      <use xlink:href="#DejaVuSerif-Italic-20" transform="translate(228.222656 0)"/>
      <use xlink:href="#DejaVuSerif-Italic-6f" transform="translate(260.009766 0)"/>
      <use xlink:href="#DejaVuSerif-Italic-62" transform="translate(320.214844 0)"/>
      <use xlink:href="#DejaVuSerif-Italic-6a" transform="translate(384.228516 0)"/>
      <use xlink:href="#DejaVuSerif-Italic-65" transform="translate(415.234375 0)"/>
      <use xlink:href="#DejaVuSerif-Italic-63" transform="translate(474.414062 0)"/>
      <use xlink:href="#DejaVuSerif-Italic-74" transform="translate(530.419922 0)"/>
      <use xlink:href="#DejaVuSerif-Italic-69" transform="translate(570.605469 0)"/>
      <use xlink:href="#DejaVuSerif-Italic-76" transform="translate(602.587891 0)"/>
      <use xlink:href="#DejaVuSerif-Italic-65" transform="translate(659.082031 0)"/>
      <use xlink:href="#DejaVuSerif-Italic-20" transform="translate(718.261719 0)"/>
      <use xlink:href="#DejaVuSerif-Italic-5b" transform="translate(750.048828 0)"/>
      <use xlink:href="#DejaVuSerif-Italic-2d" transform="translate(789.0625 0)"/>
      <use xlink:href="#DejaVuSerif-Italic-5d" transform="translate(822.851562 0)"/>
     </g>
    </g>
   </g>
   <g id="line2d_87">
    <path d="M 115.854545 137.273754 
L 117.221346 137.842387 
L 118.588146 134.090951 
L 119.954946 135.618575 
L 121.321746 165.264133 
L 122.688547 187.338338 
L 124.055347 201.801394 
L 125.422147 222.502912 
L 126.788947 226.3548 
L 128.155748 237.482677 
L 129.522548 242.141792 
L 130.889348 247.296842 
L 132.256148 247.441617 
L 133.622949 261.159961 
L 134.989749 261.465253 
L 136.356549 237.971904 
L 137.72335 238.341723 
L 139.09015 244.941586 
L 140.45695 253.828155 
L 141.82375 275.28562 
L 143.190551 286.18646 
L 144.557351 294.954034 
L 145.924151 301.065808 
L 147.290951 304.402725 
L 148.657752 306.65939 
L 150.024552 306.668368 
L 151.391352 305.070951 
L 152.758152 304.223295 
L 154.124953 297.143699 
L 155.491753 297.087797 
L 156.858553 286.037578 
L 158.225353 285.912913 
L 159.592154 269.762707 
L 160.958954 269.569025 
L 162.325754 261.81487 
L 163.692554 257.178872 
L 165.059355 251.660638 
L 166.426155 247.985633 
L 169.159755 245.058702 
L 170.526556 244.295161 
L 171.893356 251.596216 
L 173.260156 252.426756 
L 174.626956 254.788765 
L 175.993757 254.929158 
L 177.360557 257.991066 
L 178.727357 258.14552 
L 180.094157 261.323431 
L 181.460958 261.441526 
L 182.827758 264.615798 
L 184.194558 264.701102 
L 185.561358 267.899515 
L 186.928159 267.970808 
L 188.294959 271.175358 
L 189.661759 271.238999 
L 191.028559 274.437827 
L 192.39536 274.496547 
L 193.76216 277.685457 
L 195.12896 277.74064 
L 196.49576 280.918548 
L 197.862561 280.971 
L 199.229361 284.138986 
L 200.596161 284.189249 
L 201.962961 287.350455 
L 203.329762 287.399065 
L 204.696562 290.558685 
L 206.063362 290.605818 
L 207.430162 293.75821 
L 208.796963 293.804084 
L 210.163763 296.961898 
L 211.530563 297.006679 
L 212.897363 300.16632 
L 214.264164 300.210183 
L 215.630964 303.375752 
L 216.997764 303.418931 
L 218.364564 306.598469 
L 219.731365 306.641207 
L 221.098165 309.843325 
L 222.464965 309.885772 
L 223.831765 313.1126 
L 225.198566 313.154814 
L 226.565366 316.405117 
L 227.932166 316.447217 
L 229.298966 319.729734 
L 230.665767 319.771997 
L 232.032567 323.106728 
L 233.399367 323.149279 
L 234.766167 326.539689 
L 236.132968 326.582431 
L 237.499768 330.027708 
L 238.866568 330.070918 
L 240.233368 333.590839 
L 241.600169 333.634183 
L 242.966969 337.191502 
L 244.333769 337.234865 
L 245.70057 340.843203 
L 247.06737 340.887351 
L 248.43417 344.554235 
L 249.80097 344.596926 
L 251.167771 348.14178 
L 252.534571 348.182829 
L 253.901371 351.641436 
L 255.268171 351.683527 
L 256.634972 355.186065 
L 258.001772 355.226377 
L 259.368572 358.097288 
L 260.735372 358.338168 
L 262.102173 358.993505 
L 263.468973 360.985165 
L 264.835773 361.051017 
L 266.202573 362.962784 
L 267.569374 363.472521 
L 268.936174 363.631805 
L 270.302974 364.207591 
L 271.669774 364.154669 
L 274.403375 362.185763 
L 275.770175 360.157953 
L 277.136975 359.222132 
L 278.503776 359.000689 
L 279.870576 356.978156 
L 282.604176 356.647459 
L 283.970977 356.784551 
L 285.337777 352.539174 
L 286.704577 352.616532 
L 288.071377 355.566747 
L 289.438178 356.049999 
L 290.804978 354.706786 
L 292.171778 345.060179 
L 293.538578 343.533298 
L 294.905379 343.780767 
L 296.272179 348.303406 
L 297.638979 353.754107 
L 299.005779 355.585296 
L 300.37258 351.681964 
L 301.73938 344.695988 
L 303.10618 341.398968 
L 304.47298 341.406044 
L 305.839781 342.754923 
L 307.206581 343.30122 
L 308.573381 348.494804 
L 309.940181 351.562781 
L 311.306982 353.486063 
L 312.673782 352.441916 
L 314.040582 345.726115 
L 315.407382 340.864452 
L 316.774183 340.882333 
L 318.140983 342.077401 
L 319.507783 353.442194 
L 320.874583 348.761294 
L 322.241384 346.09304 
L 323.608184 342.287265 
L 324.974984 342.447507 
L 326.341784 343.93099 
L 327.708585 344.992559 
L 329.075385 352.722288 
L 330.442185 353.85799 
L 331.808985 353.952276 
L 333.175786 354.698108 
L 334.542586 354.507209 
L 335.909386 347.12297 
L 337.276186 347.183227 
L 338.642987 350.731331 
L 340.009787 351.68975 
L 341.376587 354.17671 
L 342.743387 362.542712 
L 344.110188 362.974035 
L 345.476988 362.596179 
L 346.843788 362.081822 
L 348.210588 358.016786 
L 349.577389 359.996602 
L 350.944189 366.28412 
L 352.310989 367.406253 
L 353.677789 370.393444 
L 355.04459 372.780163 
L 356.41139 370.571665 
L 357.77819 366.468931 
L 359.144991 374.931872 
L 360.511791 378.915537 
L 361.878591 380.110901 
L 363.245391 380.090943 
L 364.612192 376.548991 
L 365.978992 376.184611 
L 367.345792 377.252425 
L 368.712592 381.227344 
L 370.079393 381.39344 
L 371.446193 382.574732 
L 372.812993 382.574732 
L 374.179793 363.390629 
L 375.546594 355.021366 
L 376.913394 377.771841 
L 383.747395 377.869585 
L 385.114195 380.875927 
L 386.480996 380.907915 
L 387.847796 384.516974 
L 389.214596 385.67549 
L 390.581396 385.703734 
L 391.948197 388.646772 
L 393.314997 392.025523 
L 394.681797 392.058232 
L 396.048597 395.306398 
L 397.415398 395.74343 
L 398.782198 397.838538 
L 400.148998 402.766436 
L 401.515798 405.53518 
L 402.882599 409.583443 
L 404.249399 412.920465 
L 405.616199 417.205567 
L 406.982999 420.706922 
L 408.3498 424.927718 
L 409.7166 427.81269 
L 411.0834 431.573071 
L 412.4502 434.262731 
L 413.817001 437.839603 
L 416.550601 442.093677 
L 417.917401 443.053647 
L 419.284202 443.541061 
L 420.651002 442.885968 
L 422.017802 441.073397 
L 423.384602 438.416275 
L 424.751403 435.113135 
L 426.118203 430.718047 
L 427.485003 427.768804 
L 428.851803 422.873504 
L 430.218604 419.749632 
L 431.585404 414.764185 
L 432.952204 411.767109 
L 434.319004 408.170821 
L 435.685805 405.450733 
L 437.052605 398.79761 
L 438.419405 388.591027 
L 439.786205 386.379056 
L 441.153006 370.478864 
L 442.519806 367.428302 
L 443.886606 363.579696 
L 445.253406 358.908459 
L 446.620207 352.723086 
L 447.987007 347.069408 
L 449.353807 343.855839 
L 450.720607 336.205624 
L 452.087408 327.304422 
L 453.454208 306.231678 
L 454.821008 305.388904 
L 456.187808 303.685288 
L 457.554609 300.179818 
L 458.921409 284.617809 
L 460.288209 279.957347 
L 467.122211 279.928697 
L 468.489011 225.647392 
L 469.855811 181.04735 
L 471.222611 148.064364 
L 472.589412 279.928519 
L 475.323012 267.84686 
L 476.689812 261.383854 
L 478.056613 259.717651 
L 479.423413 259.252117 
L 480.790213 258.321215 
L 483.523814 258.170891 
L 484.890614 258.154624 
L 486.257414 174.958202 
L 487.624214 163.943442 
L 488.991015 103.418182 
L 490.357815 258.146426 
L 493.091415 258.140212 
L 494.458216 250.358639 
L 495.825016 237.607972 
L 497.191816 228.980935 
L 499.925417 197.907106 
L 501.292217 196.849299 
L 502.659017 179.588379 
L 504.025817 169.645053 
L 505.392618 169.255917 
L 506.759418 160.282026 
L 508.126218 159.843301 
L 509.493018 159.843301 
L 510.859819 166.308378 
L 512.226619 176.200628 
L 513.593419 176.200628 
L 514.960219 255.577405 
L 517.69382 268.297114 
L 519.06062 268.170194 
L 520.42742 264.031819 
L 521.794221 264.155583 
L 523.161021 266.114385 
L 524.527821 336.755902 
L 525.894621 367.446904 
L 527.261422 364.439797 
L 528.628222 335.03218 
L 529.995022 334.617255 
L 532.728623 334.315924 
L 534.095423 340.498966 
L 535.462223 342.861859 
L 536.829023 348.476878 
L 538.195824 351.951096 
L 539.562624 356.416858 
L 542.296224 364.03812 
L 543.663025 375.223836 
L 545.029825 387.567381 
L 546.396625 394.241145 
L 547.763425 375.609887 
L 549.130226 387.675533 
L 550.497026 398.149206 
L 551.863826 400.157815 
L 554.597427 406.275624 
L 555.964227 408.246971 
L 557.331027 409.616817 
L 558.697827 411.183595 
L 560.064628 411.481782 
L 561.431428 391.573647 
L 562.798228 380.472763 
L 564.165028 384.733115 
L 565.531829 416.376407 
L 566.898629 416.429129 
L 568.265429 417.168465 
L 569.632229 417.23828 
L 570.99903 417.727506 
L 572.36583 416.093671 
L 573.73263 415.880909 
L 576.466231 413.226145 
L 577.833031 412.625634 
L 579.199831 392.67342 
L 580.566632 393.469171 
L 581.933432 396.047814 
L 583.300232 411.03749 
L 584.667032 410.328522 
L 588.767433 410.049023 
L 590.134233 407.676683 
L 591.501034 404.446216 
L 592.867834 418.221147 
L 594.234634 420.316842 
L 595.601434 419.688722 
L 596.968235 420.000334 
L 598.335035 416.94562 
L 599.701835 433.081109 
L 601.068635 433.918209 
L 602.435436 434.059372 
L 603.802236 434.957611 
L 605.169036 437.39952 
L 606.535836 437.346692 
L 607.902637 435.958279 
L 609.269437 434.009928 
L 610.636237 432.284423 
L 612.003037 430.894794 
L 613.369838 431.046296 
L 614.736638 431.342259 
L 618.837039 430.952819 
L 620.203839 430.915783 
L 621.570639 411.69256 
L 622.937439 413.805368 
L 625.67104 430.890503 
L 631.138241 430.7745 
L 632.505041 430.94009 
L 633.871841 431.433287 
L 635.238642 430.559322 
L 636.605442 441.937197 
L 637.972242 442.653005 
L 639.339042 442.789474 
L 640.705843 443.781141 
L 642.072643 443.781818 
L 646.173044 433.399438 
L 647.539844 432.102619 
L 648.906644 431.580141 
L 650.273444 430.618636 
L 651.640245 429.92461 
L 653.007045 429.409757 
L 654.373845 429.504868 
L 655.740645 430.241695 
L 657.107446 434.033464 
L 658.474246 442.626196 
L 659.841046 440.439632 
L 661.207846 439.92708 
L 662.574647 440.060035 
L 666.675047 440.011769 
L 668.041848 440.176014 
L 669.408648 440.460447 
L 673.509049 440.416439 
L 676.242649 440.40646 
L 677.609449 439.674706 
L 678.97625 440.578557 
L 681.70985 440.469683 
L 683.07665 440.477383 
L 685.810251 440.220165 
L 687.177051 440.886263 
L 689.910652 440.767217 
L 691.277452 440.760692 
L 692.644252 440.577163 
L 694.011053 440.860512 
L 695.377853 440.760394 
L 696.744653 440.969568 
L 702.211854 441.021289 
L 704.945455 441.021321 
L 704.945455 441.021321 
" clip-path="url(#p3561b586b6)" style="fill: none; stroke: #004d99; stroke-width: 1.5; stroke-linecap: square"/>
   </g>
   <g id="patch_3">
    <path d="M 86.4 460.8 
L 86.4 86.4 
" style="fill: none; stroke: #000000; stroke-width: 0.8; stroke-linejoin: miter; stroke-linecap: square"/>
   </g>
   <g id="patch_4">
    <path d="M 734.4 460.8 
L 734.4 86.4 
" style="fill: none; stroke: #000000; stroke-width: 0.8; stroke-linejoin: miter; stroke-linecap: square"/>
   </g>
   <g id="patch_5">
    <path d="M 86.4 460.8 
L 734.4 460.8 
" style="fill: none; stroke: #000000; stroke-width: 0.8; stroke-linejoin: miter; stroke-linecap: square"/>
   </g>
   <g id="patch_6">
    <path d="M 86.4 86.4 
L 734.4 86.4 
" style="fill: none; stroke: #000000; stroke-width: 0.8; stroke-linejoin: miter; stroke-linecap: square"/>
   </g>
   <g id="text_13">
    <!-- Objective evolution per iteration. Computation time: 46.175s -->
    <g transform="translate(86.4 80.4) scale(0.16 -0.16)">
     <defs>
      <path id="DejaVuSerif-Bold-4f" d="M 2784 288 
Q 3381 288 3672 791 
Q 3963 1294 3963 2328 
Q 3963 3366 3672 3869 
Q 3381 4372 2784 4372 
Q 2191 4372 1898 3864 
Q 1606 3356 1606 2328 
Q 1606 1303 1898 795 
Q 2191 288 2784 288 
z
M 2784 -91 
Q 1606 -91 937 553 
Q 269 1197 269 2328 
Q 269 3459 939 4104 
Q 1609 4750 2784 4750 
Q 3963 4750 4631 4106 
Q 5300 3463 5300 2328 
Q 5300 1197 4629 553 
Q 3959 -91 2784 -91 
z
" transform="scale(0.015625)"/>
      <path id="DejaVuSerif-Bold-62" d="M 622 378 
L 622 4488 
L 147 4488 
L 147 4863 
L 1728 4863 
L 1728 2900 
Q 1869 3159 2106 3286 
Q 2344 3413 2694 3413 
Q 3403 3413 3811 2945 
Q 4219 2478 4219 1663 
Q 4219 847 3811 378 
Q 3403 -91 2694 -91 
Q 2344 -91 2106 36 
Q 1869 163 1728 422 
L 1728 0 
L 147 0 
L 147 378 
L 622 378 
z
M 1728 1497 
Q 1728 916 1876 656 
Q 2025 397 2356 397 
Q 2697 397 2836 672 
Q 2975 947 2975 1663 
Q 2975 2378 2836 2651 
Q 2697 2925 2356 2925 
Q 2025 2925 1876 2665 
Q 1728 2406 1728 1825 
L 1728 1497 
z
" transform="scale(0.015625)"/>
      <path id="DejaVuSerif-Bold-6a" d="M 556 4263 
Q 556 4516 729 4689 
Q 903 4863 1159 4863 
Q 1403 4863 1578 4688 
Q 1753 4513 1753 4263 
Q 1753 4016 1579 3842 
Q 1406 3669 1159 3669 
Q 906 3669 731 3841 
Q 556 4013 556 4263 
z
M 684 2944 
L 213 2944 
L 213 3322 
L 1791 3322 
L 1791 -391 
Q 1791 -900 1430 -1161 
Q 1069 -1422 366 -1422 
Q 178 -1422 -34 -1390 
Q -247 -1359 -475 -1300 
L -475 -594 
L -122 -597 
Q -116 -847 -23 -958 
Q 69 -1069 275 -1069 
Q 503 -1069 593 -922 
Q 684 -775 684 -391 
L 684 2944 
z
" transform="scale(0.015625)"/>
      <path id="DejaVuSerif-Bold-65" d="M 2566 1875 
Q 2566 2531 2444 2795 
Q 2322 3059 2028 3059 
Q 1744 3059 1620 2800 
Q 1497 2541 1497 1931 
L 1497 1875 
L 2566 1875 
z
M 3781 1503 
L 1497 1503 
L 1497 1478 
Q 1497 834 1690 548 
Q 1884 263 2316 263 
Q 2675 263 2897 453 
Q 3119 644 3181 1006 
L 3700 1006 
Q 3566 441 3166 175 
Q 2766 -91 2047 -91 
Q 1184 -91 723 364 
Q 263 819 263 1663 
Q 263 2488 734 2950 
Q 1206 3413 2047 3413 
Q 2872 3413 3312 2927 
Q 3753 2441 3781 1503 
z
" transform="scale(0.015625)"/>
      <path id="DejaVuSerif-Bold-63" d="M 3609 1038 
Q 3491 469 3123 189 
Q 2756 -91 2125 -91 
Q 1238 -91 750 368 
Q 263 828 263 1663 
Q 263 2488 744 2950 
Q 1225 3413 2081 3413 
Q 2428 3413 2781 3347 
Q 3134 3281 3500 3150 
L 3500 2228 
L 3150 2228 
Q 3100 2650 2903 2854 
Q 2706 3059 2350 3059 
Q 1888 3059 1692 2746 
Q 1497 2434 1497 1663 
Q 1497 909 1687 586 
Q 1878 263 2309 263 
Q 2644 263 2845 463 
Q 3047 663 3091 1038 
L 3609 1038 
z
" transform="scale(0.015625)"/>
      <path id="DejaVuSerif-Bold-74" d="M 634 2944 
L 153 2944 
L 153 3322 
L 634 3322 
L 634 4353 
L 1741 4353 
L 1741 3322 
L 2663 3322 
L 2663 2944 
L 1741 2944 
L 1741 909 
Q 1741 475 1809 369 
Q 1878 263 2059 263 
Q 2259 263 2356 397 
Q 2453 531 2459 813 
L 2925 813 
Q 2897 313 2651 111 
Q 2406 -91 1806 -91 
Q 1122 -91 878 123 
Q 634 338 634 909 
L 634 2944 
z
" transform="scale(0.015625)"/>
      <path id="DejaVuSerif-Bold-69" d="M 588 4263 
Q 588 4516 763 4689 
Q 938 4863 1191 4863 
Q 1438 4863 1611 4689 
Q 1784 4516 1784 4263 
Q 1784 4016 1611 3842 
Q 1438 3669 1191 3669 
Q 938 3669 763 3841 
Q 588 4013 588 4263 
z
M 1797 378 
L 2272 378 
L 2272 0 
L 219 0 
L 219 378 
L 691 378 
L 691 2944 
L 219 2944 
L 219 3322 
L 1797 3322 
L 1797 378 
z
" transform="scale(0.015625)"/>
      <path id="DejaVuSerif-Bold-76" d="M 1428 0 
L 250 2944 
L -116 2944 
L -116 3322 
L 1791 3322 
L 1791 2944 
L 1388 2944 
L 2228 844 
L 3066 2944 
L 2631 2944 
L 2631 3322 
L 3878 3322 
L 3878 2944 
L 3494 2944 
L 2316 0 
L 1428 0 
z
" transform="scale(0.015625)"/>
      <path id="DejaVuSerif-Bold-20" transform="scale(0.015625)"/>
      <path id="DejaVuSerif-Bold-6f" d="M 2138 263 
Q 2488 263 2630 563 
Q 2772 863 2772 1663 
Q 2772 2463 2631 2761 
Q 2491 3059 2138 3059 
Q 1784 3059 1640 2757 
Q 1497 2456 1497 1663 
Q 1497 869 1640 566 
Q 1784 263 2138 263 
z
M 2138 -91 
Q 1259 -91 761 376 
Q 263 844 263 1663 
Q 263 2484 761 2948 
Q 1259 3413 2138 3413 
Q 3019 3413 3516 2948 
Q 4013 2484 4013 1663 
Q 4013 844 3514 376 
Q 3016 -91 2138 -91 
z
" transform="scale(0.015625)"/>
      <path id="DejaVuSerif-Bold-6c" d="M 1797 378 
L 2272 378 
L 2272 0 
L 219 0 
L 219 378 
L 691 378 
L 691 4488 
L 219 4488 
L 219 4863 
L 1797 4863 
L 1797 378 
z
" transform="scale(0.015625)"/>
      <path id="DejaVuSerif-Bold-75" d="M 3963 3322 
L 3963 378 
L 4434 378 
L 4434 0 
L 2853 0 
L 2853 469 
Q 2656 172 2400 40 
Q 2144 -91 1753 -91 
Q 1194 -91 908 239 
Q 622 569 622 1209 
L 622 2944 
L 147 2944 
L 147 3322 
L 1728 3322 
L 1728 1381 
Q 1728 763 1831 595 
Q 1934 428 2209 428 
Q 2544 428 2698 675 
Q 2853 922 2853 1459 
L 2853 2944 
L 2450 2944 
L 2450 3322 
L 3963 3322 
z
" transform="scale(0.015625)"/>
      <path id="DejaVuSerif-Bold-6e" d="M 219 0 
L 219 378 
L 691 378 
L 691 2944 
L 219 2944 
L 219 3322 
L 1797 3322 
L 1797 2853 
Q 1997 3150 2253 3281 
Q 2509 3413 2900 3413 
Q 3459 3413 3745 3083 
Q 4031 2753 4031 2113 
L 4031 378 
L 4506 378 
L 4506 0 
L 2522 0 
L 2522 378 
L 2925 378 
L 2925 2144 
Q 2925 2566 2817 2730 
Q 2709 2894 2444 2894 
Q 2109 2894 1953 2648 
Q 1797 2403 1797 1869 
L 1797 378 
L 2203 378 
L 2203 0 
L 219 0 
z
" transform="scale(0.015625)"/>
      <path id="DejaVuSerif-Bold-70" d="M 1728 1825 
L 1728 1497 
Q 1728 916 1876 656 
Q 2025 397 2356 397 
Q 2697 397 2836 672 
Q 2975 947 2975 1663 
Q 2975 2378 2836 2651 
Q 2697 2925 2356 2925 
Q 2025 2925 1876 2665 
Q 1728 2406 1728 1825 
z
M 622 2944 
L 147 2944 
L 147 3322 
L 1728 3322 
L 1728 2900 
Q 1869 3159 2106 3286 
Q 2344 3413 2694 3413 
Q 3403 3413 3811 2945 
Q 4219 2478 4219 1663 
Q 4219 847 3811 378 
Q 3403 -91 2694 -91 
Q 2344 -91 2106 36 
Q 1869 163 1728 422 
L 1728 -953 
L 2241 -953 
L 2241 -1331 
L 147 -1331 
L 147 -953 
L 622 -953 
L 622 2944 
z
" transform="scale(0.015625)"/>
      <path id="DejaVuSerif-Bold-72" d="M 3438 3359 
L 3438 2369 
L 3084 2369 
Q 3066 2634 2941 2764 
Q 2816 2894 2578 2894 
Q 2216 2894 2006 2575 
Q 1797 2256 1797 1691 
L 1797 378 
L 2400 378 
L 2400 0 
L 219 0 
L 219 378 
L 691 378 
L 691 2944 
L 184 2944 
L 184 3322 
L 1797 3322 
L 1797 2731 
Q 1959 3078 2226 3245 
Q 2494 3413 2881 3413 
Q 2978 3413 3117 3398 
Q 3256 3384 3438 3359 
z
" transform="scale(0.015625)"/>
      <path id="DejaVuSerif-Bold-61" d="M 3525 2041 
L 3525 378 
L 4000 378 
L 4000 0 
L 2419 0 
L 2419 422 
Q 2200 159 1931 34 
Q 1663 -91 1319 -91 
Q 809 -91 536 182 
Q 263 456 263 966 
Q 263 1525 655 1803 
Q 1047 2081 1838 2081 
L 2419 2081 
L 2419 2278 
Q 2419 2681 2228 2873 
Q 2038 3066 1638 3066 
Q 1306 3066 1126 2930 
Q 947 2794 872 2484 
L 519 2484 
L 519 3200 
Q 816 3306 1134 3359 
Q 1453 3413 1806 3413 
Q 2697 3413 3111 3081 
Q 3525 2750 3525 2041 
z
M 2419 1044 
L 2419 1709 
L 2003 1709 
Q 1694 1709 1528 1540 
Q 1363 1372 1363 1056 
Q 1363 741 1483 584 
Q 1603 428 1850 428 
Q 2106 428 2262 597 
Q 2419 766 2419 1044 
z
" transform="scale(0.015625)"/>
      <path id="DejaVuSerif-Bold-2e" d="M 519 506 
Q 519 750 694 925 
Q 869 1100 1113 1100 
Q 1359 1100 1534 925 
Q 1709 750 1709 506 
Q 1709 259 1534 84 
Q 1359 -91 1113 -91 
Q 869 -91 694 84 
Q 519 259 519 506 
z
" transform="scale(0.015625)"/>
      <path id="DejaVuSerif-Bold-43" d="M 4769 1331 
Q 4584 609 4106 259 
Q 3628 -91 2822 -91 
Q 1641 -91 955 561 
Q 269 1213 269 2328 
Q 269 3447 955 4098 
Q 1641 4750 2822 4750 
Q 3238 4750 3688 4650 
Q 4138 4550 4641 4347 
L 4641 3200 
L 4244 3200 
Q 4122 3788 3800 4080 
Q 3478 4372 2950 4372 
Q 2269 4372 1937 3870 
Q 1606 3369 1606 2328 
Q 1606 1288 1937 788 
Q 2269 288 2956 288 
Q 3422 288 3717 547 
Q 4013 806 4147 1331 
L 4769 1331 
z
" transform="scale(0.015625)"/>
      <path id="DejaVuSerif-Bold-6d" d="M 3884 2778 
Q 4116 3109 4384 3261 
Q 4653 3413 5013 3413 
Q 5584 3413 5867 3089 
Q 6150 2766 6150 2113 
L 6150 378 
L 6625 378 
L 6625 0 
L 4647 0 
L 4647 378 
L 5044 378 
L 5044 1947 
Q 5044 2569 4948 2731 
Q 4853 2894 4594 2894 
Q 4300 2894 4137 2667 
Q 3975 2441 3975 2022 
L 3975 378 
L 4372 378 
L 4372 0 
L 2472 0 
L 2472 378 
L 2869 378 
L 2869 1947 
Q 2869 2569 2772 2731 
Q 2675 2894 2419 2894 
Q 2122 2894 1959 2667 
Q 1797 2441 1797 2022 
L 1797 378 
L 2194 378 
L 2194 0 
L 219 0 
L 219 378 
L 691 378 
L 691 2944 
L 219 2944 
L 219 3322 
L 1797 3322 
L 1797 2853 
Q 1991 3144 2241 3278 
Q 2491 3413 2834 3413 
Q 3241 3413 3494 3258 
Q 3747 3103 3884 2778 
z
" transform="scale(0.015625)"/>
      <path id="DejaVuSerif-Bold-3a" d="M 588 2541 
Q 588 2788 761 2963 
Q 934 3138 1178 3138 
Q 1422 3138 1597 2961 
Q 1772 2784 1772 2541 
Q 1772 2297 1598 2125 
Q 1425 1953 1178 1953 
Q 931 1953 759 2125 
Q 588 2297 588 2541 
z
M 588 506 
Q 588 750 761 925 
Q 934 1100 1178 1100 
Q 1422 1100 1597 925 
Q 1772 750 1772 506 
Q 1772 259 1597 84 
Q 1422 -91 1178 -91 
Q 934 -91 761 84 
Q 588 259 588 506 
z
" transform="scale(0.015625)"/>
      <path id="DejaVuSerif-Bold-34" d="M 4084 0 
L 1516 0 
L 1516 378 
L 2209 378 
L 2209 1228 
L 263 1228 
L 263 1588 
L 2216 4750 
L 3391 4750 
L 3391 1631 
L 4191 1631 
L 4191 1228 
L 3391 1228 
L 3391 378 
L 4084 378 
L 4084 0 
z
M 2209 1631 
L 2209 3897 
L 819 1631 
L 2209 1631 
z
" transform="scale(0.015625)"/>
      <path id="DejaVuSerif-Bold-36" d="M 1575 2766 
Q 1778 2928 2029 3009 
Q 2281 3091 2578 3091 
Q 3294 3091 3701 2672 
Q 4109 2253 4109 1522 
Q 4109 750 3650 329 
Q 3191 -91 2344 -91 
Q 1388 -91 895 486 
Q 403 1063 403 2181 
Q 403 3453 950 4101 
Q 1497 4750 2572 4750 
Q 2853 4750 3175 4703 
Q 3497 4656 3866 4563 
L 3866 3738 
L 3488 3738 
Q 3409 4056 3192 4220 
Q 2975 4384 2631 4384 
Q 2075 4384 1826 4003 
Q 1578 3622 1575 2766 
z
M 2272 275 
Q 2594 275 2731 548 
Q 2869 822 2869 1497 
Q 2869 2172 2731 2445 
Q 2594 2719 2272 2719 
Q 1950 2719 1814 2445 
Q 1678 2172 1678 1497 
Q 1678 822 1814 548 
Q 1950 275 2272 275 
z
" transform="scale(0.015625)"/>
      <path id="DejaVuSerif-Bold-31" d="M 878 0 
L 878 378 
L 1753 378 
L 1753 4153 
L 781 3578 
L 781 4044 
L 1953 4750 
L 2938 4750 
L 2938 378 
L 3816 378 
L 3816 0 
L 878 0 
z
" transform="scale(0.015625)"/>
      <path id="DejaVuSerif-Bold-37" d="M 3922 3872 
L 1997 0 
L 1363 0 
L 3238 3781 
L 934 3781 
L 934 3150 
L 506 3150 
L 506 4666 
L 3922 4666 
L 3922 3872 
z
" transform="scale(0.015625)"/>
      <path id="DejaVuSerif-Bold-35" d="M 3609 4666 
L 3609 3847 
L 1113 3847 
L 1113 2822 
Q 1319 2981 1572 3062 
Q 1825 3144 2106 3144 
Q 2969 3144 3469 2708 
Q 3969 2272 3969 1522 
Q 3969 759 3469 334 
Q 2969 -91 2069 -91 
Q 1688 -91 1311 -28 
Q 934 34 525 166 
L 525 1184 
L 900 1184 
Q 919 725 1139 500 
Q 1359 275 1791 275 
Q 2250 275 2472 583 
Q 2694 891 2694 1522 
Q 2694 2144 2476 2451 
Q 2259 2759 1819 2759 
Q 1581 2759 1395 2661 
Q 1209 2563 1050 2356 
L 738 2356 
L 738 4666 
L 3609 4666 
z
" transform="scale(0.015625)"/>
      <path id="DejaVuSerif-Bold-73" d="M 300 97 
L 300 1025 
L 653 1025 
Q 697 653 931 458 
Q 1166 263 1569 263 
Q 1906 263 2086 380 
Q 2266 497 2266 716 
Q 2266 916 2152 1025 
Q 2038 1134 1709 1216 
L 1253 1331 
Q 738 1459 506 1698 
Q 275 1938 275 2344 
Q 275 2884 650 3148 
Q 1025 3413 1806 3413 
Q 2100 3413 2433 3364 
Q 2766 3316 3169 3213 
L 3169 2375 
L 2816 2375 
Q 2788 2716 2573 2887 
Q 2359 3059 1959 3059 
Q 1622 3059 1448 2951 
Q 1275 2844 1275 2638 
Q 1275 2469 1375 2372 
Q 1475 2275 1734 2209 
L 2188 2094 
Q 2841 1928 3091 1684 
Q 3341 1441 3341 1006 
Q 3341 444 2939 176 
Q 2538 -91 1691 -91 
Q 1381 -91 1034 -44 
Q 688 3 300 97 
z
" transform="scale(0.015625)"/>
     </defs>
     <use xlink:href="#DejaVuSerif-Bold-4f"/>
     <use xlink:href="#DejaVuSerif-Bold-62" transform="translate(87.109375 0)"/>
     <use xlink:href="#DejaVuSerif-Bold-6a" transform="translate(157.03125 0)"/>
     <use xlink:href="#DejaVuSerif-Bold-65" transform="translate(193.212891 0)"/>
     <use xlink:href="#DejaVuSerif-Bold-63" transform="translate(256.835938 0)"/>
     <use xlink:href="#DejaVuSerif-Bold-74" transform="translate(317.724609 0)"/>
     <use xlink:href="#DejaVuSerif-Bold-69" transform="translate(363.916016 0)"/>
     <use xlink:href="#DejaVuSerif-Bold-76" transform="translate(401.904297 0)"/>
     <use xlink:href="#DejaVuSerif-Bold-65" transform="translate(460.009766 0)"/>
     <use xlink:href="#DejaVuSerif-Bold-20" transform="translate(523.632812 0)"/>
     <use xlink:href="#DejaVuSerif-Bold-65" transform="translate(558.447266 0)"/>
     <use xlink:href="#DejaVuSerif-Bold-76" transform="translate(622.070312 0)"/>
     <use xlink:href="#DejaVuSerif-Bold-6f" transform="translate(680.175781 0)"/>
     <use xlink:href="#DejaVuSerif-Bold-6c" transform="translate(746.875 0)"/>
     <use xlink:href="#DejaVuSerif-Bold-75" transform="translate(784.863281 0)"/>
     <use xlink:href="#DejaVuSerif-Bold-74" transform="translate(857.568359 0)"/>
     <use xlink:href="#DejaVuSerif-Bold-69" transform="translate(903.759766 0)"/>
     <use xlink:href="#DejaVuSerif-Bold-6f" transform="translate(941.748047 0)"/>
     <use xlink:href="#DejaVuSerif-Bold-6e" transform="translate(1008.447266 0)"/>
     <use xlink:href="#DejaVuSerif-Bold-20" transform="translate(1081.152344 0)"/>
     <use xlink:href="#DejaVuSerif-Bold-70" transform="translate(1115.966797 0)"/>
     <use xlink:href="#DejaVuSerif-Bold-65" transform="translate(1185.888672 0)"/>
     <use xlink:href="#DejaVuSerif-Bold-72" transform="translate(1249.511719 0)"/>
     <use xlink:href="#DejaVuSerif-Bold-20" transform="translate(1302.197266 0)"/>
     <use xlink:href="#DejaVuSerif-Bold-69" transform="translate(1337.011719 0)"/>
     <use xlink:href="#DejaVuSerif-Bold-74" transform="translate(1375 0)"/>
     <use xlink:href="#DejaVuSerif-Bold-65" transform="translate(1421.191406 0)"/>
     <use xlink:href="#DejaVuSerif-Bold-72" transform="translate(1484.814453 0)"/>
     <use xlink:href="#DejaVuSerif-Bold-61" transform="translate(1537.5 0)"/>
     <use xlink:href="#DejaVuSerif-Bold-74" transform="translate(1602.294922 0)"/>
     <use xlink:href="#DejaVuSerif-Bold-69" transform="translate(1648.486328 0)"/>
     <use xlink:href="#DejaVuSerif-Bold-6f" transform="translate(1686.474609 0)"/>
     <use xlink:href="#DejaVuSerif-Bold-6e" transform="translate(1753.173828 0)"/>
     <use xlink:href="#DejaVuSerif-Bold-2e" transform="translate(1825.878906 0)"/>
     <use xlink:href="#DejaVuSerif-Bold-20" transform="translate(1860.693359 0)"/>
     <use xlink:href="#DejaVuSerif-Bold-43" transform="translate(1895.507812 0)"/>
     <use xlink:href="#DejaVuSerif-Bold-6f" transform="translate(1975.097656 0)"/>
     <use xlink:href="#DejaVuSerif-Bold-6d" transform="translate(2041.796875 0)"/>
     <use xlink:href="#DejaVuSerif-Bold-70" transform="translate(2147.607422 0)"/>
     <use xlink:href="#DejaVuSerif-Bold-75" transform="translate(2217.529297 0)"/>
     <use xlink:href="#DejaVuSerif-Bold-74" transform="translate(2290.234375 0)"/>
     <use xlink:href="#DejaVuSerif-Bold-61" transform="translate(2336.425781 0)"/>
     <use xlink:href="#DejaVuSerif-Bold-74" transform="translate(2401.220703 0)"/>
     <use xlink:href="#DejaVuSerif-Bold-69" transform="translate(2447.412109 0)"/>
     <use xlink:href="#DejaVuSerif-Bold-6f" transform="translate(2485.400391 0)"/>
     <use xlink:href="#DejaVuSerif-Bold-6e" transform="translate(2552.099609 0)"/>
     <use xlink:href="#DejaVuSerif-Bold-20" transform="translate(2624.804688 0)"/>
     <use xlink:href="#DejaVuSerif-Bold-74" transform="translate(2659.619141 0)"/>
     <use xlink:href="#DejaVuSerif-Bold-69" transform="translate(2705.810547 0)"/>
     <use xlink:href="#DejaVuSerif-Bold-6d" transform="translate(2743.798828 0)"/>
     <use xlink:href="#DejaVuSerif-Bold-65" transform="translate(2849.609375 0)"/>
     <use xlink:href="#DejaVuSerif-Bold-3a" transform="translate(2913.232422 0)"/>
     <use xlink:href="#DejaVuSerif-Bold-20" transform="translate(2950.146484 0)"/>
     <use xlink:href="#DejaVuSerif-Bold-34" transform="translate(2984.960938 0)"/>
     <use xlink:href="#DejaVuSerif-Bold-36" transform="translate(3054.541016 0)"/>
     <use xlink:href="#DejaVuSerif-Bold-2e" transform="translate(3124.121094 0)"/>
     <use xlink:href="#DejaVuSerif-Bold-31" transform="translate(3158.935547 0)"/>
     <use xlink:href="#DejaVuSerif-Bold-37" transform="translate(3228.515625 0)"/>
     <use xlink:href="#DejaVuSerif-Bold-35" transform="translate(3298.095703 0)"/>
     <use xlink:href="#DejaVuSerif-Bold-73" transform="translate(3367.675781 0)"/>
    </g>
   </g>
   <g id="legend_1">
    <g id="patch_7">
     <path d="M 754.36 109.078125 
L 816.369375 109.078125 
Q 818.369375 109.078125 818.369375 107.078125 
L 818.369375 93.4 
Q 818.369375 91.4 816.369375 91.4 
L 754.36 91.4 
Q 752.36 91.4 752.36 93.4 
L 752.36 107.078125 
Q 752.36 109.078125 754.36 109.078125 
z
" style="fill: #ffffff; opacity: 0.8; stroke: #cccccc; stroke-linejoin: miter"/>
    </g>
    <g id="line2d_88">
     <path d="M 756.36 99.498438 
L 766.36 99.498438 
L 776.36 99.498438 
" style="fill: none; stroke: #004d99; stroke-width: 1.5; stroke-linecap: square"/>
    </g>
    <g id="text_14">
     <!-- Cost J -->
     <g transform="translate(784.36 102.998438) scale(0.1 -0.1)">
      <defs>
       <path id="DejaVuSerif-43" d="M 4513 1234 
Q 4306 581 3820 245 
Q 3334 -91 2591 -91 
Q 2134 -91 1743 65 
Q 1353 222 1050 525 
Q 700 875 529 1320 
Q 359 1766 359 2328 
Q 359 3416 987 4083 
Q 1616 4750 2644 4750 
Q 3025 4750 3456 4650 
Q 3888 4550 4384 4347 
L 4384 3272 
L 4031 3272 
Q 3916 3859 3567 4137 
Q 3219 4416 2591 4416 
Q 1844 4416 1459 3886 
Q 1075 3356 1075 2328 
Q 1075 1303 1459 773 
Q 1844 244 2591 244 
Q 3113 244 3450 492 
Q 3788 741 3938 1234 
L 4513 1234 
z
" transform="scale(0.015625)"/>
       <path id="DejaVuSerif-6f" d="M 1925 219 
Q 2388 219 2623 584 
Q 2859 950 2859 1663 
Q 2859 2375 2623 2739 
Q 2388 3103 1925 3103 
Q 1463 3103 1227 2739 
Q 991 2375 991 1663 
Q 991 950 1228 584 
Q 1466 219 1925 219 
z
M 1925 -91 
Q 1200 -91 759 389 
Q 319 869 319 1663 
Q 319 2456 758 2934 
Q 1197 3413 1925 3413 
Q 2653 3413 3092 2934 
Q 3531 2456 3531 1663 
Q 3531 869 3092 389 
Q 2653 -91 1925 -91 
z
" transform="scale(0.015625)"/>
       <path id="DejaVuSerif-73" d="M 359 184 
L 359 959 
L 691 959 
Q 703 588 923 403 
Q 1144 219 1575 219 
Q 1963 219 2166 364 
Q 2369 509 2369 788 
Q 2369 1006 2220 1140 
Q 2072 1275 1594 1428 
L 1178 1569 
Q 750 1706 558 1912 
Q 366 2119 366 2438 
Q 366 2894 700 3153 
Q 1034 3413 1625 3413 
Q 1888 3413 2178 3344 
Q 2469 3275 2778 3144 
L 2778 2419 
L 2447 2419 
Q 2434 2741 2221 2922 
Q 2009 3103 1644 3103 
Q 1281 3103 1095 2975 
Q 909 2847 909 2591 
Q 909 2381 1050 2254 
Q 1191 2128 1613 1997 
L 2069 1856 
Q 2541 1709 2748 1489 
Q 2956 1269 2956 922 
Q 2956 450 2595 179 
Q 2234 -91 1600 -91 
Q 1278 -91 972 -22 
Q 666 47 359 184 
z
" transform="scale(0.015625)"/>
       <path id="DejaVuSerif-74" d="M 691 2988 
L 184 2988 
L 184 3322 
L 691 3322 
L 691 4353 
L 1269 4353 
L 1269 3322 
L 2350 3322 
L 2350 2988 
L 1269 2988 
L 1269 878 
Q 1269 456 1350 337 
Q 1431 219 1650 219 
Q 1875 219 1978 351 
Q 2081 484 2088 781 
L 2522 781 
Q 2497 328 2275 118 
Q 2053 -91 1600 -91 
Q 1103 -91 897 129 
Q 691 350 691 878 
L 691 2988 
z
" transform="scale(0.015625)"/>
       <path id="DejaVuSerif-20" transform="scale(0.015625)"/>
       <path id="DejaVuSerif-4a" d="M -538 -1119 
L -538 -384 
L -181 -384 
Q -172 -694 -34 -845 
Q 103 -997 378 -997 
Q 750 -997 897 -762 
Q 1044 -528 1044 153 
L 1044 4331 
L 319 4331 
L 319 4666 
L 2272 4666 
L 2272 4331 
L 1678 4331 
L 1678 128 
Q 1678 -644 1368 -987 
Q 1059 -1331 372 -1331 
Q 150 -1331 -79 -1278 
Q -309 -1225 -538 -1119 
z
" transform="scale(0.015625)"/>
      </defs>
      <use xlink:href="#DejaVuSerif-43"/>
      <use xlink:href="#DejaVuSerif-6f" transform="translate(76.513672 0)"/>
      <use xlink:href="#DejaVuSerif-73" transform="translate(136.71875 0)"/>
      <use xlink:href="#DejaVuSerif-74" transform="translate(188.037109 0)"/>
      <use xlink:href="#DejaVuSerif-20" transform="translate(228.222656 0)"/>
      <use xlink:href="#DejaVuSerif-4a" transform="translate(260.009766 0)"/>
     </g>
    </g>
   </g>
  </g>
 </g>
 <defs>
  <clipPath id="p3561b586b6">
   <rect x="86.4" y="86.4" width="648" height="374.4"/>
  </clipPath>
 </defs>
</svg>
